G04 ================== begin FILE IDENTIFICATION RECORD ==================*
G04 Layout Name:  C:/Users/Joel/Desktop/ORCAD_ObCP_V2_2/OBcP_v2_3_V1.brd*
G04 Film Name:    BOTTOM*
G04 File Format:  Gerber RS274X*
G04 File Origin:  Cadence Allegro 23.1-S004*
G04 Origin Date:  Fri Nov 22 16:40:57 2024*
G04 *
G04 Layer:  ETCH/BOTTOM*
G04 Layer:  PIN/BOTTOM*
G04 Layer:  VIA CLASS/BOTTOM*
G04 *
G04 Offset:    (0.0000 0.0000)*
G04 Mirror:    No*
G04 Mode:      Positive*
G04 Rotation:  0*
G04 FullContactRelief:  No*
G04 UndefLineWidth:     0.0000*
G04 ================== end FILE IDENTIFICATION RECORD ====================*
%FSLAX25Y25*MOMM*%
%IR0*IPPOS*OFA0.00000B0.00000*MIA0B0*SFA1.00000B1.00000*%
%ADD10C,.6*%
%ADD15R,1.3X2.2*%
%ADD13C,1.*%
%ADD18C,1.12*%
%ADD16R,1.9X1.9*%
%ADD11C,1.6*%
%ADD17C,1.8*%
%ADD14R,1.4X1.4*%
%ADD12R,1.5748X1.5748*%
%ADD19C,.3*%
%ADD20C,.254*%
%ADD22C,2.1084*%
%ADD21C,2.3084*%
%ADD23C,1.8544*%
G75*
%LPD*%
G75*
G36*
G01X3490650Y8000000D02*
X4885980D01*
Y7490000D01*
X4240000D01*
Y5970000D01*
X4840000D01*
Y5542060D01*
X4710000D01*
G03X4656670Y5519970I0J-75420D01*
G01X4562120Y5425420D01*
X4517350D01*
G02X4508050Y5439670I1J10160D01*
G03X4514420Y5470000I-69049J30336D01*
G03X4488970Y5526490I-75419J0D01*
G02X4487830Y5540520I6732J7608D01*
G03X4498120Y5567760I-27832J26077D01*
G01Y5584920D01*
G03X4535420Y5650000I-38125J65080D01*
G03X4384580I-75420J0D01*
G03X4413860Y5590340I75421J0D01*
G02X4416010Y5576550I-6221J-8032D01*
G01X4412030Y5572570D01*
G03X4400860Y5545600I26975J-26970D01*
G03X4400880Y5544470I38138J110D01*
G01Y5535140D01*
X4398530Y5533640D01*
G03X4363580Y5470000I40466J-63640D01*
G03X4369950Y5439670I75419J6D01*
G02X4360650Y5425420I-9301J-4090D01*
G01X4151240D01*
X4095420Y5481240D01*
Y5525800D01*
G03X4020000Y5601220I-75420J0D01*
G01X3541240D01*
X3485420Y5657040D01*
Y5770000D01*
G03X3334580I-75420J0D01*
G01Y5625800D01*
G03X3356670Y5572470I75420J0D01*
G01X3456670Y5472470D01*
G03X3510000Y5450380I53330J53330D01*
G01X3944430D01*
X3944710Y5445600D01*
G03X3966670Y5396670I75291J4398D01*
G01X4066670Y5296670D01*
G03X4120000Y5274580I53330J53330D01*
G01X4593360D01*
G03X4646690Y5296670I0J75420D01*
G01X4741240Y5391220D01*
X5108760D01*
X5164580Y5335400D01*
Y5110000D01*
G03X5315420I75420J0D01*
G01Y5366640D01*
G03X5293330Y5419970I-75420J0D01*
G01X5193330Y5519970D01*
G03X5190850Y5522340I-53334J-53326D01*
G02X5197700Y5540000I6853J7500D01*
G01X5400000D01*
Y0D01*
X4894020D01*
Y504020D01*
X4385980D01*
Y0D01*
X1014020D01*
Y514020D01*
X505980D01*
Y0D01*
X0D01*
Y7485980D01*
X514020D01*
Y8000000D01*
X3109350D01*
G02X3116410Y7982540I-5J-10159D01*
G03X3091580Y7924000I56593J-58540D01*
G03X3254420I81420J0D01*
G03X3229590Y7982540I-81423J0D01*
G02X3236650Y8000000I7065J7301D01*
G01X3363350D01*
G02X3370410Y7982540I-5J-10159D01*
G03X3345580Y7924000I56593J-58540D01*
G03X3508420I81420J0D01*
G03X3483590Y7982540I-81423J0D01*
G02X3490650Y8000000I7065J7301D01*
G37*
%LPC*%
G75*
G36*
G01X2744800Y3541190D02*
X2747870Y3538120D01*
X2944220D01*
X2980640Y3574540D01*
G03X2973450Y3591880I-7188J7180D01*
G01X2967140D01*
X2965640Y3589530D01*
G02X2902000Y3554580I-63640J40466D01*
G02X2826580Y3630000I0J75420D01*
G02X2901690Y3705420I75421J0D01*
G03X2910950Y3719670I-41J10160D01*
G02X2904580Y3750000I69049J30336D01*
G02X2941880Y3815080I75425J0D01*
G01Y4643000D01*
G02X2953050Y4669950I38117J-8D01*
G01X3410050Y5126950D01*
G02X3437000Y5138120I26958J-26947D01*
G01X3464920D01*
G02X3530000Y5175420I65080J-38125D01*
G02Y5024580I0J-75420D01*
G02X3466360Y5059530I0J75416D01*
G01X3464860Y5061880D01*
X3452790D01*
X3018120Y4627210D01*
Y3815080D01*
G02X3054830Y3759420I-38121J-65078D01*
G03X3071180Y3752700I10079J1273D01*
G02X3094700Y3760820I23520J-30003D01*
G01X3212220D01*
G02X3277300Y3798120I65080J-38125D01*
G02X3352720Y3722700I0J-75420D01*
G02X3323890Y3663390I-75422J0D01*
G03X3322990Y3648220I6282J-7984D01*
G01X3336950Y3634250D01*
G02X3348120Y3607300I-26947J-26958D01*
G01Y3033110D01*
X3363110Y3018120D01*
X3524920D01*
G02X3568720Y3052350I65072J-38127D01*
G03X3573030Y3069290I-2869J9748D01*
G01X3499730Y3142600D01*
G02X3488560Y3169550I26947J26958D01*
G01Y3406680D01*
G02X3499730Y3433630I38117J-8D01*
G01X3506990Y3440900D01*
X3506380Y3443620D01*
G02X3504580Y3460000I73629J16380D01*
G02X3580000Y3535420I75420J0D01*
G02X3648250Y3492100I0J-75423D01*
G03X3664620Y3489240I9191J4328D01*
G01X3678450Y3503060D01*
G02X3705400Y3514230I26958J-26947D01*
G01X3724920D01*
G02X3790000Y3551530I65080J-38125D01*
G02Y3400690I0J-75420D01*
G02X3729960Y3430460I0J75429D01*
G03X3714690Y3431490I-8085J-6151D01*
G01X3711440Y3428240D01*
Y3273320D01*
G02X3700270Y3246370I-38117J8D01*
G01X3693010Y3239100D01*
X3693620Y3236380D01*
G02X3695420Y3220000I-73629J-16380D01*
G02X3628420Y3145050I-75422J0D01*
G03X3622370Y3127770I1133J-10096D01*
G01X3711430Y3038710D01*
X3714150Y3039320D01*
G02X3730530Y3041120I16380J-73629D01*
G02X3804360Y2981090I0J-75416D01*
G03X3821120Y2975620I9948J2069D01*
G02X3825360Y2978940I25562J-28278D01*
G01X3836990Y2990570D01*
X3836380Y2993290D01*
G02X3834580Y3009670I73629J16380D01*
G02X3985420I75420J0D01*
G02X3982240Y2988000I-75425J0D01*
G03X3985550Y2981710I4866J-1455D01*
G02X3992300Y2979180I-23066J-71808D01*
G03X4006480Y2988510I4022J9328D01*
G01Y3000000D01*
G02X4017650Y3026950I38117J-8D01*
G01X4047650Y3056950D01*
G02X4074600Y3068120I26958J-26947D01*
G01X4084860D01*
X4086360Y3070470D01*
G02X4100350Y3086770I63642J-40469D01*
G03X4093670Y3104580I-6687J7650D01*
G01X3810000D01*
G02Y3255420I0J75420D01*
G01X4313950D01*
G03X4321790Y3272040I1J10159D01*
G02X4316360Y3279530I58232J47930D01*
G01X4314860Y3281880D01*
X4304600D01*
G02X4277650Y3293050I8J38117D01*
G01X3608810Y3961880D01*
X3265080D01*
G02X3200000Y3924580I-65080J38125D01*
G02Y4075420I0J75420D01*
G02X3265080Y4038120I0J-75425D01*
G01X3624600D01*
G02X3651550Y4026950I-8J-38117D01*
G01X4070040Y3608470D01*
G03X4087210Y3613800I7181J7187D01*
G02X4087730Y3616350I74148J-13792D01*
G01X4088340Y3619070D01*
X4063050Y3644370D01*
G02X4051880Y3671320I26947J26958D01*
G01Y4014920D01*
G02X4014580Y4080000I38125J65080D01*
G02X4090000Y4155420I75420J0D01*
G02X4165270Y4084810I0J-75424D01*
G03X4175950Y4075310I10138J644D01*
G02X4180000Y4075420I4072J-75309D01*
G02X4207950Y4070050I0J-75423D01*
G03X4221880Y4079480I3770J9434D01*
G01Y4094920D01*
G02X4184580Y4160000I38125J65080D01*
G02X4335420I75420J0D01*
G02X4298120Y4094920I-75425J0D01*
G01Y3805790D01*
X4450900Y3653010D01*
X4453620Y3653620D01*
G02X4470000Y3655420I16380J-73629D01*
G02X4517960Y3638210I0J-75431D01*
G03X4534580Y3646050I6461J7839D01*
G01Y4281460D01*
X4491460Y4324580D01*
X4410000D01*
G02Y4475420I0J75420D01*
G01X4522700D01*
G02X4576030Y4453330I0J-75420D01*
G01X4663330Y4366030D01*
G02X4685420Y4312700I-53330J-53330D01*
G01Y3280000D01*
G02X4663330Y3226670I-75420J0D01*
G01X4563330Y3126670D01*
G02X4510000Y3104580I-53330J53330D01*
G01X4417560D01*
Y2930920D01*
X4417600Y2930620D01*
G02X4418120Y2921820I-74902J-8841D01*
G01Y2828280D01*
G02X4417600Y2819480I-75422J41D01*
G01X4417560Y2819180D01*
Y2629820D01*
G03X4429800Y2619880I10160J5D01*
G02X4435000Y2620420I5212J-24879D01*
G01X4625000D01*
G02X4650420Y2595000I0J-25420D01*
G01Y2405000D01*
G02X4625000Y2379580I-25420J0D01*
G01X4435000D01*
G02X4409580Y2405000I0J25420D01*
G01Y2416250D01*
G03X4392240Y2423440I-10160J2D01*
G01X4295470Y2326670D01*
G02X4242140Y2304580I-53330J53330D01*
G01X3760000D01*
G02X3745960Y2305900I9J75419D01*
G03X3734010Y2297290I-1884J-9983D01*
G02X3659280Y2232080I-74730J10215D01*
G02X3599090Y2262060I0J75411D01*
G03X3581180Y2258600I-8106J-6124D01*
G02X3580580Y2256520I-72761J19862D01*
G03X3587090Y2243930I9720J-2952D01*
G02X3638690Y2172370I-23820J-71560D01*
G02X3563270Y2096950I-75420J0D01*
G02X3498190Y2134250I0J75425D01*
G01X3352030D01*
G02X3345540Y2134810I20J38118D01*
G01X3345110Y2134880D01*
X3341140D01*
X3339640Y2132530D01*
G02X3276000Y2097580I-63640J40466D01*
G02X3200580Y2173000I0J75420D01*
G02X3219840Y2223340I75417J0D01*
G03X3212280Y2240280I-7567J6780D01*
G01X2928230D01*
G03X2921040Y2222940I-2J-10160D01*
G01X3041950Y2102020D01*
G02X3049690Y2090870I-26941J-26963D01*
G03X3063810Y2086170I9245J4214D01*
G02X3100000Y2095420I36190J-66170D01*
G02X3165080Y2058120I0J-75425D01*
G01X3439200D01*
G02X3466150Y2046950I-8J-38117D01*
G01X3483990Y2029120D01*
X3489460D01*
X3490960Y2031470D01*
G02X3554600Y2066420I63640J-40466D01*
G02X3630020Y1991000I0J-75420D01*
G02X3630010Y1989640I-75421J-125D01*
G03X3647350Y1982270I10157J-186D01*
G01X3770200Y2105110D01*
G02X3797150Y2116280I26958J-26947D01*
G01X4124920D01*
G02X4190000Y2153580I65080J-38125D01*
G02Y2002740I0J-75420D01*
G02X4124920Y2040040I0J75425D01*
G01X3812940D01*
X3802360Y2029460D01*
X3807110Y2024710D01*
X3808730Y2024440D01*
G02X3861720Y1988120I-12083J-74445D01*
G01X4724210D01*
X4761880Y2025790D01*
Y4250000D01*
G02X4773050Y4276950I38117J-8D01*
G01X4831050Y4334950D01*
G02X4858000Y4346120I26958J-26947D01*
G01X5017710D01*
G02X5116000Y4413420I98290J-38125D01*
G02Y4202580I0J-105420D01*
G02X5017710Y4269880I0J105425D01*
G01X4873790D01*
X4838120Y4234210D01*
Y3219280D01*
G03X4855610Y3212250I10159J4D01*
G02X4910000Y3235420I54390J-52253D01*
G02X4985420Y3160000I0J-75420D01*
G02X4948120Y3094920I-75425J0D01*
G01Y1075790D01*
X5073420Y950490D01*
X5076530Y951750D01*
G02X5116000Y959420I39475J-97749D01*
G02X5010580Y854000I0J-105420D01*
G02X5018250Y893470I105419J-5D01*
G01X5019510Y896580D01*
X4883050Y1033050D01*
G02X4871880Y1060000I26947J26958D01*
G01Y3094920D01*
G02X4855610Y3107750I38124J65076D01*
G03X4838120Y3100720I-7331J-7034D01*
G01Y2010000D01*
G02X4826950Y1983050I-38117J8D01*
G01X4766950Y1923050D01*
G02X4740000Y1911880I-26958J26947D01*
G01X3861720D01*
G02X3834760Y1884920I-65080J38120D01*
G01Y1817400D01*
G02X3823590Y1790450I-38117J8D01*
G01X3798190Y1765050D01*
G02X3771240Y1753880I-26958J26947D01*
G01X3271150D01*
G02X3206070Y1716580I-65080J38125D01*
G02X3130650Y1792000I0J75420D01*
G01Y1792020D01*
G02X3144060Y1834940I75423J-10D01*
G03X3135710Y1850880I-8351J5782D01*
G01X3073400D01*
G02X3046450Y1862050I8J38117D01*
G01X3015460Y1893030D01*
G03X2998120Y1885840I-7180J-7188D01*
G01Y1835790D01*
X3332430Y1501480D01*
X3804920D01*
G02X3870000Y1538780I65080J-38125D01*
G02Y1387940I0J-75420D01*
G02X3804920Y1425240I0J75425D01*
G01X3316640D01*
G02X3289690Y1436410I8J38117D01*
G01X2953270Y1772820D01*
G03X2938240Y1772090I-7184J-7187D01*
G02X2935190Y1768590I-58358J47776D01*
G03X2937080Y1760390I3716J-3461D01*
G02X2985420Y1690000I-27079J-70390D01*
G02X2948120Y1624920I-75425J0D01*
G01Y1550000D01*
G02X2936950Y1523050I-38117J8D01*
G01X2883010Y1469100D01*
X2883620Y1466380D01*
G02X2885420Y1450000I-73629J-16380D01*
G02X2810000Y1374580I-75420J0D01*
G02X2755610Y1397750I0J75423D01*
G03X2738120Y1390720I-7331J-7034D01*
G01Y1375080D01*
G02X2775420Y1310000I-38125J-65080D01*
G02X2700000Y1234580I-75420J0D01*
G02X2645610Y1257750I0J75423D01*
G03X2628120Y1250720I-7331J-7034D01*
G01Y1225790D01*
X2650900Y1203010D01*
X2653620Y1203620D01*
G02X2670000Y1205420I16380J-73629D01*
G02X2594580Y1130000I0J-75420D01*
G02X2596380Y1146380I75429J0D01*
G01X2596990Y1149100D01*
X2563050Y1183050D01*
G02X2561010Y1185250I26908J26997D01*
G03X2543120Y1178660I-7730J-6594D01*
G01Y1105000D01*
G02X2531950Y1078050I-38117J8D01*
G01X2467250Y1013340D01*
G03X2476280Y996160I7179J-7190D01*
G02X2490000Y997420I13728J-74159D01*
G02X2555080Y960120I0J-75425D01*
G01X2664920D01*
G02X2730000Y997420I65080J-38125D01*
G02Y846580I0J-75420D01*
G02X2664920Y883880I0J75425D01*
G01X2555080D01*
G02X2490000Y846580I-65080J38125D01*
G02X2414580Y922000I0J75420D01*
G02X2415840Y935720I75419J-8D01*
G03X2398660Y944750I-9990J1851D01*
G01X2348120Y894210D01*
Y798180D01*
G03X2364420Y790090I10159J3D01*
G02X2410000Y805420I45580J-60095D01*
G02X2475080Y768120I0J-75425D01*
G01X2704920D01*
G02X2770000Y805420I65080J-38125D01*
G02Y654580I0J-75420D01*
G02X2704920Y691880I0J75425D01*
G01X2475080D01*
G02X2410000Y654580I-65080J38125D01*
G02X2405700Y654700I-47J75421D01*
G03X2397930Y637380I-581J-10142D01*
G01X2442950Y592350D01*
G02X2453850Y569900I-26949J-26956D01*
G01X2454390Y565420D01*
X2481000D01*
G02X2506420Y540000I0J-25420D01*
G01Y320000D01*
G02X2481000Y294580I-25420J0D01*
G01X2351000D01*
G02X2325580Y320000I0J25420D01*
G01Y540000D01*
G02X2342760Y564050I25424J0D01*
G03X2346650Y580840I-3296J9609D01*
G01X2283050Y644450D01*
G02X2271880Y671400I26947J26958D01*
G01Y910000D01*
G02X2283050Y936950I38117J-8D01*
G01X2466880Y1120790D01*
Y1599920D01*
G02X2429580Y1665000I38125J65080D01*
G02X2446060Y1712060I75432J0D01*
G03X2438130Y1728560I-7937J6341D01*
G01X2040470D01*
X1992120Y1680210D01*
Y1295400D01*
G02X1980950Y1268450I-38117J8D01*
G01X1955550Y1243050D01*
G02X1928600Y1231880I-26958J26947D01*
G01X1525080D01*
G02X1460000Y1194580I-65080J38125D01*
G02Y1345420I0J75420D01*
G02X1525080Y1308120I0J-75425D01*
G01X1912810D01*
X1915880Y1311190D01*
Y1696000D01*
G02X1927050Y1722950I38117J-8D01*
G01X1967780Y1763690D01*
G03X1960590Y1781030I-7188J7180D01*
G01X725080D01*
G02X660000Y1743730I-65080J38125D01*
G02X612040Y1760940I0J75431D01*
G03X595420Y1753100I-6461J-7839D01*
G01Y1215040D01*
X1292240Y518220D01*
G03X1309580Y525410I7180J7188D01*
G01Y543170D01*
X1306320Y544420D01*
G02X1293050Y553050I13693J35572D01*
G01X883050Y963050D01*
G02X871880Y990000I26947J26958D01*
G01Y1624920D01*
G02X834580Y1690000I38125J65080D01*
G02X985420I75420J0D01*
G02X985210Y1684380I-75420J4D01*
G03X1002530Y1676440I10131J-761D01*
G01X1023050Y1696950D01*
G02X1050000Y1708120I26958J-26947D01*
G01X1234920D01*
G02X1300000Y1745420I65080J-38125D01*
G02Y1594580I0J-75420D01*
G02X1234920Y1631880I0J75425D01*
G01X1065790D01*
X1018120Y1584210D01*
Y1015790D01*
X1345790Y688120D01*
X2077890D01*
G02X2104840Y676950I-8J-38117D01*
G01X2188950Y592840D01*
G02X2199900Y569960I-26948J-26957D01*
G01X2200390Y565420D01*
X2227000D01*
G02X2252420Y540000I0J-25420D01*
G01Y320000D01*
G02X2227000Y294580I-25420J0D01*
G01X2097000D01*
G02X2071580Y320000I0J25420D01*
G01Y540000D01*
G02X2089020Y564140I25427J0D01*
G03X2093020Y580970I-3187J9648D01*
G01X2062100Y611880D01*
X1597550D01*
G03X1590360Y594540I-2J-10160D01*
G01X1619480Y565420D01*
X1719000D01*
G02X1744420Y540000I0J-25420D01*
G01Y320000D01*
G02X1719000Y294580I-25420J0D01*
G01X1589000D01*
G02X1563580Y320000I0J25420D01*
G01Y513500D01*
X1535200Y541880D01*
X1490420D01*
Y320000D01*
G02X1465000Y294580I-25420J0D01*
G01X1335000D01*
G02X1309580Y320000I0J25420D01*
G01Y354580D01*
X1273800D01*
G02X1220470Y376670I0J75420D01*
G01X466670Y1130470D01*
G02X444580Y1183800I53330J53330D01*
G01Y2048580D01*
X363660D01*
G02X290000Y2018580I-73660J75430D01*
G02Y2229420I0J105420D01*
G02X363660Y2199420I0J-105430D01*
G01X516660D01*
G02X538160Y2196290I0J-75407D01*
G01X538870Y2196080D01*
X849420D01*
X954580Y2301240D01*
Y5680000D01*
G02X976670Y5733330I75420J0D01*
G01X1116670Y5873330D01*
G02X1170000Y5895420I53330J-53330D01*
G02X1245420Y5820000I0J-75420D01*
G02X1223330Y5766670I-75420J0D01*
G01X1105420Y5648760D01*
Y2270000D01*
G02X1083330Y2216670I-75420J0D01*
G01X933990Y2067330D01*
G02X880660Y2045240I-53330J53330D01*
G01X595420D01*
Y1885200D01*
G03X612040Y1877360I10159J-1D01*
G02X660000Y1894570I47960J-58221D01*
G02X725080Y1857270I0J-75425D01*
G01X2467960D01*
X2545230Y1934540D01*
G03X2538040Y1951880I-7188J7180D01*
G01X1678440D01*
G02X1613360Y1914580I-65080J38125D01*
G02Y2065420I0J75420D01*
G02X1678440Y2028120I0J-75425D01*
G01X2765600D01*
G02X2792780Y2016720I-7J-38117D01*
G03X2807620Y2017100I7242J7126D01*
G02X2864000Y2042420I56380J-50111D01*
G02X2913470Y2023930I0J-75423D01*
G01X2914900Y2022690D01*
X2921880D01*
Y2034210D01*
X2394100Y2561990D01*
X2383320D01*
G02X2356370Y2573160I8J38117D01*
G01X2349100Y2580420D01*
X2346380Y2579810D01*
G02X2330000Y2578010I-16380J73629D01*
G01X2329950D01*
G02X2327520Y2578050I26J75420D01*
G03X2322280Y2573240I-166J-5079D01*
G02X2246970Y2501800I-75310J3975D01*
G02X2175180Y2554120I0J75413D01*
G03X2162500Y2560710I-9672J-3115D01*
G02X2155010Y2559580I-7495J24291D01*
G01X1965000D01*
G02X1939580Y2585000I0J25420D01*
G01Y2594420D01*
G03X1929490Y2604580I-10159J1D01*
G02Y2755420I512J75420D01*
G03X1939580Y2765580I-69J10159D01*
G01Y2775000D01*
G02X1965000Y2800420I25420J0D01*
G01X2155530D01*
Y3049580D01*
X1965000D01*
G02X1939580Y3075000I0J25420D01*
G01Y3081480D01*
G03X1925380Y3090800I-10161J-4D01*
G02X1910210Y3086050I-29995J69195D01*
G03X1905020Y3068900I1992J-9963D01*
G01X1916950Y3056960D01*
G02X1928120Y3030010I-26947J-26958D01*
G01Y2840000D01*
G02X1916950Y2813050I-38117J8D01*
G01X1808120Y2704210D01*
Y2485010D01*
G02X1831530Y2460270I-41662J-62868D01*
G01X1877850D01*
G02X1904800Y2449100I-8J-38117D01*
G01X1920900Y2433010D01*
X1923620Y2433620D01*
G02X1940000Y2435420I16380J-73629D01*
G02X2015420Y2360000I0J-75420D01*
G02X1978650Y2295230I-75431J0D01*
G03X1977460Y2278610I5204J-8725D01*
G02X2005420Y2220000I-47449J-58610D01*
G02X1930000Y2144580I-75420J0D01*
G02X1864920Y2181880I0J75425D01*
G01X1825080D01*
G02X1760000Y2144580I-65080J38125D01*
G02Y2295420I0J75420D01*
G02X1825080Y2258120I0J-75425D01*
G01X1864920D01*
G02X1891350Y2284770I65083J-38115D01*
G03X1892540Y2301390I-5204J8725D01*
G02X1864580Y2360000I47449J58610D01*
G02X1866380Y2376380I75429J0D01*
G01X1866990Y2379100D01*
X1862060Y2384030D01*
X1831530D01*
G02X1766450Y2346730I-65080J38125D01*
G02X1691030Y2422150I0J75420D01*
G02X1731880Y2489180I75419J0D01*
G01Y2720000D01*
G02X1743050Y2746950I38117J-8D01*
G01X1825260Y2829170D01*
G03X1815930Y2846280I-7188J7179D01*
G02X1800010Y2844580I-15923J73721D01*
G01X1800000D01*
G02X1734480Y2882650I0J75416D01*
G03X1720230Y2886210I-8827J-5034D01*
G02X1680000Y2874580I-40236J63788D01*
G02X1630370Y2893210I0J75422D01*
G03X1613520Y2885570I-6690J-7646D01*
G01Y2435400D01*
G02X1602350Y2408450I-38117J8D01*
G01X1283010Y2089100D01*
X1283620Y2086380D01*
G02X1285420Y2070000I-73629J-16380D01*
G02X1210000Y2145420I-75420J0D01*
G02X1226380Y2143620I0J-75429D01*
G01X1229100Y2143010D01*
X1537280Y2451190D01*
Y2508840D01*
G03X1519940Y2516030I-10160J2D01*
G01X983010Y1979100D01*
X983620Y1976380D01*
G02X985420Y1960000I-73629J-16380D01*
G02X910000Y2035420I-75420J0D01*
G02X926380Y2033620I0J-75429D01*
G01X929100Y2033010D01*
X1461880Y2565790D01*
Y2894920D01*
G02X1424580Y2960000I38125J65080D01*
G02X1500000Y3035420I75420J0D01*
G02X1523900Y3031530I-9J-75419D01*
G03X1537280Y3041160I3219J9637D01*
G01Y3108810D01*
X1518050Y3128050D01*
G02X1506880Y3155000I26947J26958D01*
G01Y3395920D01*
G03X1489990Y3403520I-10158J-7D01*
G02X1440010Y3384580I-49983J56483D01*
G01X1440000D01*
G02X1364580Y3460000I0J75420D01*
G02X1401880Y3525080I75425J0D01*
G01Y3668240D01*
G02X1413050Y3695190I38117J-8D01*
G01X1523050Y3805190D01*
G02X1550000Y3816360I26958J-26947D01*
G01X2201760D01*
G02X2228710Y3805190I-8J-38117D01*
G01X2239990Y3793920D01*
X2245310Y3799230D01*
X2245040Y3801660D01*
G02X2244580Y3809950I74961J8317D01*
G01Y3810000D01*
G02X2320000Y3885420I75420J0D01*
G02X2385080Y3848120I0J-75425D01*
G01X2514920D01*
G02X2580000Y3885420I65080J-38125D01*
G02Y3734580I0J-75420D01*
G02X2514920Y3771880I0J75425D01*
G01X2385080D01*
G02X2381360Y3766150I-65053J38161D01*
G03X2385490Y3758120I4137J-2949D01*
G01X2420000D01*
G02X2446950Y3746950I-8J-38117D01*
G01X2651220Y3542690D01*
G03X2668560Y3549880I7180J7188D01*
G01Y6986680D01*
G02X2679730Y7013630I38117J-8D01*
G01X2686990Y7020900D01*
X2686380Y7023620D01*
G02X2684580Y7040000I73629J16380D01*
G02X2760000Y6964580I75420J0D01*
G01X2759970D01*
G02X2755560Y6964710I16J75420D01*
G03X2744800Y6954570I-601J-10142D01*
G01Y4195530D01*
G03X2761490Y4187750I10159J2D01*
G02X2810000Y4205420I48510J-57753D01*
G02X2885420Y4130000I0J-75420D01*
G02X2848120Y4064920I-75425J0D01*
G01Y3865400D01*
G02X2836950Y3838450I-38117J8D01*
G01X2832660Y3834150D01*
G03X2833100Y3819380I7189J-7177D01*
G02X2858420Y3763000I-50111J-56380D01*
G02X2783000Y3687580I-75420J0D01*
G01X2782980D01*
G02X2758290Y3691740I12J75421D01*
G03X2744800Y3682150I-3331J-9597D01*
G01Y3541190D01*
G37*
G36*
G01X754580Y5890000D02*
G02X776670Y5943330I75420J0D01*
G01X876670Y6043330D01*
G02X930000Y6065420I53330J-53330D01*
G01X1670000D01*
G02X1723330Y6043330I0J-75420D01*
G01X1823330Y5943330D01*
G02X1845420Y5890000I-53330J-53330D01*
G01Y5645420D01*
X2523360D01*
G02Y5494580I0J-75420D01*
G01X1770000D01*
G02X1694580Y5570000I0J75420D01*
G01Y5858760D01*
X1638760Y5914580D01*
X961240D01*
X905420Y5858760D01*
Y2986000D01*
G02X883330Y2932670I-75420J0D01*
G01X783330Y2832670D01*
G02X730000Y2810580I-53330J53330D01*
G01X363660D01*
G02X290000Y2780580I-73660J75430D01*
G02Y2991420I0J105420D01*
G02X363660Y2961420I0J-105430D01*
G01X698760D01*
X754580Y3017240D01*
Y3207740D01*
G03X735590Y3212760I-10158J1D01*
G02X708120Y3184920I-65586J37242D01*
G01Y3165400D01*
G02X696950Y3138450I-38117J8D01*
G01X671550Y3113050D01*
G02X644600Y3101880I-26958J26947D01*
G01X388290D01*
G02X290000Y3034580I-98290J38125D01*
G02Y3245420I0J105420D01*
G02X388290Y3178120I0J-105425D01*
G01X610720D01*
G03X617750Y3195610I-4J10159D01*
G02X594580Y3250000I52253J54390D01*
G02X670000Y3325420I75420J0D01*
G02X735590Y3287240I0J-75429D01*
G03X754580Y3292260I8832J5019D01*
G01Y5890000D01*
G37*
G36*
G01X2576670Y7616670D02*
X2416670Y7776670D01*
G02X2394580Y7830000I53330J53330D01*
G02X2470000Y7905420I75420J0D01*
G02X2523330Y7883330I0J-75420D01*
G01X2661240Y7745420D01*
X3085630D01*
G02X3173000Y7785420I87370J-75419D01*
G02X3288420Y7670000I0J-115420D01*
G02X3248420Y7582630I-115419J0D01*
G01Y6895700D01*
G02X3226330Y6842370I-75420J0D01*
G01X3195420Y6811460D01*
Y6730000D01*
G02X3044580I-75420J0D01*
G01Y6842700D01*
G02X3066670Y6896030I75420J0D01*
G01X3097580Y6926940D01*
Y7582630D01*
G02X3085630Y7594580I75420J87370D01*
G01X2630000D01*
G02X2576670Y7616670I0J75420D01*
G37*
G36*
G01X3930530Y4523050D02*
X3846580Y4606990D01*
X3843860Y4606380D01*
G02X3827480Y4604580I-16380J73629D01*
G02X3902900Y4680000I0J75420D01*
G02X3901100Y4663620I-75429J0D01*
G01X3900490Y4660900D01*
X3973270Y4588120D01*
X4194920D01*
G02X4260000Y4625420I65080J-38125D01*
G02Y4474580I0J-75420D01*
G02X4194920Y4511880I0J75425D01*
G01X3957480D01*
G02X3930530Y4523050I8J38117D01*
G37*
G36*
G01X3713960Y4225920D02*
Y4454920D01*
G02X3676660Y4520000I38125J65080D01*
G02X3827500I75420J0D01*
G02X3790200Y4454920I-75425J0D01*
G01Y4241710D01*
X3804900Y4227010D01*
X3807620Y4227620D01*
G02X3824000Y4229420I16380J-73629D01*
G02X3748580Y4154000I0J-75420D01*
G02X3750380Y4170380I75429J0D01*
G01X3750990Y4173100D01*
X3725130Y4198970D01*
G02X3713960Y4225920I26947J26958D01*
G37*
G36*
G01X2318860Y4141880D02*
X1925080D01*
G02X1860000Y4104580I-65080J38125D01*
G02Y4255420I0J75420D01*
G02X1925080Y4218120I0J-75425D01*
G01X2334600D01*
G02X2352880Y4213450I0J-38112D01*
G03X2359390Y4214890I2427J4461D01*
G02X2420000Y4245420I60610J-44898D01*
G02Y4094580I0J-75420D01*
G02X2356360Y4129530I0J75416D01*
G01X2354860Y4131880D01*
X2344600D01*
G02X2318860Y4141880I0J38127D01*
G37*
G36*
G01X4010000Y1634580D02*
G02Y1785420I0J75420D01*
G02X4075080Y1748120I0J-75425D01*
G01X4241280D01*
G02X4268230Y1736950I-8J-38117D01*
G01X4346950Y1658230D01*
G02X4358120Y1631280I-26947J-26958D01*
G01Y285400D01*
G02X4346950Y258450I-38117J8D01*
G01X4301550Y213050D01*
G02X4274600Y201880I-26958J26947D01*
G01X4195080D01*
G02X4130000Y164580I-65080J38125D01*
G02Y315420I0J75420D01*
G02X4195080Y278120I0J-75425D01*
G01X4258810D01*
X4281880Y301190D01*
Y1615490D01*
X4225490Y1671880D01*
X4075080D01*
G02X4010000Y1634580I-65080J38125D01*
G37*
G36*
G01X3831880Y541400D02*
Y1184920D01*
G02X3794580Y1250000I38125J65080D01*
G02X3945420I75420J0D01*
G02X3908120Y1184920I-75425J0D01*
G01Y557190D01*
X3937190Y528120D01*
X4064920D01*
G02X4130000Y565420I65080J-38125D01*
G02Y414580I0J-75420D01*
G02X4064920Y451880I0J75425D01*
G01X3921400D01*
G02X3894450Y463050I8J38117D01*
G01X3843050Y514450D01*
G02X3831880Y541400I26947J26958D01*
G37*
G36*
G01X1440000Y997420D02*
G02X1505080Y960120I0J-75425D01*
G01X1826920D01*
G02X1892000Y997420I65080J-38125D01*
G02Y846580I0J-75420D01*
G02X1826920Y883880I0J75425D01*
G01X1505080D01*
G02X1440000Y846580I-65080J38125D01*
G02Y997420I0J75420D01*
G37*
G36*
G01X1830280Y320000D02*
Y540000D01*
G02X1843000Y552720I12720J0D01*
G01X1973000D01*
G02X1985720Y540000I0J-12720D01*
G01Y320000D01*
G02X1973000Y307280I-12720J0D01*
G01X1843000D01*
G02X1830280Y320000I0J12720D01*
G37*
G36*
G01X5011840Y267260D02*
Y424740D01*
G02X5037260Y450160I25420J0D01*
G01X5194740D01*
G02X5220160Y424740I0J-25420D01*
G01Y267260D01*
G02X5194740Y241840I-25420J0D01*
G01X5037260D01*
G02X5011840Y267260I0J25420D01*
G37*
G36*
G01X185840Y1537260D02*
Y1694740D01*
G02X211260Y1720160I25420J0D01*
G01X368740D01*
G02X394160Y1694740I0J-25420D01*
G01Y1537260D01*
G02X368740Y1511840I-25420J0D01*
G01X211260D01*
G02X185840Y1537260I0J25420D01*
G37*
G36*
G01X5011840Y2451260D02*
Y2608740D01*
G02X5037260Y2634160I25420J0D01*
G01X5194740D01*
G02X5220160Y2608740I0J-25420D01*
G01Y2451260D01*
G02X5194740Y2425840I-25420J0D01*
G01X5037260D01*
G02X5011840Y2451260I0J25420D01*
G37*
G36*
G01X185840Y3823260D02*
Y3980740D01*
G02X211260Y4006160I25420J0D01*
G01X368740D01*
G02X394160Y3980740I0J-25420D01*
G01Y3823260D01*
G02X368740Y3797840I-25420J0D01*
G01X211260D01*
G02X185840Y3823260I0J25420D01*
G37*
G36*
G01X564780Y6800000D02*
Y6940000D01*
G02X577500Y6952720I12720J0D01*
G01X717500D01*
G02X730220Y6940000I0J-12720D01*
G01Y6800000D01*
G02X717500Y6787280I-12720J0D01*
G01X577500D01*
G02X564780Y6800000I0J12720D01*
G37*
G36*
G01X552080Y7000000D02*
Y7140000D01*
G02X577500Y7165420I25420J0D01*
G01X717500D01*
G02X742920Y7140000I0J-25420D01*
G01Y7000000D01*
G02X717500Y6974580I-25420J0D01*
G01X577500D01*
G02X552080Y7000000I0J25420D01*
G37*
G36*
G01X106670Y7273330D02*
X206670Y7373330D01*
G02X260000Y7395420I53330J-53330D01*
G01X820000D01*
G02X873330Y7373330I0J-75420D01*
G01X973330Y7273330D01*
G02X995420Y7220000I-53330J-53330D01*
G01Y7120000D01*
G02X844580I-75420J0D01*
G01Y7188760D01*
X788760Y7244580D01*
X291240D01*
X235420Y7188760D01*
Y6091540D01*
X235440Y6091340D01*
G02X235670Y6085400I-75192J-5886D01*
G01Y6010000D01*
G02X84830I-75420J0D01*
G01Y6079510D01*
X84810Y6079710D01*
G02X84580Y6085650I75192J5886D01*
G01Y7220000D01*
G02X106670Y7273330I75420J0D01*
G37*
G54D22*
X5116000Y4816000D03*
Y4562000D03*
Y3800000D03*
Y3546000D03*
Y3292000D03*
X290000Y3394000D03*
Y3648000D03*
X5116000Y3038000D03*
Y2784000D03*
Y2124000D03*
Y1870000D03*
Y1616000D03*
Y1362000D03*
Y1108000D03*
X290000Y854000D03*
Y1108000D03*
Y1362000D03*
X5116000Y600000D03*
X290000Y346000D03*
Y600000D03*
G54D21*
X3427000Y7670000D03*
G54D23*
X5116000Y4054000D03*
X290000Y2378000D03*
Y2632000D03*
%LPD*%
G75*
G36*
G01X2421120Y3342880D02*
X3126600D01*
G03X3153550Y3354050I-8J38117D01*
G01X3186950Y3387450D01*
G03X3198120Y3414400I-26947J26958D01*
G01Y3439520D01*
G03X3205580Y3444510I-38129J65073D01*
G02X3221880Y3436420I6141J-8093D01*
G01Y3061220D01*
X3218780Y3058120D01*
X3175080D01*
G03X3110000Y3095420I-65080J-38125D01*
G03Y2944580I0J-75420D01*
G03X3175080Y2981880I0J75425D01*
G01X3233360D01*
G03X3261570Y2993030I1240J38124D01*
G01X3265430Y2996890D01*
G02X3279390Y2994600I5799J-8342D01*
G03X3283050Y2990370I30578J22759D01*
G01X3320370Y2953050D01*
G03X3347320Y2941880I26958J26947D01*
G01X3524920D01*
G03X3528640Y2936150I65053J38161D01*
G02X3524510Y2928120I-4137J-2949D01*
G01X3015790D01*
X2818120Y3125790D01*
Y3184920D01*
G03X2855420Y3250000I-38125J65080D01*
G03X2704580I-75420J0D01*
G03X2741880Y3184920I75425J0D01*
G01Y3146560D01*
G02X2724540Y3139370I-10160J-2D01*
G01X2686950Y3176950D01*
G03X2660000Y3188120I-26958J-26947D01*
G01X2575080D01*
G03X2510000Y3225420I-65080J-38125D01*
G03Y3074580I0J-75420D01*
G03X2575080Y3111880I0J75425D01*
G01X2644210D01*
X2840630Y2915460D01*
G02X2833440Y2898120I-7188J-7180D01*
G01X2695080D01*
G03X2630000Y2935420I-65080J-38125D01*
G03X2565380Y2898890I0J-75420D01*
G02X2549950Y2896510I-8706J5236D01*
G03X2500000Y2915420I-49950J-56515D01*
G03X2424580Y2840000I0J-75420D01*
G03X2461880Y2774920I75425J0D01*
G01Y2764290D01*
G02X2453210Y2760700I-5080J4D01*
G01X2399720Y2814190D01*
Y2905450D01*
G03X2437020Y2970530I-38125J65080D01*
G03X2286180I-75420J0D01*
G03X2289780Y2947510I75420J3D01*
G02X2280230Y2934250I-9677J-3099D01*
G03X2246590Y2925870I922J-75413D01*
G02X2231770Y2934900I-4660J9028D01*
G01Y3153530D01*
X2421120Y3342880D01*
G37*
G36*
G01X2767030Y2520770D02*
X2771750Y2525480D01*
X2773320Y2525770D01*
G03X2776380Y2526380I-13211J74252D01*
G01X2779100Y2526990D01*
X2795050Y2511050D01*
G03X2822000Y2499880I26958J26947D01*
G01X2947960D01*
G03X2974910Y2511050I-8J38117D01*
G01X2979790Y2515920D01*
X3004920D01*
G03X3135080I65080J38125D01*
G01X3260170D01*
X3359630Y2416460D01*
G02X3352440Y2399120I-7188J-7180D01*
G01X2888680D01*
X2767030Y2520770D01*
G37*
G54D10*
X760000Y260000D03*
X260000Y7740000D03*
X4640000Y250000D03*
X5140000Y7740000D03*
G54D20*
G01X215760Y2557760D02*
X290000Y2632000D01*
G01D02*
X364240Y2557760D01*
G01X215760Y2303760D02*
X290000Y2378000D01*
G01D02*
X364240Y2452240D01*
G01X215760D02*
X290000Y2378000D01*
G01D02*
X364240Y2303760D01*
G01X290000Y2632000D02*
X364240Y2706240D01*
G01X215760D02*
X290000Y2632000D01*
G01X670000Y3250000D02*
Y3165400D01*
X644600Y3140000D01*
X290000D01*
G01X559700Y6782200D02*
X647500Y6870000D01*
G01X559700Y6957800D02*
X647500Y6870000D01*
G01X1654000Y430000D02*
Y476990D01*
X1550990Y580000D01*
X1320000D01*
X910000Y990000D01*
Y1690000D01*
G01X2162000Y430000D02*
Y565890D01*
X2077890Y650000D01*
X1330000D01*
X980000Y1000000D01*
Y1600000D01*
X1050000Y1670000D01*
X1300000D01*
G01X660000Y1819150D02*
X2483750D01*
X2574600Y1910000D01*
X2650000D01*
G01X1500000Y2960000D02*
Y2550000D01*
X910000Y1960000D01*
G01X2327000Y3634000D02*
X2251600D01*
X2248600Y3637000D01*
X1597400D01*
X1545000Y3584600D01*
Y3155000D01*
X1575400Y3124600D01*
Y2435400D01*
X1210000Y2070000D01*
G01X647500Y6870000D02*
X735300Y6957800D01*
G01X647500Y6870000D02*
X735300Y6782200D01*
G01X1825200Y430000D02*
X1908000D01*
G01X2880000Y1820000D02*
X2826680Y1766680D01*
X2024680D01*
X1954000Y1696000D01*
Y1295400D01*
X1928600Y1270000D01*
X1460000D01*
G01X1440000Y922000D02*
X1892000D01*
G01X1613360Y1990000D02*
X2765600D01*
X2788600Y1967000D01*
X2864000D01*
G01X1766450Y2422150D02*
X1790000D01*
G01D02*
X1877850D01*
X1940000Y2360000D01*
G01X1820000Y3545000D02*
Y3100010D01*
X1890000Y3030010D01*
Y2840000D01*
X1770000Y2720000D01*
Y2442150D01*
X1790000Y2422150D01*
G01X1760000Y2220000D02*
X1930000D01*
G01X1705260Y2975260D02*
X1680000Y2950000D01*
G01X1800000Y2920000D02*
Y2995400D01*
X1770000Y3025400D01*
Y3310000D01*
X1650000Y3430000D01*
G01X1440000Y3460000D02*
Y3668240D01*
X1550000Y3778240D01*
X2201760D01*
X2260000Y3720000D01*
X2420000D01*
X2697000Y3443000D01*
X2983000D01*
X3130000Y3590000D01*
X3234600D01*
X3260000Y3564600D01*
Y3045400D01*
X3234600Y3020000D01*
X3110000D01*
G01X1908000Y302200D02*
Y430000D01*
G01D02*
Y557800D01*
G01Y430000D02*
X1990800D01*
G01X2416000D02*
Y565400D01*
X2310000Y671400D01*
Y910000D01*
X2505000Y1105000D01*
Y1665000D01*
G01X2410000Y730000D02*
X2770000D01*
G01X2246970Y2577220D02*
X2193650Y2630540D01*
Y3169320D01*
X2405330Y3381000D01*
X3126600D01*
X3160000Y3414400D01*
Y3504600D01*
G01X3870000Y1463360D02*
X3316640D01*
X2960000Y1820000D01*
Y2050000D01*
X2409890Y2600110D01*
X2383320D01*
X2330000Y2653430D01*
G01X4190000Y2078160D02*
X3797150D01*
X3607990Y1889000D01*
X3073400D01*
X3015000Y1947400D01*
Y2075070D01*
X2281160Y2808910D01*
Y2858840D01*
G01X3508400Y2278400D02*
X2881600D01*
X2361600Y2798400D01*
Y2970530D01*
G01X2060000Y3170000D02*
X1905400D01*
X1895400Y3160000D01*
G01X2060000Y2680000D02*
X1930000D01*
G01X2320000Y3810000D02*
X2580000D01*
G01X1860000Y4180000D02*
X2334600D01*
X2344600Y4170000D01*
X2420000D01*
G01X2700000Y1310000D02*
Y1590000D01*
X2778370Y1668370D01*
G01X2670000Y1130000D02*
X2590000Y1210000D01*
Y1630000D01*
X2650000Y1690000D01*
G01X2490000Y922000D02*
X2730000D01*
G01X2810000Y1450000D02*
X2910000Y1550000D01*
Y1690000D01*
G01X2760000Y2600000D02*
X2822000Y2538000D01*
X2947960D01*
X2964000Y2554040D01*
X3070000D01*
G01X3760000Y2380000D02*
X3706680Y2433320D01*
X3396680D01*
X3275960Y2554040D01*
X3070000D01*
G01X3659280Y2307500D02*
X3605780Y2361000D01*
X2872890D01*
X2500000Y2733890D01*
Y2840000D01*
G01X2780000Y3250000D02*
Y3110000D01*
X3000000Y2890000D01*
X3789340D01*
X3846680Y2947340D01*
X3847670D01*
X3910000Y3009670D01*
G01Y2810000D02*
X2910000D01*
X2860000Y2860000D01*
X2630000D01*
G01X2808890Y2767760D02*
X3792240D01*
X3825400Y2734600D01*
X4007600D01*
X4044600Y2771600D01*
Y3000000D01*
X4074600Y3030000D01*
X4150000D01*
G01X4230000Y2875050D02*
Y2680800D01*
X4204600Y2655400D01*
X4148760D01*
X4147010Y2653650D01*
X3786350D01*
X3749050Y2690950D01*
X2994270D01*
X2925400Y2622080D01*
G01X2510000Y3150000D02*
X2660000D01*
X2960000Y2850000D01*
X3827150D01*
X3887060Y2909910D01*
X3962460D01*
G01X2620000Y2730000D02*
X2695400D01*
X2737000Y2688400D01*
X2888400D01*
X2929660Y2729660D01*
X3776450D01*
X3809610Y2696500D01*
X3813490D01*
X3818240Y2691750D01*
X4094600D01*
X4120000Y2717150D01*
Y2920000D01*
G01X3277300Y3722700D02*
X3094700D01*
X3002000Y3630000D01*
X2902000D01*
G01X2810000Y4130000D02*
Y3865400D01*
X2783000Y3838400D01*
Y3763000D01*
G01X2760000Y7040000D02*
X2706680Y6986680D01*
Y3525400D01*
X2732080Y3500000D01*
X2960010D01*
X3092710Y3632700D01*
X3284600D01*
X3310000Y3607300D01*
Y3017320D01*
X3347320Y2980000D01*
X3590000D01*
G01X2980000Y3750000D02*
Y4643000D01*
X3437000Y5100000D01*
X3530000D01*
G01X3796640Y1950000D02*
Y1817400D01*
X3771240Y1792000D01*
X3206070D01*
G01X3554600Y1991000D02*
X3468200D01*
X3439200Y2020000D01*
X3100000D01*
G01X3276000Y2173000D02*
X3351400D01*
X3352030Y2172370D01*
X3563270D01*
G01X4178000Y2535000D02*
X3556400D01*
X3555400Y2534000D01*
X3480000D01*
G01X3730530Y2965700D02*
X3526680Y3169550D01*
Y3406680D01*
X3580000Y3460000D01*
G01X3620000Y3220000D02*
X3673320Y3273320D01*
Y3444030D01*
X3705400Y3476110D01*
X3790000D01*
G01X3200000Y4000000D02*
X3624600D01*
X4304600Y3320000D01*
X4380000D01*
G01X3270000Y5430000D02*
X3250000D01*
G01X4010000Y1710000D02*
X4241280D01*
X4320000Y1631280D01*
Y285400D01*
X4274600Y240000D01*
X4130000D01*
G01X3870000Y1250000D02*
Y541400D01*
X3921400Y490000D01*
X4130000D01*
G01X3796640Y1950000D02*
X4740000D01*
X4800000Y2010000D01*
Y4250000D01*
X4858000Y4308000D01*
X5116000D01*
G01X4300000Y3580000D02*
X4180000Y3700000D01*
Y4000000D01*
G01X4470000Y3580000D02*
X4260000Y3790000D01*
Y4160000D01*
G01X4161350Y3599970D02*
X4090000Y3671320D01*
Y4080000D01*
G01X3824000Y4154000D02*
X3752080Y4225920D01*
Y4520000D01*
G01X4260000Y4550000D02*
X3957480D01*
X3827480Y4680000D01*
G01X4910000Y3160000D02*
Y1060000D01*
X5116000Y854000D01*
G01X4439000Y5470000D02*
Y5545600D01*
X4460000Y5566600D01*
Y5650000D01*
G01X5041760Y3979760D02*
X5116000Y4054000D01*
G01D02*
X5190240Y4128240D01*
G01X5041760D02*
X5116000Y4054000D01*
G01D02*
X5190240Y3979760D01*
G54D11*
X290000Y600000D03*
Y346000D03*
Y1362000D03*
Y1108000D03*
Y854000D03*
Y2632000D03*
Y2378000D03*
Y2124000D03*
Y3140000D03*
Y2886000D03*
Y3648000D03*
Y3394000D03*
X5116000Y600000D03*
Y854000D03*
Y1108000D03*
Y1362000D03*
Y1616000D03*
Y1870000D03*
Y2124000D03*
Y2784000D03*
Y3038000D03*
Y3292000D03*
Y3546000D03*
Y3800000D03*
Y4054000D03*
Y4308000D03*
Y4562000D03*
Y4816000D03*
G54D12*
X290000Y1616000D03*
Y3902000D03*
X5116000Y346000D03*
Y2530000D03*
G54D13*
G01X1400000Y430000D02*
X1273800D01*
X520000Y1183800D01*
Y2120660D01*
G01D02*
X516660Y2124000D01*
X290000D01*
G01X520000Y2120660D02*
X880660D01*
X1030000Y2270000D01*
Y5680000D01*
X1170000Y5820000D01*
G01X1770000Y5570000D02*
Y5890000D01*
X1670000Y5990000D01*
X930000D01*
X830000Y5890000D01*
Y2986000D01*
X730000Y2886000D01*
X290000D01*
G01X160250Y6010000D02*
Y6085400D01*
X160000Y6085650D01*
Y7220000D01*
X260000Y7320000D01*
X820000D01*
X920000Y7220000D01*
Y7120000D01*
G01X2523360Y5570000D02*
X1770000D01*
G01X3173000Y7670000D02*
X2630000D01*
X2470000Y7830000D01*
G01X3120000Y6730000D02*
Y6842700D01*
X3173000Y6895700D01*
Y7670000D01*
G01X4020000Y5525800D02*
X3510000D01*
X3410000Y5625800D01*
Y5770000D01*
G01X3760000Y2380000D02*
X4242140D01*
X4342140Y2480000D01*
Y2827800D01*
X4342700Y2828360D01*
Y2921740D01*
X4342140Y2922300D01*
Y3180000D01*
G01D02*
X3810000D01*
G01X4410000Y4400000D02*
X4522700D01*
X4610000Y4312700D01*
Y3280000D01*
X4510000Y3180000D01*
X4342140D01*
G01X4710000Y5466640D02*
X4593360Y5350000D01*
X4120000D01*
X4020000Y5450000D01*
Y5525800D01*
G01X4710000Y5466640D02*
X5140000D01*
X5240000Y5366640D01*
Y5110000D01*
X160250Y6010000D03*
X1210000Y170000D03*
X780000Y1270000D03*
Y1600000D03*
X660000Y1819150D03*
X910000Y1960000D03*
Y1690000D03*
X870000Y2400000D03*
X1210000Y2070000D03*
X1260000Y3110000D03*
X670000Y3250000D03*
X1170000Y5820000D03*
X920000Y7120000D03*
X1520000Y780000D03*
X1460000Y1270000D03*
X1440000Y922000D03*
X1613360Y1990000D03*
X1460000Y1480000D03*
X1300000Y1670000D03*
X1766450Y2422150D03*
X1760000Y2220000D03*
X1680000Y2950000D03*
Y3230000D03*
X1800000Y2920000D03*
X1410000Y2820000D03*
X1700000Y2810000D03*
X1500000Y2960000D03*
X1650000Y3430000D03*
X1320000Y3580000D03*
X1820000Y3545000D03*
X1440000Y3460000D03*
X1860000Y4180000D03*
X1770000Y5570000D03*
X2040000Y190000D03*
X2410000Y730000D03*
X2150000Y790000D03*
X2490000Y922000D03*
X1892000D03*
X2100000Y1640000D03*
X2505000Y1665000D03*
X2430000Y2460000D03*
X2060000Y2320000D03*
X2090000Y2120000D03*
X1940000Y2360000D03*
X1930000Y2220000D03*
X2246970Y2577220D03*
X2281160Y2858840D03*
X2500000Y2840000D03*
X2330000Y2653430D03*
X2361600Y2970530D03*
X1895400Y3160000D03*
X1930000Y2680000D03*
X2320000Y3810000D03*
X2327000Y3634000D03*
X2067000Y3404000D03*
X1990000Y4022000D03*
X2420000Y4170000D03*
X2500000Y6510000D03*
X2470000Y7830000D03*
X2920000Y630000D03*
X2760000Y190000D03*
X2770000Y730000D03*
X3110000Y890000D03*
X2700000Y1310000D03*
X2670000Y1130000D03*
X2730000Y922000D03*
X2864000Y1967000D03*
X2990000Y1440000D03*
X2650000Y1910000D03*
X2778370Y1668370D03*
X2650000Y1690000D03*
X2880000Y1820000D03*
X2810000Y1450000D03*
X2910000Y1690000D03*
X2970000Y2454000D03*
X2760000Y2600000D03*
X3070000Y2554040D03*
X3100000Y2020000D03*
X2520000Y3000000D03*
X2630000Y2860000D03*
X2808890Y2767760D03*
X2925400Y2622080D03*
X2510000Y3150000D03*
X2620000Y2730000D03*
X3110000Y3020000D03*
X2580000Y3810000D03*
X2902000Y3630000D03*
X2780000Y3250000D03*
X2783000Y3763000D03*
X2980000Y3750000D03*
X2510000Y4370000D03*
X2810000Y4130000D03*
X2523360Y5570000D03*
X3120000Y6730000D03*
X2760000Y7040000D03*
X3690000Y1120000D03*
X3206070Y1792000D03*
X3270000Y1640000D03*
X3260000Y1400000D03*
X3554600Y1991000D03*
X3659280Y2307500D03*
X3563270Y2172370D03*
X3276000Y2173000D03*
X3508400Y2278400D03*
X3480000Y2534000D03*
X3620000Y3220000D03*
X3590000Y2980000D03*
X3730530Y2965700D03*
X3277300Y3722700D03*
X3400000Y3247110D03*
X3160000Y3504600D03*
X3580000Y3460000D03*
X3200000Y4000000D03*
X3310000Y4820000D03*
X3270000Y5430000D03*
X3290000Y5130000D03*
X3530000Y5100000D03*
X3410000Y5770000D03*
X3680000Y6400000D03*
X3850000Y160000D03*
X4130000Y240000D03*
Y490000D03*
X3870000Y1250000D03*
X3796640Y1950000D03*
X4030000Y1490000D03*
X4302000Y1786000D03*
X4010000Y1710000D03*
X3870000Y1463360D03*
X3760000Y2380000D03*
X4190000Y2078160D03*
X4178000Y2535000D03*
X3810000Y3180000D03*
X3910000Y3009670D03*
Y2810000D03*
X4150000Y3030000D03*
X4230000Y2875050D03*
X3962460Y2909910D03*
X4120000Y2920000D03*
X3990000Y3320000D03*
X4000000Y3480000D03*
X3790000Y3476110D03*
X4300000Y3580000D03*
X4161350Y3599970D03*
X3824000Y4154000D03*
X4020000Y4320000D03*
X4180000Y4000000D03*
X4260000Y4160000D03*
X4090000Y4080000D03*
X3752080Y4520000D03*
X3827480Y4680000D03*
X4260000Y4550000D03*
X4030000Y5270000D03*
X4020000Y5525800D03*
X4352000Y5735000D03*
X3770000Y6060000D03*
X4090000Y6240000D03*
X4000000Y6930000D03*
X4580000Y790000D03*
X4670000Y1380000D03*
X4690000Y1730000D03*
X4561000Y2037000D03*
X4540000Y2500000D03*
X4610000Y2960000D03*
X4910000Y3160000D03*
Y3380000D03*
X4380000Y3320000D03*
X4470000Y3580000D03*
X4410000Y4400000D03*
X4610000Y4660000D03*
X4570000Y5510000D03*
X4520000Y5220000D03*
X4710000Y5466640D03*
X4460000Y5650000D03*
X4439000Y5470000D03*
X5330000Y5480000D03*
X5240000Y5110000D03*
G54D14*
X647500Y6870000D03*
Y7070000D03*
G54D15*
X1654000Y430000D03*
X1400000D03*
X2416000D03*
X2162000D03*
X1908000D03*
G54D16*
X2060000Y2680000D03*
Y3170000D03*
Y3450000D03*
X4530000Y2500000D03*
G54D17*
X3173000Y7670000D03*
X3427000D03*
G54D18*
X3173000Y7924000D03*
X3427000D03*
G54D19*
G01X1680000Y2950000D02*
Y3230000D01*
M02*
