M48
METRIC
T01C.4
T02C.8
T03C.9
T04C1.
T05C3.2
;LEADER: 12 
;HEADER: 
;CODE  : ASCII 
;FILE  : OBcP_v2_3_V1-1-2.drl for  ... layers TOP and BOTTOM
;DESIGN: OBcP_v2_3_V1.brd
;T01 Holesize 1. = 0.400000 Tolerance = +0.000000/-0.000000 PLATED MM Quantity = 176
;T02 Holesize 2. = 0.800000 Tolerance = +0.000000/-0.000000 PLATED MM Quantity = 2
;T03 Holesize 3. = 0.900000 Tolerance = +0.000000/-0.000000 PLATED MM Quantity = 32
;T04 Holesize 4. = 1.000000 Tolerance = +0.000000/-0.000000 PLATED MM Quantity = 4
;T05 Holesize 5. = 3.200000 Tolerance = +0.000000/-0.000000 NON_PLATED MM Quantity = 4
%
G90
T01
X4178000Y2535000
X4540000Y2500000
X3480000Y2534000
X3730530Y2965700
X4090000Y4080000
X3580000Y3460000
X4161350Y3599970
X1440000Y3460000
X3110000Y3020000
X1170000Y5820000
X1930000Y2680000
X4120000Y2920000
X2620000Y2730000
X2980000Y3750000
X3530000Y5100000
X4130000Y0490000
X3870000Y1250000
X2510000Y3150000
X3962460Y2909910
X1895400Y3160000
X2910000Y1690000
X2730000Y0922000
X2810000Y1450000
X1892000Y0922000
X2490000Y0922000
X1440000Y0922000
X1460000Y1270000
X2880000Y1820000
X3508400Y2278400
X2361600Y2970530
X2770000Y0730000
X2410000Y0730000
X2330000Y2653430
X3870000Y1463360
X2067000Y3404000
X3590000Y2980000
X2760000Y7040000
X2810000Y4130000
X2783000Y3763000
X2925400Y2622080
X4260000Y4160000
X4470000Y3580000
X4230000Y2875050
X4180000Y4000000
X4150000Y3030000
X4300000Y3580000
X2808890Y2767760
X3276000Y2173000
X3563270Y2172370
X3554600Y1991000
X3100000Y2020000
X4910000Y3160000
X3200000Y4000000
X4380000Y3320000
X3659280Y2307500
X2500000Y2840000
X4190000Y2078160
X2281160Y2858840
X2630000Y2860000
X3910000Y2810000
X2780000Y3250000
X3910000Y3009670
X3160000Y3504600
X2246970Y2577220
X2670000Y1130000
X2650000Y1690000
X2700000Y1310000
X2778370Y1668370
X4260000Y4550000
X3827480Y4680000
X4439000Y5470000
X4460000Y5650000
X1930000Y2220000
X1760000Y2220000
X0910000Y1690000
X0910000Y1960000
X1500000Y2960000
X1300000Y1670000
X1210000Y2070000
X2327000Y3634000
X1860000Y4180000
X2420000Y4170000
X2650000Y1910000
X0660000Y1819150
X2505000Y1665000
X3790000Y3476110
X3620000Y3220000
X0670000Y3250000
X3410000Y5770000
X3760000Y2380000
X4010000Y1710000
X4710000Y5466640
X5240000Y5110000
X4410000Y4400000
X3810000Y3180000
X4020000Y5525800
X1940000Y2360000
X3070000Y2554040
X1820000Y3545000
X2760000Y2600000
X1766450Y2422150
X4130000Y0240000
X2470000Y7830000
X3120000Y6730000
X2523360Y5570000
X1770000Y5570000
X2520000Y3000000
X1990000Y4022000
X2090000Y2120000
X1700000Y2810000
X2060000Y2320000
X2430000Y2460000
X2970000Y2454000
X2500000Y6510000
X1410000Y2820000
X0780000Y1270000
X5330000Y5480000
X3690000Y1120000
X3400000Y3247110
X4000000Y3480000
X3990000Y3320000
X2510000Y4370000
X0870000Y2400000
X3260000Y1400000
X3270000Y1640000
X4090000Y6240000
X4610000Y4660000
X4561000Y2037000
X4670000Y1380000
X2100000Y1640000
X0780000Y1600000
X3290000Y5130000
X4302000Y1786000
X2760000Y0190000
X3110000Y0890000
X4690000Y1730000
X4580000Y0790000
X3310000Y4820000
X4000000Y6930000
X2040000Y0190000
X1210000Y0170000
X3850000Y0160000
X3680000Y6400000
X4020000Y4320000
X1520000Y0780000
X4610000Y2960000
X2990000Y1440000
X3770000Y6060000
X4030000Y1490000
X4910000Y3380000
X1460000Y1480000
X4520000Y5220000
X3270000Y5430000
X4030000Y5270000
X2920000Y0630000
X2150000Y0790000
X1320000Y3580000
X1260000Y3110000
X4570000Y5510000
X4352000Y5735000
X0160250Y6010000
X0920000Y7120000
X3752080Y4520000
X3824000Y4154000
X3277300Y3722700
X2902000Y3630000
X3796640Y1950000
X3206070Y1792000
X1613360Y1990000
X2864000Y1967000
X1650000Y3430000
X1800000Y2920000
X1680000Y3230000
X1680000Y2950000
X2580000Y3810000
X2320000Y3810000
T02
X0647500Y6870000
X0647500Y7070000
T03
X0290000Y3902000
R07Y-0254000
X0290000Y1616000
R05Y-0254000
X5116000Y2530000
R09Y0254000
X5116000Y0346000
R07Y0254000
T04
X3427000Y7924000
X3173000Y7924000
X3427000Y7670000
X3173000Y7670000
T05
X0760000Y0260000
X0260000Y7740000
X5140000Y7740000
X4640000Y0250000
M30
