G04 ================== begin FILE IDENTIFICATION RECORD ==================*
G04 Layout Name:  C:/Users/Joel/Desktop/ORCAD_ObCP_V2_2/OBcP_v2_3_V1.brd*
G04 Film Name:    SoldermaskTOP*
G04 File Format:  Gerber RS274X*
G04 File Origin:  Cadence Allegro 23.1-S004*
G04 Origin Date:  Fri Nov 22 16:40:57 2024*
G04 *
G04 Layer:  PIN/SOLDERMASK_TOP*
G04 *
G04 Offset:    (0.0000 0.0000)*
G04 Mirror:    No*
G04 Mode:      Positive*
G04 Rotation:  0*
G04 FullContactRelief:  No*
G04 UndefLineWidth:     0.0000*
G04 ================== end FILE IDENTIFICATION RECORD ====================*
%FSLAX25Y25*MOMM*%
%IR0*IPPOS*OFA0.00000B0.00000*MIA0B0*SFA1.00000B1.00000*%
%ADD46O,.4X2.3*%
%ADD45R,.4X2.3*%
%ADD40R,.8X1.*%
%ADD35R,.4X1.4*%
%ADD31O,.3X1.8*%
%ADD38R,1.X.8*%
%ADD32O,1.8X.3*%
%ADD23R,.6X1.3*%
%ADD30R,.3X1.8*%
%ADD33R,1.8X.3*%
%ADD18R,1.7X.4*%
%AMMACRO49*
21,1,1.,2.,0.0,0.0,179.992*%
%ADD49MACRO49*%
%ADD48R,2.X1.*%
%ADD47R,1.X2.*%
%ADD39R,2.2X1.2*%
%ADD29R,5.X2.*%
%ADD15R,2.2X1.3*%
%ADD14R,1.3X2.2*%
%ADD37R,2.5X1.2*%
%ADD36R,1.8X2.*%
%ADD34R,1.6X1.3*%
%ADD43R,2.2X3.6*%
%ADD22R,1.2X1.9*%
%ADD42R,1.9X1.2*%
%ADD24R,2.5X1.6*%
%ADD27R,1.6X2.5*%
%ADD16R,1.9X2.3*%
%ADD44C,1.12*%
%ADD26R,.25X.8*%
%ADD17R,1.9X1.9*%
%ADD11C,1.5*%
%AMMACRO28*
21,1,1.2,2.5,0.0,0.0,90.416*%
%ADD28MACRO28*%
%ADD25R,.8X.25*%
%ADD12C,1.6*%
%ADD41C,1.8*%
%ADD10C,3.7*%
%ADD20R,1.3X1.3*%
%ADD21R,1.4X1.4*%
%AMMACRO19*
21,1,.6,1.3,0.0,0.0,179.916*%
%ADD19MACRO19*%
%ADD13R,1.5748X1.5748*%
%LPD*%
G75*
G54D10*
X760000Y260000D03*
X260000Y7740000D03*
X4640000Y250000D03*
X5140000Y7740000D03*
G54D20*
X616640Y6070000D03*
X910000Y2960000D03*
Y3173360D03*
X960000Y3696640D03*
Y3910000D03*
X1206640Y4500000D03*
X1070000Y5110000D03*
X1283360D03*
X1070000Y5350000D03*
X1283360D03*
X1070000Y5590000D03*
X1283360D03*
X830000Y6070000D03*
X920000Y6700000D03*
Y6913360D03*
X1520000Y780000D03*
X1733360D03*
X1720000Y1730000D03*
X1506640D03*
X1400000Y1990000D03*
X1613360D03*
X1410000Y2540000D03*
X1623360D03*
X1400000Y2220000D03*
X1613360D03*
X1650000Y4180000D03*
X1863360D03*
X1420000Y4500000D03*
X1776640Y5080000D03*
Y4850000D03*
Y5310000D03*
X1790000Y5990000D03*
Y6203360D03*
X2100000Y1640000D03*
X2313360D03*
X1950000Y3860000D03*
X2163360D03*
X2420000Y4170000D03*
X1990000Y5080000D03*
Y4850000D03*
Y5310000D03*
X2310000Y5570000D03*
X2140000Y6210000D03*
Y5996640D03*
X3056640Y1640000D03*
X2633360Y4170000D03*
X2700000Y3930000D03*
X2913360D03*
X2523360Y5570000D03*
X2900000Y5750000D03*
X3113360D03*
X2760000Y7040000D03*
Y7253360D03*
X3270000Y1640000D03*
X3680000Y2556640D03*
Y2770000D03*
X3430000Y4660000D03*
X3643360D03*
X3430000Y4960000D03*
X3643360D03*
X3430000Y5240000D03*
X3643360D03*
X3410000Y5566640D03*
X3530000Y6050000D03*
X3316640D03*
X3410000Y5780000D03*
X3870000Y1250000D03*
Y1463360D03*
X4010000Y1950000D03*
X3796640D03*
X4020000Y3180000D03*
X3806640D03*
X4000000Y3480000D03*
X3786640D03*
X4196640Y4390000D03*
X4090000Y6240000D03*
Y6026640D03*
X4150000Y7880000D03*
Y7666640D03*
X4410000Y4390000D03*
X4710000Y4986640D03*
Y5200000D03*
Y5680000D03*
Y5466640D03*
X4946640Y5400000D03*
X5020000Y5110000D03*
X5233360D03*
X5160000Y5400000D03*
G54D11*
X90000Y90000D03*
Y7390000D03*
X4300000Y90000D03*
X4800000Y7910000D03*
G54D21*
X647500Y6870000D03*
Y7070000D03*
G54D12*
X290000Y600000D03*
Y346000D03*
Y1362000D03*
Y1108000D03*
Y854000D03*
Y2632000D03*
Y2378000D03*
Y2124000D03*
Y3140000D03*
Y2886000D03*
Y3648000D03*
Y3394000D03*
X5116000Y600000D03*
Y854000D03*
Y1108000D03*
Y1362000D03*
Y1616000D03*
Y1870000D03*
Y2124000D03*
Y2784000D03*
Y3038000D03*
Y3292000D03*
Y3546000D03*
Y3800000D03*
Y4054000D03*
Y4308000D03*
Y4562000D03*
Y4816000D03*
G54D30*
X2300000Y2200000D03*
X2750340D03*
X2700300Y3407770D03*
G54D13*
X290000Y1616000D03*
Y3902000D03*
X5116000Y346000D03*
Y2530000D03*
G54D22*
X640000Y6410000D03*
X840660D03*
G54D31*
X2350040Y2200000D03*
X2400080D03*
X2450110D03*
Y3407770D03*
X2400080D03*
X2350040D03*
X2300000D03*
X2500150Y2200000D03*
X2550190D03*
X2600230D03*
X2650270D03*
X2700300D03*
X2800380D03*
X2850420D03*
X2900460D03*
X2950490D03*
X3000530D03*
X3050570D03*
Y3407770D03*
X3000530D03*
X2950490D03*
X2900460D03*
X2850420D03*
X2800380D03*
X2750340D03*
X2650270D03*
X2600230D03*
X2550190D03*
X2500150D03*
G54D40*
X2886520Y7421100D03*
X2696020D03*
X2790000Y7598900D03*
G54D41*
X3173000Y7670000D03*
X3427000D03*
G54D14*
X651400Y1819150D03*
X645050Y2714500D03*
X1158500Y1079500D03*
X1114950Y1819150D03*
X1158500Y1460500D03*
X1114950Y2714500D03*
X1730000Y1079500D03*
Y1460500D03*
X2470000Y7830000D03*
X2870000D03*
G54D23*
X260000Y6387950D03*
X355250D03*
G54D32*
X2071400Y2578710D03*
Y2528680D03*
Y2478640D03*
Y2428600D03*
Y3179170D03*
Y3079090D03*
Y3029060D03*
Y2979020D03*
Y2928980D03*
Y2878940D03*
Y2828900D03*
Y2778870D03*
Y2728830D03*
Y2678790D03*
X3279170Y2428600D03*
Y2478640D03*
Y2528680D03*
Y2628750D03*
Y2678790D03*
Y2728830D03*
Y2778870D03*
Y2828900D03*
Y2878940D03*
Y2928980D03*
Y2979020D03*
Y3029060D03*
Y3129130D03*
Y3179170D03*
G54D24*
X720000Y7520000D03*
Y7862900D03*
X2000000Y6860000D03*
Y6517100D03*
X2420000Y7530000D03*
Y7187100D03*
X2880000Y6090000D03*
Y6432900D03*
X3800000Y7510000D03*
Y7852900D03*
G54D42*
X3750000Y5569340D03*
Y5770000D03*
G54D15*
X239150Y4275050D03*
Y4738600D03*
X1134500Y4275050D03*
Y4744950D03*
X1190000Y6050000D03*
Y6450000D03*
X1120000Y7400000D03*
Y7800000D03*
G54D33*
X2071400Y3129130D03*
Y2628750D03*
X3279170Y2578710D03*
Y3079090D03*
G54D25*
X1100000Y3050000D03*
Y3100000D03*
Y3150000D03*
X1420000D03*
Y3100000D03*
Y3050000D03*
G54D16*
X280000Y5045000D03*
Y5795000D03*
G54D43*
X3735000Y6956000D03*
G54D34*
X2290000Y4850000D03*
Y5060000D03*
Y5270000D03*
X2710000Y5060000D03*
Y4850000D03*
Y5270000D03*
G54D17*
X280000Y5300000D03*
Y5540000D03*
G54D26*
X1210000Y2940000D03*
X1160000D03*
Y3260000D03*
X1210000D03*
X1360000Y2940000D03*
X1310000D03*
X1260000D03*
Y3260000D03*
X1310000D03*
X1360000D03*
G54D44*
X3173000Y7924000D03*
X3427000D03*
G54D35*
X2390000Y5850000D03*
X2453500D03*
Y6294500D03*
X2390000D03*
X2517000Y5850000D03*
X2580500D03*
Y6294500D03*
X2517000D03*
G54D27*
X1230000Y6810000D03*
X1572900D03*
X2330000Y4540000D03*
X2672900D03*
X3340000Y6400000D03*
X3682900D03*
G54D36*
X2470000Y6740000D03*
X2749400D03*
G54D18*
X565000Y5290000D03*
Y5355000D03*
Y5420000D03*
Y5485000D03*
Y5550000D03*
G54D45*
X4130000Y4840000D03*
G54D19*
X355250Y6172050D03*
X164750D03*
Y6387950D03*
G54D28*
X1455000Y7500000D03*
Y7250000D03*
Y7750000D03*
X2005000D03*
X3575000Y240000D03*
X4125000D03*
Y490000D03*
Y740000D03*
G54D37*
X2005000Y7500000D03*
Y7250000D03*
X3575000Y490000D03*
Y740000D03*
G54D46*
X4195020Y4840000D03*
X4260050D03*
X4325070D03*
Y5525800D03*
X4260050D03*
X4195020D03*
X4130000D03*
G54D29*
X2240000Y1210000D03*
X3140000D03*
G54D47*
X4312000Y5990000D03*
Y7360000D03*
X4693000Y5990000D03*
X4566000D03*
X4439000D03*
Y7360000D03*
X4566000D03*
X4693000D03*
G54D38*
X2961100Y5070000D03*
Y4730000D03*
Y5400000D03*
X3138900Y4976020D03*
Y4826520D03*
Y4636020D03*
Y5496520D03*
Y5306020D03*
Y5166520D03*
G54D39*
X3120000Y6732000D03*
Y7180000D03*
Y6956000D03*
G54D48*
X4212000Y6950000D03*
G54D49*
X4820000Y5990000D03*
Y7360000D03*
M02*
