G04 ================== begin FILE IDENTIFICATION RECORD ==================*
G04 Layout Name:  C:/Users/Joel/Desktop/ORCAD_ObCP_V2_2/OBcP_v2_3_V1.brd*
G04 Film Name:    TOP*
G04 File Format:  Gerber RS274X*
G04 File Origin:  Cadence Allegro 23.1-S004*
G04 Origin Date:  Fri Nov 22 16:40:57 2024*
G04 *
G04 Layer:  ETCH/TOP*
G04 Layer:  PIN/TOP*
G04 Layer:  VIA CLASS/TOP*
G04 *
G04 Offset:    (0.0000 0.0000)*
G04 Mirror:    No*
G04 Mode:      Positive*
G04 Rotation:  0*
G04 FullContactRelief:  No*
G04 UndefLineWidth:     0.2000*
G04 ================== end FILE IDENTIFICATION RECORD ====================*
%FSLAX25Y25*MOMM*%
%IR0*IPPOS*OFA0.00000B0.00000*MIA0B0*SFA1.00000B1.00000*%
%ADD47O,.4X2.3*%
%ADD46R,.4X2.3*%
%ADD41R,.8X1.*%
%ADD36R,.4X1.4*%
%ADD32O,.3X1.8*%
%ADD39R,1.X.8*%
%ADD33O,1.8X.3*%
%ADD24R,.6X1.3*%
%ADD31R,.3X1.8*%
%ADD34R,1.8X.3*%
%ADD18R,1.7X.4*%
%ADD10C,.6*%
%ADD11R,.2X.2*%
%AMMACRO50*
21,1,1.,2.,0.0,0.0,179.992*%
%ADD50MACRO50*%
%ADD49R,2.X1.*%
%ADD48R,1.X2.*%
%ADD40R,2.2X1.2*%
%ADD30R,5.X2.*%
%ADD15R,2.2X1.3*%
%ADD14R,1.3X2.2*%
%ADD38R,2.5X1.2*%
%ADD37R,1.8X2.*%
%ADD35R,1.6X1.3*%
%ADD44R,2.2X3.6*%
%ADD23R,1.2X1.9*%
%ADD43R,1.9X1.2*%
%ADD25R,2.5X1.6*%
%ADD28R,1.6X2.5*%
%ADD21C,1.*%
%ADD16R,1.9X2.3*%
%ADD45C,1.12*%
%ADD27R,.25X.8*%
%ADD17R,1.9X1.9*%
%AMMACRO29*
21,1,1.2,2.5,0.0,0.0,90.416*%
%ADD29MACRO29*%
%ADD26R,.8X.25*%
%ADD12C,1.6*%
%ADD42C,1.8*%
%ADD20R,1.3X1.3*%
%ADD22R,1.4X1.4*%
%AMMACRO19*
21,1,.6,1.3,0.0,0.0,179.916*%
%ADD19MACRO19*%
%ADD13R,1.5748X1.5748*%
%ADD51C,.2*%
%ADD52C,.3*%
%ADD53C,.5*%
%ADD54C,.8*%
%ADD55C,.45*%
%ADD56C,.254*%
%ADD58C,2.1084*%
%ADD57C,1.8544*%
G75*
%LPD*%
G75*
G36*
G01X3259580Y6550420D02*
G03X3234580Y6525000I424J-25420D01*
G01Y6275000D01*
G03X3259580Y6249580I25424J0D01*
G01X3264580Y6244500D01*
Y6232310D01*
X3263110Y6230830D01*
G03X3241220Y6177700I53532J-53130D01*
G01Y6138370D01*
X3238720Y6136890D01*
G03X3226220Y6115000I12917J-21890D01*
G01Y5985000D01*
G03X3238720Y5963110I25417J0D01*
G01X3241220Y5961630D01*
Y5873360D01*
G03X3263310Y5820030I75420J0D01*
G01X3319580Y5763760D01*
Y5715000D01*
G03X3345000Y5689580I25420J0D01*
G01X3475000D01*
G03X3500420Y5715000I0J25420D01*
G01Y5845000D01*
G03X3475000Y5870420I-25420J0D01*
G01X3426240D01*
X3392060Y5904600D01*
Y5961630D01*
X3394560Y5963110D01*
G03X3407060Y5985000I-12917J21890D01*
G01Y6115000D01*
G03X3394560Y6136890I-25417J0D01*
G01X3392060Y6138370D01*
Y6146450D01*
X3393530Y6147930D01*
G03X3415420Y6201060I-53532J53130D01*
G01Y6244500D01*
X3420420Y6249580D01*
G03X3445420Y6275000I-424J25420D01*
G01Y6525000D01*
G03X3420420Y6550420I-25424J0D01*
G01X3415420Y6555500D01*
Y7063760D01*
X3756240Y7404580D01*
X3925000D01*
G03X3950420Y7429580I0J25424D01*
G01X3950500Y7434580D01*
X3958460D01*
X4086370Y7306670D01*
G03X4139700Y7284580I53330J53330D01*
G01X4236580D01*
Y7259990D01*
G03X4239430Y7248300I25421J5D01*
G01X4240000Y7247210D01*
Y7012720D01*
X4112000D01*
G03X4099280Y7000000I0J-12720D01*
G01Y6900000D01*
G03X4112000Y6887280I12720J0D01*
G01X4240000D01*
Y6783910D01*
X3909560Y6453460D01*
G03X3898390Y6426510I26947J-26958D01*
G01Y5222300D01*
X3722510Y5046420D01*
X3719270Y5047960D01*
G03X3708360Y5050420I-10910J-22963D01*
G01X3597080D01*
G02X3592000Y5055500I0J5080D01*
G01X3592850Y5058310D01*
G03X3593640Y5059530I-62908J41601D01*
G01X3595140Y5061880D01*
X3605400D01*
G03X3632350Y5073050I-8J38117D01*
G01X3670310Y5111010D01*
G03X3681480Y5137960I-26947J26958D01*
G01Y5149580D01*
X3708360D01*
G03X3733780Y5175000I0J25420D01*
G01Y5305000D01*
G03X3708360Y5330420I-25420J0D01*
G01X3578360D01*
G03X3552940Y5305000I0J-25420D01*
G01Y5184610D01*
G02X3541260Y5174570I-10161J7D01*
G03X3530510Y5175420I-11305J-74567D01*
G02X3520420Y5185580I69J10159D01*
G01Y5305000D01*
G03X3495000Y5330420I-25420J0D01*
G01X3393490D01*
X3390930Y5332970D01*
G03X3363980Y5344140I-26958J-26947D01*
G01X3214660D01*
X3214180Y5348690D01*
G03X3188900Y5371440I-25280J-2671D01*
G01X3088900D01*
G03X3063480Y5346020I0J-25420D01*
G01Y5266020D01*
G03X3088900Y5240600I25420J0D01*
G01X3188900D01*
G03X3214180Y5263350I0J25421D01*
G01X3214660Y5267900D01*
X3339580D01*
Y5175000D01*
G03X3365000Y5149580I25420J0D01*
G01X3454040D01*
G02X3463060Y5134740I1J-10160D01*
G03X3454580Y5100000I66939J-34745D01*
G03X3463060Y5065260I75419J5D01*
G02X3454040Y5050420I-9019J-4680D01*
G01X3365000D01*
G03X3339580Y5025000I0J-25420D01*
G03X3339590Y5024360I25419J77D01*
G02X3328520Y5013980I-10159J-259D01*
G03X3325080Y5014140I-3489J-37958D01*
G01X3214660D01*
X3214180Y5018690D01*
G03X3188900Y5041440I-25280J-2671D01*
G01X3088900D01*
G03X3063480Y5016020I0J-25420D01*
G01Y4936020D01*
G03X3088900Y4910600I25420J0D01*
G01X3188900D01*
G03X3214180Y4933350I0J25421D01*
G01X3214660Y4937900D01*
X3309290D01*
X3314150Y4933050D01*
G03X3335280Y4922330I26956J26949D01*
G01X3339580Y4921660D01*
Y4895000D01*
G03X3365000Y4869580I25420J0D01*
G01X3488790D01*
G02X3498870Y4858140I0J-10161D01*
G03X3498560Y4853320I37808J-4852D01*
G01Y4750420D01*
X3365000D01*
G03X3339580Y4725000I0J-25420D01*
G01Y4698340D01*
X3335280Y4697670D01*
G03X3314150Y4686950I5826J-37669D01*
G01X3301330Y4674140D01*
X3214660D01*
X3214180Y4678690D01*
G03X3188900Y4701440I-25280J-2671D01*
G01X3088900D01*
G03X3063480Y4676020I0J-25420D01*
G01Y4596020D01*
G03X3063710Y4592630I25419J22D01*
G02X3053640Y4581120I-10071J-1349D01*
G01X2895000D01*
G03X2868050Y4569950I8J-38117D01*
G01X2783050Y4484950D01*
G03X2782980Y4484890I24696J-28882D01*
G02X2765620Y4492050I-7200J7167D01*
G01Y4665000D01*
G03X2752900Y4677720I-12720J0D01*
G01X2592900D01*
G03X2580180Y4665000I0J-12720D01*
G01Y4415000D01*
G03X2592900Y4402280I12720J0D01*
G01X2752910D01*
G03X2757800Y4403260I-6J12721D01*
G02X2771880Y4393890I3921J-9372D01*
G01Y4195080D01*
G03X2734580Y4130000I38125J-65080D01*
G03X2885420I75420J0D01*
G03X2848120Y4195080I-75425J0D01*
G01Y4442210D01*
X2910790Y4504880D01*
X3509000D01*
G03X3535950Y4516050I-8J38117D01*
G01X3563630Y4543730D01*
G03X3574410Y4565230I-26945J26963D01*
G01X3575040Y4569580D01*
X3605240D01*
Y4339150D01*
X3287750Y4021660D01*
G02X3271010Y4025420I-7178J7189D01*
G03X3200000Y4075420I-71010J-25424D01*
G03X3124580Y4000000I0J-75420D01*
G03X3126380Y3983620I75429J0D01*
G01X3126990Y3980900D01*
X3114210Y3968120D01*
X3003780D01*
Y3995000D01*
G03X2978360Y4020420I-25420J0D01*
G01X2848360D01*
G03X2822940Y3995000I0J-25420D01*
G01Y3877720D01*
X2790420D01*
Y3995000D01*
G03X2765000Y4020420I-25420J0D01*
G01X2635000D01*
G03X2609580Y3995000I0J-25420D01*
G01Y3973190D01*
G02X2604610Y3968110I-5080J-1D01*
G03X2578450Y3956950I797J-38109D01*
G01X2553050Y3931550D01*
G03X2541880Y3904600I26947J-26958D01*
G01Y3897140D01*
G02X2524540Y3889950I-10160J-2D01*
G01X2352250Y4062240D01*
G02X2359440Y4079580I7188J7180D01*
G01X2485000D01*
G03X2510420Y4105000I0J25420D01*
G01Y4235000D01*
G03X2485000Y4260420I-25420J0D01*
G01X2355000D01*
G03X2329580Y4235000I0J-25420D01*
G01Y4109440D01*
G02X2312240Y4102250I-10160J-2D01*
G01X2077530Y4336950D01*
G03X2076840Y4337640I-27297J-26607D01*
G01X2076790Y4337680D01*
X1967230Y4447240D01*
G02X1974420Y4464580I7188J7180D01*
G01X2224580D01*
Y4415000D01*
G03X2250000Y4389580I25420J0D01*
G01X2410000D01*
G03X2435420Y4415000I0J25420D01*
G01Y4665000D01*
G03X2410000Y4690420I-25420J0D01*
G01X2250000D01*
G03X2224580Y4665000I0J-25420D01*
G01Y4615420D01*
X1991680D01*
X1852060Y4755040D01*
Y4761630D01*
X1854560Y4763110D01*
G03X1867060Y4785000I-12917J21890D01*
G01Y4915000D01*
G03X1854560Y4936890I-25417J0D01*
G01X1852060Y4938370D01*
Y4991630D01*
X1854560Y4993110D01*
G03X1867060Y5015000I-12917J21890D01*
G01Y5145000D01*
G03X1854560Y5166890I-25417J0D01*
G01X1852060Y5168370D01*
Y5221630D01*
X1854560Y5223110D01*
G03X1867060Y5245000I-12917J21890D01*
G01Y5375000D01*
G03X1854560Y5396890I-25417J0D01*
G01X1852060Y5398370D01*
Y5436200D01*
G03X1845420Y5467140I-75419J-3D01*
G01Y5570000D01*
G03X1694580I-75420J0D01*
G01Y5442840D01*
G03X1700800Y5412850I75409J0D01*
G01X1701220Y5411880D01*
Y5398370D01*
X1698720Y5396890D01*
G03X1686220Y5375000I12917J-21890D01*
G01Y5245000D01*
G03X1698720Y5223110I25417J0D01*
G01X1701220Y5221630D01*
Y5168370D01*
X1698720Y5166890D01*
G03X1686220Y5145000I12917J-21890D01*
G01Y5015000D01*
G03X1698720Y4993110I25417J0D01*
G01X1701220Y4991630D01*
Y4938370D01*
X1698720Y4936890D01*
G03X1686220Y4915000I12917J-21890D01*
G01Y4785000D01*
G03X1698720Y4763110I25417J0D01*
G01X1701220Y4761630D01*
Y4737780D01*
G02X1683880Y4730590I-10160J-2D01*
G01X1498120Y4916350D01*
Y5564600D01*
G03X1486950Y5591550I-38117J-8D01*
G01X1461550Y5616950D01*
G03X1434600Y5628120I-26958J-26947D01*
G01X1373780D01*
Y5655000D01*
G03X1348360Y5680420I-25420J0D01*
G01X1218360D01*
G03X1192940Y5655000I0J-25420D01*
G01Y5525000D01*
G03X1218360Y5499580I25420J0D01*
G01X1348360D01*
G03X1373780Y5525000I0J25420D01*
G01Y5551880D01*
X1418810D01*
X1421880Y5548810D01*
Y5289920D01*
G02X1404540Y5282730I-10160J-2D01*
G01X1373780Y5313490D01*
Y5415000D01*
G03X1348360Y5440420I-25420J0D01*
G01X1218360D01*
G03X1192940Y5415000I0J-25420D01*
G01Y5285000D01*
G03X1218360Y5259580I25420J0D01*
G01X1319870D01*
X1351920Y5227530D01*
Y5200420D01*
X1218360D01*
G03X1192940Y5175000I0J-25420D01*
G01Y5045000D01*
G03X1218360Y5019580I25420J0D01*
G01X1245240D01*
Y4936650D01*
G03X1256410Y4909700I38117J8D01*
G01X1610640Y4555460D01*
G02X1603450Y4538120I-7188J-7180D01*
G01X1510420D01*
Y4565000D01*
G03X1485000Y4590420I-25420J0D01*
G01X1355000D01*
G03X1329580Y4565000I0J-25420D01*
G01Y4435000D01*
G03X1355000Y4409580I25420J0D01*
G01X1485000D01*
G03X1510420Y4435000I0J25420D01*
G01Y4461880D01*
X1626210D01*
X1721880Y4366210D01*
Y4270420D01*
X1682480D01*
X1650900Y4302000D01*
G03X1623950Y4313170I-26958J-26947D01*
G01X1269920D01*
Y4340050D01*
G03X1244500Y4365470I-25420J0D01*
G01X1172620D01*
Y4409580D01*
X1271640D01*
G03X1297060Y4435000I0J25420D01*
G01Y4565000D01*
G03X1271640Y4590420I-25420J0D01*
G01X1141640D01*
G03X1116220Y4565000I0J-25420D01*
G01Y4514730D01*
X1107550Y4506050D01*
G03X1096380Y4479100I26947J-26958D01*
G01Y4365470D01*
X1024500D01*
G03X999080Y4340050I0J-25420D01*
G01Y4313170D01*
X374570D01*
Y4340050D01*
G03X349150Y4365470I-25420J0D01*
G01X129150D01*
G03X103730Y4340050I0J-25420D01*
G01Y4210050D01*
G03X129150Y4184630I25420J0D01*
G01X349150D01*
G03X374570Y4210050I0J25420D01*
G01Y4236930D01*
X999080D01*
Y4210050D01*
G03X1024500Y4184630I25420J0D01*
G01X1244500D01*
G03X1269920Y4210050I0J25420D01*
G01Y4236930D01*
X1559580D01*
Y4115000D01*
G03X1585000Y4089580I25420J0D01*
G01X1611880D01*
Y3495080D01*
G03X1574580Y3430000I38125J-65080D01*
G03X1725420I75420J0D01*
G03X1688120Y3495080I-75425J0D01*
G01Y4089580D01*
X1721880D01*
Y3885400D01*
G03X1733050Y3858450I38117J8D01*
G01X1758450Y3833050D01*
G03X1785400Y3821880I26958J26947D01*
G01X1859580D01*
Y3795000D01*
G03X1885000Y3769580I25420J0D01*
G01X1911880D01*
Y3583120D01*
X1885080D01*
G03X1820000Y3620420I-65080J-38125D01*
G03Y3469580I0J-75420D01*
G03X1885080Y3506880I0J75425D01*
G01X2221980D01*
X2259580Y3469280D01*
Y3332770D01*
G03X2300000Y3292350I40420J0D01*
G03X2331050Y3306900I-6J40417D01*
G02X2337290Y3308160I3904J-3254D01*
G03X2350040Y3305050I12757J24608D01*
G03X2362790Y3308160I-7J27718D01*
G02X2369030Y3306900I2336J-4514D01*
G03X2400080Y3292350I31056J25867D01*
G01X2400090D01*
G03X2425100Y3301020I-5J40422D01*
G03X2450110Y3292350I25010J31738D01*
G01X2450120D01*
G03X2475130Y3301020I-5J40422D01*
G03X2500140Y3292350I25015J31752D01*
G01X2500160D01*
G03X2525170Y3301020I-5J40422D01*
G03X2550190Y3292350I25015J31752D01*
G03X2551560Y3292370I95J40421D01*
G02X2562060Y3282180I342J-10153D01*
G01X2561950Y3255860D01*
X2529100Y3223010D01*
X2526380Y3223620D01*
G03X2510000Y3225420I-16380J-73629D01*
G03X2585420Y3150000I0J-75420D01*
G03X2583620Y3166380I-75429J0D01*
G01X2583010Y3169100D01*
X2594810Y3180900D01*
G02X2612150Y3173710I7180J-7188D01*
G01Y2971460D01*
X2603050Y2962350D01*
G03X2591880Y2935400I26947J-26958D01*
G01Y2925140D01*
X2589530Y2923640D01*
G03X2565380Y2898890I40467J-63643D01*
G02X2549950Y2896510I-8706J5236D01*
G03X2500000Y2915420I-49950J-56515D01*
G03X2424580Y2840000I0J-75420D01*
G03X2426350Y2823760I75420J4D01*
G02X2422180Y2817650I-4962J-1091D01*
G03X2420180Y2817280I5932J-37654D01*
G01X2419660Y2817170D01*
X2360720D01*
G02X2351280Y2831070I7J10160D01*
G03X2356580Y2858840I-70119J27773D01*
G03X2352980Y2881860I-75420J-3D01*
G02X2362530Y2895120I9677J3099D01*
G03X2437020Y2970530I-926J75410D01*
G03X2361600Y3045950I-75420J0D01*
G03X2297960Y3011000I0J-75416D01*
G01X2296460Y3008650D01*
X2286200D01*
G03X2283550Y3008560I-32J-38121D01*
G01X2283200Y3008550D01*
G02X2278120Y3013620I-2J5078D01*
G01Y3232000D01*
G03X2266950Y3258950I-38117J-8D01*
G01X2170270Y3355630D01*
G03X2164980Y3360050I-26985J-26921D01*
G01X2164600Y3360310D01*
X2140010Y3384900D01*
X2140620Y3387620D01*
G03X2142420Y3404000I-73629J16380D01*
G03X2067000Y3328580I-75420J0D01*
G03X2083380Y3330380I0J75429D01*
G01X2086100Y3330990D01*
X2093300Y3323790D01*
G02X2089710Y3315120I-3594J-3590D01*
G01X1833640D01*
G03X1806690Y3303950I8J-38117D01*
G01X1763760Y3261030D01*
G02X1747480Y3263680I-7187J7182D01*
G03X1680000Y3305420I-67480J-33677D01*
G03X1614920Y3268120I0J-75425D01*
G01X1600000D01*
G03X1573050Y3256950I8J-38117D01*
G01X1494360Y3178270D01*
G02X1479420Y3178900I-7180J7188D01*
G03X1474930Y3183080I-19440J-16380D01*
G01X1472830Y3187190D01*
X1473450Y3189620D01*
G03X1478120Y3207900I-33442J18280D01*
G01Y3394920D01*
G03X1515420Y3460000I-38125J65080D01*
G03X1364580I-75420J0D01*
G03X1401880Y3394920I75425J0D01*
G01Y3329940D01*
G02X1386230Y3321390I-10161J0D01*
G03X1372500Y3325420I-13734J-21389D01*
G01X1347500D01*
G03X1325490Y3312720I0J-25422D01*
G01X1294510D01*
G03X1272500Y3325420I-22010J-12722D01*
G01X1247500D01*
G03X1225490Y3312720I0J-25422D01*
G01X1147500D01*
G03X1134780Y3300000I0J-12720D01*
G01Y3220000D01*
G03X1147500Y3207280I12720J0D01*
G01X1225490D01*
G03X1247500Y3194580I22010J12722D01*
G01X1272500D01*
G03X1294510Y3207280I0J25422D01*
G01X1325490D01*
G03X1347500Y3194580I22010J12722D01*
G01X1351980D01*
G02X1359980Y3178160I-4J-10161D01*
G03X1354580Y3162500I20007J-15660D01*
G01Y3137500D01*
G03X1357260Y3126140I25416J0D01*
G03X1346880Y3100000I27738J-26145D01*
G03X1356220Y3075000I38128J0D01*
G03X1346880Y3050000I28788J-25000D01*
G03X1361800Y3019750I38126J0D01*
G03X1380000Y3012080I18200J17758D01*
G01X1381090D01*
X1381340Y3012060D01*
G03X1385000Y3011880I3700J37938D01*
G01X1425280D01*
G02X1434150Y2996770I-2J-10160D01*
G03X1424580Y2960000I65854J-36770D01*
G03X1500000Y2884580I75420J0D01*
G03X1536770Y2894150I0J75424D01*
G02X1551880Y2885280I4950J-8872D01*
G01Y2723890D01*
X1548810Y2720820D01*
X1351190D01*
X1348120Y2723890D01*
Y2887280D01*
X1372500D01*
G03X1385220Y2900000I0J12720D01*
G01Y2980000D01*
G03X1372500Y2992720I-12720J0D01*
G01X1344620D01*
G03X1343350Y2994710I-22123J-12718D01*
G03X1310000Y3014370I-33350J-18456D01*
G03X1285460Y3005420I0J-38118D01*
G01X1147500D01*
G03X1122220Y2982670I0J-25421D01*
G01X1121740Y2978120D01*
X1080980D01*
X1058120Y3000980D01*
Y3024780D01*
X1140000D01*
G03X1152720Y3037500I0J12720D01*
G01Y3062500D01*
G03X1149060Y3071430I-12724J0D01*
G01X1147590Y3075000D01*
X1149060Y3078570D01*
G03X1152720Y3087500I-9064J8930D01*
G01Y3115490D01*
G03X1158200Y3119750I-12716J22012D01*
G03Y3180250I-23206J30250D01*
G03X1140000Y3187920I-18200J-17758D01*
G01X1138910D01*
X1138660Y3187940D01*
G03X1135000Y3188120I-3700J-37938D01*
G01X1038050D01*
X1025850Y3200310D01*
G03X1004720Y3211030I-26956J-26949D01*
G01X1000420Y3211700D01*
Y3238360D01*
G03X975000Y3263780I-25420J0D01*
G01X845000D01*
G03X819580Y3238360I0J-25420D01*
G01Y3211480D01*
X762430D01*
X743010Y3230900D01*
X743620Y3233620D01*
G03X745420Y3250000I-73629J16380D01*
G03X670000Y3174580I-75420J0D01*
G03X686380Y3176380I0J75429D01*
G01X689100Y3176990D01*
X719690Y3146410D01*
G03X746640Y3135240I26958J26947D01*
G01X819580D01*
Y3108360D01*
G03X845000Y3082940I25420J0D01*
G01X981880D01*
Y3037720D01*
X845000D01*
G03X832280Y3025000I0J-12720D01*
G01Y2895000D01*
G03X845000Y2882280I12720J0D01*
G01X975000D01*
G03X987720Y2895000I0J12720D01*
G01Y2939030D01*
G02X1005060Y2946220I10160J2D01*
G01X1038240Y2913050D01*
G03X1065190Y2901880I26958J26947D01*
G01X1121880D01*
Y2884600D01*
G03X1133050Y2857650I38117J8D01*
G01X1136130Y2854560D01*
G02X1128940Y2837220I-7188J-7180D01*
G01X1049950D01*
G03X1037230Y2824500I0J-12720D01*
G01Y2604500D01*
G03X1049950Y2591780I12720J0D01*
G01X1179950D01*
G03X1192670Y2604500I0J12720D01*
G01Y2773500D01*
G02X1211880Y2778110I10160J-7D01*
G01Y2680000D01*
G03X1223050Y2653050I38117J8D01*
G01X1263050Y2613050D01*
G03X1290000Y2601880I26958J26947D01*
G01X1332280D01*
Y2475000D01*
G03X1345000Y2462280I12720J0D01*
G01X1428840D01*
G02X1436030Y2444940I2J-10160D01*
G01X1373050Y2381950D01*
G03X1361880Y2355000I26947J-26958D01*
G01Y2310420D01*
X1335000D01*
G03X1309580Y2285000I0J-25420D01*
G01Y2155000D01*
G03X1335000Y2129580I25420J0D01*
G01X1465000D01*
G03X1490420Y2155000I0J25420D01*
G01Y2285000D01*
G03X1465000Y2310420I-25420J0D01*
G01X1438120D01*
Y2339210D01*
X1482940Y2384030D01*
X1701370D01*
G03X1766450Y2346730I65080J38125D01*
G01X1766460D01*
G03X1800460Y2354830I-3J75422D01*
G02X1815200Y2345770I4581J-9067D01*
G01Y2292770D01*
G02X1799690Y2284130I-10160J-2D01*
G03X1760000Y2295420I-39690J-64120D01*
G03X1718840Y2283200I0J-75429D01*
G02X1703320Y2289800I-5542J8515D01*
G03X1678360Y2310420I-24960J-4797D01*
G01X1548360D01*
G03X1522940Y2285000I0J-25420D01*
G01Y2155000D01*
G03X1548360Y2129580I25420J0D01*
G01X1678360D01*
G03X1703320Y2150200I0J25417D01*
G02X1718840Y2156800I9978J-1915D01*
G03X1760000Y2144580I41160J63209D01*
G03X1799690Y2155870I0J75410D01*
G02X1815200Y2147230I5350J-8638D01*
G01Y2056680D01*
G03X1826370Y2029730I38117J8D01*
G01X1885630Y1970460D01*
G02X1878440Y1953120I-7188J-7180D01*
G01X1755000D01*
G03X1728050Y1941950I8J-38117D01*
G01X1721120Y1935030D01*
G02X1703780Y1942220I-7180J7188D01*
G01Y2055000D01*
G03X1678360Y2080420I-25420J0D01*
G01X1548360D01*
G03X1522940Y2055000I0J-25420D01*
G01Y1925000D01*
G03X1548360Y1899580I25420J0D01*
G01X1672650D01*
G02X1682610Y1887440I-4J-10159D01*
G03X1681880Y1880030I37392J-7425D01*
G01Y1820420D01*
X1655000D01*
G03X1629580Y1795000I0J-25420D01*
G01Y1665000D01*
G03X1655000Y1639580I25420J0D01*
G01X1681880D01*
Y1631100D01*
G03X1690700Y1606710I38133J0D01*
G01X1691880Y1605300D01*
Y1595920D01*
X1665000D01*
G03X1639580Y1570500I0J-25420D01*
G01Y1350500D01*
G03X1665000Y1325080I25420J0D01*
G01X1795000D01*
G03X1799800Y1325540I-14J25419D01*
G02X1811880Y1315560I1919J-9978D01*
G01Y1224440D01*
G02X1799800Y1214460I-10161J-2D01*
G03X1795000Y1214920I-4814J-24959D01*
G01X1665000D01*
G03X1639580Y1189500I0J-25420D01*
G01Y969500D01*
G03X1665000Y944080I25420J0D01*
G01X1691880D01*
Y870420D01*
X1668360D01*
G03X1642940Y845000I0J-25420D01*
G01Y703120D01*
X1597720D01*
Y845000D01*
G03X1585000Y857720I-12720J0D01*
G01X1506290D01*
G02X1498420Y874300I4J10160D01*
G03X1515420Y922000I-58420J47700D01*
G03X1440000Y997420I-75420J0D01*
G03X1374920Y960120I0J-75425D01*
G01X1236220D01*
Y1189500D01*
G03X1223500Y1202220I-12720J0D01*
G01X1093500D01*
G03X1080780Y1189500I0J-12720D01*
G01Y960120D01*
X745790D01*
X386490Y1319420D01*
X387750Y1322530D01*
G03X395420Y1362000I-97749J39475D01*
G03X290000Y1256580I-105420J0D01*
G03X329470Y1264250I-5J105419D01*
G01X332580Y1265510D01*
X703050Y895050D01*
G03X730000Y883880I26958J26947D01*
G01X1374920D01*
G03X1437380Y846630I65074J38124D01*
G02X1442280Y841550I-181J-5078D01*
G01Y703120D01*
X748790D01*
X386450Y1065460D01*
G03X395420Y1108000I-96447J42553D01*
G03X290000Y1002580I-105420J0D01*
G03X332540Y1011550I-13J105417D01*
G01X667630Y676460D01*
G02X660440Y659120I-7188J-7180D01*
G01X416380D01*
G03X394390Y652130I12J-38123D01*
G02X379870Y655110I-5864J8294D01*
G03X290000Y705420I-89870J-55114D01*
G03Y494580I0J-105420D01*
G03X387530Y559980I0J105422D01*
G02X400630Y544540I5910J-8263D01*
G01X337580Y481480D01*
G03X326540Y457680I26947J-26960D01*
G02X314090Y448630I-10125J840D01*
G03X290000Y451420I-24093J-102630D01*
G03X184580Y346000I0J-105420D01*
G03X246740Y249860I105428J0D01*
G02X242570Y230440I-4172J-9262D01*
G01X223470D01*
X162720Y291190D01*
Y811810D01*
X166790Y815880D01*
X191710D01*
G03X290000Y748580I98290J38125D01*
G03Y959420I0J105420D01*
G03X191710Y892120I0J-105425D01*
G01X151000D01*
G03X124050Y880950I8J-38117D01*
G01X97650Y854550D01*
G03X86480Y827600I26947J-26958D01*
G01Y275400D01*
G03X97650Y248450I38117J8D01*
G01X180730Y165370D01*
G03X207680Y154200I26958J26947D01*
G01X414600D01*
G03X441550Y165370I-8J38117D01*
G01X488640Y212450D01*
G02X505980Y205260I7180J-7188D01*
G01Y0D01*
X171480D01*
G02X164230Y17270I5J10159D01*
G03X193920Y90000I-74236J72730D01*
G03X90000Y193920I-103920J0D01*
G03X17270Y164230I0J-103926D01*
G02X0Y171480I-7111J7255D01*
G01Y7308520D01*
G02X17270Y7315770I10159J-5D01*
G03X90000Y7286080I72730J74236D01*
G03X193920Y7390000I0J103920D01*
G03X158470Y7468180I-103933J0D01*
G02X165160Y7485980I6693J7642D01*
G01X514020D01*
Y8000000D01*
X3109350D01*
G02X3116410Y7982540I-5J-10159D01*
G03X3091580Y7924000I56593J-58540D01*
G03X3254420I81420J0D01*
G03X3229590Y7982540I-81423J0D01*
G02X3236650Y8000000I7065J7301D01*
G01X3363350D01*
G02X3370410Y7982540I-5J-10159D01*
G03X3345580Y7924000I56593J-58540D01*
G03X3508420I81420J0D01*
G03X3483590Y7982540I-81423J0D01*
G02X3490650Y8000000I7065J7301D01*
G01X4718520D01*
G02X4725770Y7982730I-5J-10159D01*
G03X4696080Y7910000I74236J-72730D01*
G03X4800000Y7806080I103920J0D01*
G01X4800010D01*
G03X4869070Y7832350I-5J103922D01*
G02X4885980Y7824760I6752J-7590D01*
G01Y7490000D01*
X4477120D01*
Y7641240D01*
G03X4465950Y7668190I-38117J-8D01*
G01X4440550Y7693590D01*
G03X4413600Y7704760I-26958J-26947D01*
G01X4240420D01*
Y7731640D01*
G03X4215000Y7757060I-25420J0D01*
G01X4085000D01*
G03X4059580Y7731640I0J-25420D01*
G01Y7601640D01*
G03X4085000Y7576220I25420J0D01*
G01X4215000D01*
G03X4240420Y7601640I0J25420D01*
G01Y7628520D01*
X4397810D01*
X4400880Y7625450D01*
Y7490000D01*
X4240000D01*
Y7472790D01*
X4239430Y7471700D01*
G03X4236580Y7460010I22571J-11695D01*
G01Y7435420D01*
X4170940D01*
X4043030Y7563330D01*
G03X3989700Y7585420I-53330J-53330D01*
G01X3950500D01*
X3950420Y7590420D01*
G03X3925000Y7615420I-25420J-424D01*
G01X3675000D01*
G03X3649580Y7590000I0J-25420D01*
G01Y7511240D01*
X3286670Y7148330D01*
G03X3264580Y7095000I53330J-53330D01*
G01Y7031420D01*
X3250210D01*
G03X3230000Y7041420I-20210J-15422D01*
G01X3010000D01*
G03X2984580Y7016000I0J-25420D01*
G01Y6896000D01*
G03X3010000Y6870580I25420J0D01*
G01X3230000D01*
G03X3250210Y6880580I0J25422D01*
G01X3264580D01*
Y6817880D01*
G02X3247450Y6810490I-10158J-2D01*
G03X3230010Y6817420I-17445J-18492D01*
G01X3010000D01*
G03X2984580Y6792000I0J-25420D01*
G01Y6672000D01*
G03X3010000Y6646580I25420J0D01*
G01X3043720D01*
X3039090Y6196230D01*
G02X3022090Y6188810I-10162J99D01*
G03X3005000Y6195420I-17097J-18807D01*
G01X2755000D01*
G03X2729580Y6170000I0J-25420D01*
G01Y6140420D01*
X2630000D01*
G03X2594350Y6125650I0J-50409D01*
G01X2544350Y6075650D01*
G03X2529580Y6040000I35639J-35650D01*
G01Y5960640D01*
G03X2530030Y5953950I50422J31D01*
G01X2530080Y5953610D01*
Y5945420D01*
X2440420D01*
Y6211780D01*
X2538490D01*
G03X2560500Y6199080I22010J12722D01*
G01X2600500D01*
G03X2625920Y6224500I0J25420D01*
G01Y6244080D01*
X2640000D01*
G03X2675650Y6258850I0J50409D01*
G01X2725650Y6308850D01*
G03X2739120Y6333110I-35644J35660D01*
G02X2751670Y6340620I9895J-2294D01*
G03X2754970Y6340180I3317J12282D01*
G01X3005000D01*
G03X3017720Y6352900I0J12720D01*
G01Y6512900D01*
G03X3005000Y6525620I-12720J0D01*
G01X2768550D01*
G02X2761370Y6542960I5J10158D01*
G01X2785050Y6566650D01*
G03X2799820Y6602300I-35639J35650D01*
G01Y6614580D01*
X2839400D01*
G03X2864820Y6640000I0J25420D01*
G01Y6840000D01*
G03X2839400Y6865420I-25420J0D01*
G01X2659400D01*
G03X2633980Y6840000I0J-25420D01*
G01Y6640000D01*
G03X2659400Y6614580I25420J0D01*
G01X2665850D01*
G02X2673030Y6597240I-5J-10158D01*
G01X2654350Y6578550D01*
G03X2639580Y6542900I35639J-35650D01*
G01Y6365380D01*
X2634590Y6360400D01*
G02X2625920Y6363990I-3591J3591D01*
G01Y6364500D01*
G03X2600500Y6389920I-25420J0D01*
G01X2560500D01*
G03X2538490Y6377220I0J-25422D01*
G01X2432010D01*
G03X2417930Y6388650I-22007J-12722D01*
G01X2416770Y6389030D01*
X2393760Y6412040D01*
Y6614580D01*
X2560000D01*
G03X2585420Y6640000I0J25420D01*
G01Y6840000D01*
G03X2560000Y6865420I-25420J0D01*
G01X2380000D01*
G03X2356210Y6848950I0J-25417D01*
G02X2339510Y6845340I-9512J3571D01*
G01X2271520Y6913330D01*
G03X2218190Y6935420I-53330J-53330D01*
G01X2150500D01*
X2150420Y6940420D01*
G03X2125000Y6965420I-25420J-424D01*
G01X2075420D01*
Y6981960D01*
X2075740Y6982810D01*
G03X2080420Y7008950I-70743J26154D01*
G01Y7164580D01*
X2130000D01*
G03X2155420Y7190000I0J25420D01*
G01Y7310000D01*
G03X2130000Y7335420I-25420J0D01*
G01X1880000D01*
G03X1859790Y7325420I0J-25422D01*
G01X1600430D01*
G03X1579380Y7336330I-20873J-14511D01*
G01X1329380Y7334510D01*
G03X1304150Y7308910I189J-25419D01*
G01X1305020Y7188910D01*
G03X1330620Y7163670I25421J181D01*
G01X1580620Y7165490D01*
G03X1599910Y7174580I-191J25418D01*
G01X1859790D01*
G03X1880000Y7164580I20210J15422D01*
G01X1929580D01*
Y7031000D01*
X1929260Y7030150D01*
G03X1924580Y7004010I70743J-26154D01*
G01Y6965420D01*
X1875000D01*
G03X1849580Y6940000I0J-25420D01*
G01Y6861240D01*
X1736670Y6748330D01*
G03X1714580Y6695000I53330J-53330D01*
G01Y6525420D01*
X1323370D01*
X1321890Y6527920D01*
G03X1300000Y6540420I-21890J-12917D01*
G01X1080000D01*
G03X1054580Y6515000I0J-25420D01*
G01Y6385000D01*
G03X1080000Y6359580I25420J0D01*
G01X1300000D01*
G03X1321890Y6372080I0J25417D01*
G01X1323370Y6374580D01*
X1714580D01*
Y6291730D01*
X1712080Y6290250D01*
G03X1699580Y6268360I12917J-21890D01*
G01Y6138360D01*
G03X1725000Y6112940I25420J0D01*
G01X1855000D01*
G03X1880420Y6138360I0J25420D01*
G01Y6268360D01*
G03X1867920Y6290250I-25417J0D01*
G01X1865420Y6291730D01*
Y6424380D01*
X2125000D01*
G03X2137720Y6437100I0J12720D01*
G01Y6597100D01*
G03X2125000Y6609820I-12720J0D01*
G01X1865420D01*
Y6663760D01*
X1956240Y6754580D01*
X2125000D01*
G03X2150420Y6779580I0J25424D01*
G01X2150500Y6784580D01*
X2186950D01*
X2291880Y6679650D01*
Y6624320D01*
G03X2292920Y6614160I50423J28D01*
G01Y6391160D01*
G03X2307690Y6355510I50409J0D01*
G01X2339580Y6323620D01*
Y5850000D01*
G03X2344120Y5829090I50423J0D01*
G01X2344580Y5828080D01*
Y5780000D01*
G03X2370000Y5754580I25420J0D01*
G01X2403080D01*
Y5734380D01*
X2329120Y5660420D01*
X2326240D01*
X2215420Y5771240D01*
Y5908270D01*
X2217920Y5909750D01*
G03X2230420Y5931640I-12917J21890D01*
G01Y6061640D01*
G03X2205000Y6087060I-25420J0D01*
G01X2075000D01*
G03X2049580Y6061640I0J-25420D01*
G01Y5931640D01*
G03X2062080Y5909750I25417J0D01*
G01X2064580Y5908270D01*
Y5740000D01*
G03X2086670Y5686670I75420J0D01*
G01X2219580Y5553760D01*
Y5505000D01*
G03X2232080Y5483110I25417J0D01*
G01X2234580Y5481630D01*
Y5460000D01*
G03X2256670Y5406670I75420J0D01*
G01X2285580Y5377760D01*
G02X2278390Y5360420I-7188J-7180D01*
G01X2210000D01*
G03X2204670Y5359860I-23J-25422D01*
G01X2201970Y5359280D01*
X2197920Y5363330D01*
G03X2144590Y5385420I-53330J-53330D01*
G01X2078370D01*
X2076890Y5387920D01*
G03X2055000Y5400420I-21890J-12917D01*
G01X1925000D01*
G03X1899580Y5375000I0J-25420D01*
G01Y5245000D01*
G03X1925000Y5219580I25420J0D01*
G01X2055000D01*
G03X2076890Y5232080I0J25417D01*
G01X2078370Y5234580D01*
X2113350D01*
X2130030Y5217900D01*
G03X2184590Y5194560I54560J52100D01*
G01X2186820D01*
G03X2210000Y5179580I23180J10444D01*
G01X2370000D01*
G03X2395420Y5205000I0J25420D01*
G01Y5344930D01*
X2604580D01*
Y5205000D01*
G03X2630000Y5179580I25420J0D01*
G01X2790000D01*
G03X2815420Y5205000I0J25420D01*
G01Y5251280D01*
X2890360Y5324580D01*
X2961100D01*
G03X2997510Y5333950I0J75426D01*
G01X2998650Y5334580D01*
X3011100D01*
G03X3036520Y5360000I0J25420D01*
G01Y5440000D01*
G03X3011100Y5465420I-25420J0D01*
G01X2998650D01*
X2997510Y5466050D01*
G03X2961100Y5475420I-36410J-66056D01*
G01X2886610D01*
G02X2879420Y5492760I-2J10160D01*
G01X2953330Y5566670D01*
G03X2975420Y5620000I-53330J53330D01*
G01Y5661630D01*
X2977920Y5663110D01*
G03X2990420Y5685000I-12917J21890D01*
G01Y5815000D01*
G03X2965000Y5840420I-25420J0D01*
G01X2835000D01*
G03X2809580Y5815000I0J-25420D01*
G01Y5685000D01*
G03X2822080Y5663110I25417J0D01*
G01X2824580Y5661630D01*
Y5651240D01*
X2669110Y5495770D01*
X2613780D01*
Y5635000D01*
G03X2599190Y5658000I-25424J0D01*
G02X2596340Y5674370I4333J9187D01*
G01X2616150Y5694190D01*
G03X2630920Y5729840I-35639J35650D01*
G01Y5960260D01*
G03X2630470Y5966950I-50422J-31D01*
G01X2630420Y5967290D01*
Y6019120D01*
X2650880Y6039580D01*
X2729580D01*
Y6010000D01*
G03X2755000Y5984580I25420J0D01*
G01X3005020D01*
G03X3021280Y5990470I-12J25423D01*
G02X3037940Y5982670I6502J-7804D01*
G01Y5838370D01*
X3035440Y5836890D01*
G03X3022940Y5815000I12917J-21890D01*
G01Y5685000D01*
G03X3048360Y5659580I25420J0D01*
G01X3178360D01*
G03X3203780Y5685000I0J25420D01*
G01Y5815000D01*
G03X3191280Y5836890I-25417J0D01*
G01X3188780Y5838370D01*
Y6083990D01*
X3194570Y6646580D01*
X3230010D01*
G03X3247450Y6653510I-5J25422D01*
G02X3264580Y6646120I6972J-7388D01*
G01Y6555500D01*
X3259580Y6550420D01*
G37*
G36*
G01X3073650Y499750D02*
X3510200Y936290D01*
X3533450Y913050D01*
G03X3560400Y901880I26958J26947D01*
G01X4584200D01*
X4820620Y665460D01*
G02X4813430Y648120I-7188J-7180D01*
G01X3728180D01*
G02X3720130Y664480I0J10160D01*
G03X3725420Y680000I-20122J15520D01*
G01Y800000D01*
G03X3700000Y825420I-25420J0D01*
G01X3450000D01*
G03X3424580Y800000I0J-25420D01*
G01Y680000D01*
G03X3450000Y654580I25420J0D01*
G01X3566540D01*
G02X3573670Y637180I4J-10159D01*
G03X3573450Y636950I27436J-26463D01*
G01X3548050Y611550D01*
G03X3536880Y584600I26947J-26958D01*
G01Y575420D01*
X3450000D01*
G03X3424580Y550000I0J-25420D01*
G01Y430000D01*
G03X3450000Y404580I25420J0D01*
G01X3700000D01*
G03X3725420Y430000I0J25420D01*
G01Y550000D01*
G03X3724000Y558370I-25419J-7D01*
G02X3733590Y571880I9592J3350D01*
G01X3966300D01*
G02X3975800Y558110I4J-10159D01*
G03X3974150Y548910I23769J-9011D01*
G01X3975020Y428910D01*
G03X4000620Y403670I25421J181D01*
G01X4250620Y405490D01*
G03X4275850Y431090I-189J25419D01*
G01X4274980Y551090D01*
G03X4273780Y558630I-25419J-180D01*
G02X4283460Y571880I9678J3091D01*
G01X4816740D01*
X4867260Y521360D01*
G02X4860070Y504020I-7188J-7180D01*
G01X4385980D01*
Y175240D01*
G02X4369070Y167650I-10158J0D01*
G03X4300000Y193920I-69065J-77652D01*
G03X4287110Y193120I-20J-103921D01*
G02X4275690Y203130I-1261J10081D01*
G01X4274980Y301090D01*
G03X4249380Y326330I-25421J-181D01*
G01X3999380Y324510D01*
G03X3974150Y298910I189J-25419D01*
G01X3975020Y178910D01*
G03X4000620Y153670I25421J181D01*
G01X4199960Y155120D01*
G02X4208940Y140070I75J-10159D01*
G03X4196080Y90000I91059J-50074D01*
G03X4225770Y17270I103926J0D01*
G02X4218520Y0I-7255J-7111D01*
G01X1014020D01*
Y488580D01*
X3046700D01*
G03X3073650Y499750I-8J38117D01*
G37*
G36*
G01X1795000Y944080D02*
G03X1804010Y945730I0J25425D01*
G02X1817630Y934540I3602J-9500D01*
G03X1816580Y922000I74357J-12540D01*
G03X1892000Y846580I75420J0D01*
G03X1957080Y883880I0J75425D01*
G01X2424920D01*
G03X2490000Y846580I65080J38125D01*
G03X2535580Y861910I0J75425D01*
G02X2551880Y853820I6141J-8093D01*
G01Y775790D01*
X2502680Y726590D01*
G02X2485350Y733330I-7181J7185D01*
G03X2410000Y805420I-75350J-3334D01*
G03X2334580Y730000I0J-75420D01*
G03X2336380Y713620I75429J0D01*
G01X2336990Y710900D01*
X2329210Y703120D01*
X1823780D01*
Y845000D01*
G03X1798360Y870420I-25420J0D01*
G01X1771700D01*
X1771030Y874720D01*
G03X1768520Y883640I-37678J-5789D01*
G01X1768120Y884580D01*
Y944080D01*
X1795000D01*
G37*
G36*
G01X1891190Y1821880D02*
X2313430D01*
G02X2320620Y1804540I2J-10160D01*
G01X2286410Y1770320D01*
G03X2275240Y1743370I26947J-26958D01*
G01Y1730420D01*
X2248360D01*
G03X2222940Y1705000I0J-25420D01*
G01Y1575000D01*
G03X2248360Y1549580I25420J0D01*
G01X2275240D01*
Y1479150D01*
X2213050Y1416950D01*
G03X2201880Y1390000I26947J-26958D01*
G01Y1335420D01*
X1990000D01*
G03X1964580Y1310000I0J-25420D01*
G01Y1110000D01*
G03X1990000Y1084580I25420J0D01*
G01X2490000D01*
G03X2515420Y1110000I0J25420D01*
G01Y1310000D01*
G03X2490000Y1335420I-25420J0D01*
G01X2278120D01*
Y1374210D01*
X2340310Y1436410D01*
G03X2351480Y1463360I-26947J26958D01*
G01Y1549580D01*
X2378360D01*
G03X2393970Y1554940I0J25411D01*
G02X2407390Y1554100I6234J-8023D01*
G01X2448450Y1513050D01*
G03X2475400Y1501880I26958J26947D01*
G01X2735280D01*
G02X2744150Y1486770I-2J-10160D01*
G03X2734580Y1450000I65854J-36770D01*
G03X2771880Y1384920I75425J0D01*
G01Y1369280D01*
G02X2754390Y1362250I-10159J4D01*
G03X2700000Y1385420I-54390J-52253D01*
G03X2634920Y1348120I0J-75425D01*
G01X2615400D01*
G03X2588450Y1336950I8J-38117D01*
G01X2563050Y1311550D01*
G03X2551880Y1284600I26947J-26958D01*
G01Y990180D01*
G02X2535580Y982090I-10159J3D01*
G03X2490000Y997420I-45580J-60095D01*
G03X2424920Y960120I0J-75425D01*
G01X1957080D01*
G03X1892000Y997420I-65080J-38125D01*
G03X1837870Y974520I0J-75425D01*
G02X1820420Y981590I-7291J7075D01*
G01Y1041160D01*
X1824720Y1041830D01*
G03X1845850Y1052550I-5826J37669D01*
G01X1876950Y1083650D01*
G03X1888120Y1110600I-26947J26958D01*
G01Y1818810D01*
X1891190Y1821880D01*
G37*
G36*
G01X1628120Y2708100D02*
Y2875280D01*
G02X1643230Y2884150I10160J-2D01*
G03X1680000Y2874580I36770J65854D01*
G03X1720230Y2886210I-6J75418D01*
G02X1734480Y2882650I5423J-8594D01*
G03X1800000Y2844580I65520J37346D01*
G03X1804440Y2844710I14J75420D01*
G02X1815200Y2834570I601J-10142D01*
G01Y2498540D01*
G02X1800460Y2489470I-10159J-3D01*
G03X1766450Y2497570I-34003J-67322D01*
G03X1728990Y2487610I0J-75424D01*
G02X1713780Y2496420I-5051J8815D01*
G01Y2605000D01*
G03X1688360Y2630420I-25420J0D01*
G01X1658040D01*
G03X1650310Y2641550I-34673J-15832D01*
G01X1624910Y2666950D01*
G03X1621480Y2670000I-26998J-26908D01*
G02X1619800Y2684330I6265J7998D01*
G03X1628120Y2708100I-29795J23770D01*
G37*
G36*
G01X1487720Y2601880D02*
X1532940D01*
Y2475000D01*
G03X1533150Y2471730I25421J-9D01*
G02X1523080Y2460270I-10076J-1301D01*
G01X1497420D01*
G02X1487460Y2472460I-4J10161D01*
G03X1487720Y2475000I-12458J2559D01*
G01Y2601880D01*
G37*
G36*
G01X1953780Y4187790D02*
G02X1971120Y4194980I10160J2D01*
G01X2211040Y3955060D01*
G02X2203850Y3937720I-7188J-7180D01*
G01X2098360D01*
G03X2085640Y3925000I0J-12720D01*
G01Y3795000D01*
G03X2098360Y3782280I12720J0D01*
G01X2228360D01*
G03X2235600Y3784540I0J12727D01*
G02X2250720Y3780200I5786J-8352D01*
G03X2320000Y3734580I69280J29795D01*
G03X2395420Y3810000I0J75420D01*
G03X2392740Y3829910I-75418J-16D01*
G01X2391970Y3832760D01*
X2397640Y3838440D01*
X2411990Y3824090D01*
Y3675520D01*
G02X2392950Y3670600I-10158J9D01*
G03X2327000Y3709420I-65950J-36610D01*
G03Y3558580I0J-75420D01*
G03X2343380Y3560380I0J75429D01*
G01X2346100Y3560990D01*
X2361960Y3545130D01*
Y3520610D01*
G02X2351330Y3510460I-10160J-1D01*
G03X2350040Y3510490I-1289J-27690D01*
G03X2337290Y3507380I7J-27718D01*
G02X2331050Y3508640I-2336J4514D01*
G03X2318160Y3518880I-31059J-25864D01*
G01X2317430Y3519250D01*
X2264720Y3571950D01*
G03X2237770Y3583120I-26958J-26947D01*
G01X1988120D01*
Y3769580D01*
X2015000D01*
G03X2040420Y3795000I0J25420D01*
G01Y3925000D01*
G03X2015000Y3950420I-25420J0D01*
G01X1885000D01*
G03X1859580Y3925000I0J-25420D01*
G01Y3898120D01*
X1801190D01*
X1798120Y3901190D01*
Y4089580D01*
X1928360D01*
G03X1953780Y4115000I0J25420D01*
G01Y4187790D01*
G37*
G36*
G01X1995080Y2181880D02*
X2224840D01*
X2233680Y2173050D01*
G03X2255220Y2162270I26955J26950D01*
G01X2259580Y2161640D01*
Y2110000D01*
G03X2285000Y2084580I25420J0D01*
G01X2311880D01*
Y2045790D01*
X2274210Y2008120D01*
X1955790D01*
X1891440Y2072470D01*
Y2139270D01*
G02X1904970Y2148850I10158J-2D01*
G03X1930000Y2144580I25017J71152D01*
G03X1995080Y2181880I0J75425D01*
G37*
G36*
G01X2558610Y2344710D02*
X2740900Y2526990D01*
X2743620Y2526380D01*
G03X2748650Y2525440I16362J73624D01*
G02X2754310Y2508210I-1524J-10045D01*
G01X2723050Y2476940D01*
G03X2711880Y2449990I26947J-26958D01*
G01Y2325560D01*
G02X2701440Y2315400I-10161J-3D01*
G03X2700300Y2315420I-1279J-40398D01*
G03X2675280Y2306750I-5J-40422D01*
G03X2650270Y2315420I-25010J-31738D01*
G03X2625250Y2306750I-5J-40422D01*
G03X2600230Y2315420I-25015J-31752D01*
G03X2575210Y2306750I-5J-40422D01*
G03X2550190Y2315420I-25015J-31752D01*
G03X2525170Y2306750I-5J-40422D01*
G03X2500150Y2315420I-25015J-31752D01*
G03X2475130Y2306750I-5J-40422D01*
G03X2450110Y2315420I-25015J-31752D01*
G03X2425100Y2306750I0J-40408D01*
G03X2400080Y2315420I-25015J-31752D01*
G03X2375060Y2306750I-5J-40422D01*
G03X2350040Y2315420I-25015J-31752D01*
G03X2330320Y2310280I5J-40419D01*
G03X2315000Y2315420I-15326J-20278D01*
G01X2285000D01*
G03X2259580Y2290000I0J-25420D01*
G01Y2267470D01*
G02X2247570Y2257480I-10161J1D01*
G03X2240630Y2258120I-6956J-37479D01*
G01X1995080D01*
G03X1977460Y2278610I-65068J-38133D01*
G02X1978650Y2295230I6394J7895D01*
G03X2015420Y2360000I-38661J64770D01*
G03X2013730Y2375880I-75420J3D01*
G02X2023660Y2388180I9931J2141D01*
G01X2132840D01*
X2176320Y2344710D01*
G03X2203270Y2333540I26958J26947D01*
G01X2531660D01*
G03X2558610Y2344710I-8J38117D01*
G37*
G36*
G01X2686470Y2580380D02*
X2515870Y2409780D01*
X2219060D01*
X2182940Y2445900D01*
X2182570Y2446640D01*
G03X2172270Y2459650I-36164J-18049D01*
G02X2171010Y2465890I3254J3904D01*
G03X2171770Y2467470I-24586J12799D01*
G02X2187690Y2471080I9298J-4097D01*
G03X2212520Y2461880I24830J28907D01*
G01X2340000D01*
G03X2366950Y2473050I-8J38117D01*
G01X2475790Y2581880D01*
X2646990D01*
G03X2670210Y2589770I0J38113D01*
G02X2686470Y2580380I6187J-8059D01*
G37*
G36*
G01X1891440Y2436480D02*
Y2599270D01*
G02X1904970Y2608850I10158J-2D01*
G03X1930000Y2604580I25017J71152D01*
G03X1951470Y2607700I0J75432D01*
G02X1957660Y2604650I1448J-4867D01*
G03X1961120Y2598430I23726J9126D01*
G03X1955980Y2578710I35279J-19725D01*
G03X1964650Y2553700I40408J0D01*
G03X1955980Y2528680I31752J-25015D01*
G03X1970530Y2497630I40417J6D01*
G02X1971790Y2491390I-3254J-3904D01*
G03X1968680Y2478640I24608J-12757D01*
G03X1968730Y2477000I27719J24D01*
G02X1960020Y2466340I-10142J-602D01*
G03X1938450Y2455550I5392J-37735D01*
G01X1913510Y2430620D01*
X1912520Y2430240D01*
G03X1906160Y2427400I27539J-70213D01*
G02X1891440Y2436480I-4560J9080D01*
G37*
G36*
G01X2884720Y1501880D02*
X3042900D01*
X3101880Y1442900D01*
Y1335420D01*
X2890000D01*
G03X2864580Y1310000I0J-25420D01*
G01Y1110000D01*
G03X2890000Y1084580I25420J0D01*
G01X3390000D01*
G03X3395840Y1085260I0J25418D01*
G02X3408340Y1075370I2340J-9886D01*
G01Y1042250D01*
X3134210Y768120D01*
X2835080D01*
G03X2770000Y805420I-65080J-38125D01*
G03Y654580I0J-75420D01*
G03X2835080Y691880I0J75425D01*
G01X3133440D01*
G02X3140630Y674540I2J-10160D01*
G01X3030910Y564820D01*
X2563260D01*
G02X2556070Y582160I-2J10160D01*
G01X2670950Y697050D01*
G03X2682120Y724000I-26947J26958D01*
G01Y845180D01*
G02X2696760Y854300I10160J2D01*
G03X2730000Y846580I33240J67701D01*
G03X2795920Y885360I0J75417D01*
G03X2812350Y895050I-10533J36633D01*
G01X2836950Y919650D01*
G03X2848120Y946600I-26947J26958D01*
G01Y1384920D01*
G03X2885420Y1450000I-38125J65080D01*
G03X2875850Y1486770I-75424J0D01*
G02X2884720Y1501880I8872J4950D01*
G37*
G36*
G01X3054420Y1959910D02*
G03X3100000Y1944580I45580J60095D01*
G03X3150930Y1964370I0J75430D01*
G02X3167950Y1956880I6861J-7492D01*
G01Y1857080D01*
G03X3130650Y1792000I38125J-65080D01*
G03X3185390Y1719470I75421J0D01*
G02X3192550Y1707610I-2782J-9771D01*
G03X3192280Y1705000I12450J-2607D01*
G01Y1575000D01*
G03X3205000Y1562280I12720J0D01*
G01X3331880D01*
Y1365930D01*
G03X3335430Y1349860I38121J-6D01*
G02X3326220Y1335420I-9213J-4281D01*
G01X3178120D01*
Y1458690D01*
G03X3166950Y1485640I-38117J-8D01*
G01X3119940Y1532660D01*
G02X3125560Y1549880I7183J7183D01*
G03X3147060Y1575000I-3925J25120D01*
G01Y1705000D01*
G03X3121640Y1730420I-25420J0D01*
G01X3028860D01*
G02X3021670Y1747760I-2J10160D01*
G01X3026950Y1753050D01*
G03X3038120Y1780000I-26947J26958D01*
G01Y1951820D01*
G02X3054420Y1959910I10159J-3D01*
G37*
G36*
G01X2963520Y2556940D02*
X2965870Y2558440D01*
G03X2977620Y2567660I-40454J63652D01*
G02X2994780Y2559580I7030J-7332D01*
G03X2994580Y2554040I75222J-5489D01*
G03X3070000Y2478620I75420J0D01*
G03X3110720Y2490560I-4J75419D01*
G01X3166330D01*
G02X3176480Y2479930I1J-10160D01*
G03X3176450Y2478640I27690J-1289D01*
G03X3179560Y2465890I27718J7D01*
G02X3178300Y2459650I-4514J-2336D01*
G03X3163750Y2428600I25867J-31056D01*
G03X3204170Y2388180I40420J0D01*
G01X3241050D01*
Y2263650D01*
X3240680Y2262730D01*
G03X3237880Y2248400I35318J-14340D01*
G01Y2238140D01*
X3235530Y2236640D01*
G03X3200580Y2173000I40466J-63640D01*
G03X3276000Y2097580I75420J0D01*
G03X3316290Y2109250I-10J75417D01*
G02X3331880Y2100660I5428J-8590D01*
G01Y1717720D01*
X3262750D01*
G02X3256020Y1735490I0J10159D01*
G03X3281490Y1792000I-49954J56510D01*
G03X3244190Y1857080I-75425J0D01*
G01Y2044530D01*
G03X3233020Y2071480I-38117J-8D01*
G01X3160430Y2144080D01*
Y2319080D01*
G03X3149260Y2346030I-38117J-8D01*
G01X3123860Y2371430D01*
G03X3096910Y2382600I-26958J-26947D01*
G01X2925860D01*
G03X2898910Y2371430I8J-38117D01*
G01X2873510Y2346030D01*
G03X2862680Y2324170I26945J-26962D01*
G02X2852170Y2315380I-10068J1360D01*
G03X2850420Y2315420I-1798J-40379D01*
G03X2849010Y2315400I-132J-40422D01*
G02X2838500Y2325550I-352J10152D01*
G01Y2405870D01*
X2952350Y2519730D01*
G03X2963520Y2546680I-26947J26958D01*
G01Y2556940D01*
G37*
G36*
G01X3573120Y981190D02*
Y1318560D01*
X3779580D01*
Y1185000D01*
G03X3805000Y1159580I25420J0D01*
G01X3935000D01*
G03X3960420Y1185000I0J25420D01*
G01Y1318560D01*
X4137520D01*
X4443040Y1013050D01*
G03X4469990Y1001880I26958J26947D01*
G01X4660210D01*
X5019510Y642580D01*
X5018250Y639470D01*
G03X5010810Y606930I97751J-39470D01*
G02X4993490Y600410I-10138J667D01*
G01X4626940Y966950D01*
G03X4599990Y978120I-26958J-26947D01*
G01X3576190D01*
X3573120Y981190D01*
G37*
G36*
G01X3384550Y3284390D02*
X3553800D01*
G02X3561660Y3267790I-1J-10161D01*
G03X3556360Y3260470I58326J-47809D01*
G01X3554860Y3258120D01*
X3544600D01*
G03X3517650Y3246950I8J-38117D01*
G01X3398740Y3128050D01*
G02X3381530Y3133600I-7183J7183D01*
G03X3378780Y3141880I-27354J-4488D01*
G02X3380040Y3148120I4514J2336D01*
G03X3394590Y3179170I-25867J31056D01*
G03X3354170Y3219590I-40420J0D01*
G01X3344280D01*
G02X3337090Y3236930I-2J10160D01*
G01X3384550Y3284390D01*
G37*
G36*
G01X4928120Y5013590D02*
G02X4943050Y5022560I10159J2D01*
G03X4955000Y5019580I11943J22442D01*
G01X5088560D01*
Y4982900D01*
G03X5099730Y4955950I38117J8D01*
G01X5113050Y4942630D01*
G03X5140000Y4931460I26958J26947D01*
G01X5204630D01*
X5251880Y4884210D01*
Y161190D01*
X5248810Y158120D01*
X4981190D01*
X4978120Y161190D01*
Y405440D01*
G02X4995460Y412630I10160J2D01*
G01X5011840Y396250D01*
Y267260D01*
G03X5037260Y241840I25420J0D01*
G01X5194740D01*
G03X5220160Y267260I0J25420D01*
G01Y424740D01*
G03X5194740Y450160I-25420J0D01*
G01X5065750D01*
X5038120Y477790D01*
Y506340D01*
G02X5054230Y514570I10159J-4D01*
G03X5116000Y494580I61770J85441D01*
G03Y705420I0J105420D01*
G03X5076530Y697750I5J-105419D01*
G01X5073420Y696490D01*
X4717370Y1052540D01*
G02X4724560Y1069880I7188J7180D01*
G01X5017710D01*
G03X5116000Y1002580I98290J38125D01*
G03Y1213420I0J105420D01*
G03X5017710Y1146120I0J-105425D01*
G01X4978560D01*
G02X4971370Y1163460I-2J10160D01*
G01X5073420Y1265510D01*
X5076530Y1264250D01*
G03X5116000Y1256580I39475J97749D01*
G03X5010580Y1362000I0J105420D01*
G03X5018250Y1322530I105419J5D01*
G01X5019510Y1319420D01*
X4918210Y1218120D01*
X4585790D01*
X4155950Y1647950D01*
G03X4129000Y1659120I-26958J-26947D01*
G01X4085270D01*
G02X4076340Y1674110I5J10158D01*
G03X4085420Y1710000I-66343J35878D01*
G03X4048120Y1775080I-75425J0D01*
G01Y1859580D01*
X4075000D01*
G03X4100420Y1885000I0J25420D01*
G01Y2015000D01*
G03X4075000Y2040420I-25420J0D01*
G01X4048350D01*
X4048030Y2045160D01*
G03X4036950Y2069550I-38030J-2565D01*
G01X4011550Y2094950D01*
G03X3984600Y2106120I-26958J-26947D01*
G01X3801190D01*
X3798120Y2109190D01*
Y2314920D01*
G03X3835420Y2380000I-38125J65080D01*
G03X3760000Y2455420I-75420J0D01*
G03X3743620Y2453620I0J-75429D01*
G01X3740900Y2453010D01*
X3736360Y2457550D01*
G02X3739950Y2466220I3594J3590D01*
G01X3745000D01*
G03X3770420Y2491640I0J25420D01*
G01Y2621640D01*
G03X3745000Y2647060I-25420J0D01*
G01X3609220D01*
Y2692280D01*
X3745000D01*
G03X3757720Y2705000I0J12720D01*
G01Y2835000D01*
G03X3745000Y2847720I-12720J0D01*
G01X3615000D01*
G03X3602280Y2835000I0J-12720D01*
G01Y2770060D01*
G02X3584940Y2762870I-10160J-2D01*
G01X3471780Y2876030D01*
G02X3475720Y2892850I7181J7189D01*
G03X3490530Y2902030I-12145J36129D01*
G01X3518850Y2930340D01*
G02X3533620Y2929900I7177J-7189D01*
G03X3590000Y2904580I56380J50111D01*
G03X3647610Y2931330I0J75411D01*
G02X3664290Y2929630I7758J-6559D01*
G03X3730530Y2890280I66240J36078D01*
G03X3779700Y2908510I0J75426D01*
G02X3796480Y2900810I6621J-7706D01*
G01Y2636410D01*
G03X3807650Y2609460I38117J8D01*
G01X4559060Y1858050D01*
G03X4586010Y1846880I26958J26947D01*
G01X4981070D01*
X4984910Y1843050D01*
G03X5011860Y1831880I26958J26947D01*
G01X5017660D01*
X5018970Y1828790D01*
G03X5116000Y1764580I97030J41208D01*
G03Y1975420I0J105420D01*
G03X5025370Y1923850I0J-105422D01*
G02X5012480Y1919770I-8734J5191D01*
G03X4996860Y1923120I-15626J-34769D01*
G01X4601800D01*
X4456380Y2068540D01*
G02X4463570Y2085880I7188J7180D01*
G01X5017710D01*
G03X5116000Y2018580I98290J38125D01*
G03Y2229420I0J105420D01*
G03X5017710Y2162120I0J-105425D01*
G01X4444790D01*
X4164440Y2442470D01*
G02X4172380Y2459790I7179J7189D01*
G03X4178000Y2459580I5624J75210D01*
G03X4234380Y2484900I0J75431D01*
G02X4249150Y2485340I7593J-6749D01*
G01X4261450Y2473050D01*
G03X4288400Y2461880I26958J26947D01*
G01X4474920D01*
G03X4540000Y2424580I65080J38125D01*
G03Y2575420I0J75420D01*
G03X4474920Y2538120I0J-75425D01*
G01X4304190D01*
X4280350Y2561950D01*
G03X4253400Y2573120I-26958J-26947D01*
G01X4243140D01*
X4241640Y2575470D01*
G03X4178000Y2610420I-63640J-40466D01*
G03X4102580Y2535000I0J-75420D01*
G03X4102790Y2529380I75420J4D01*
G02X4085470Y2521440I-10131J-761D01*
G01X3948120Y2658790D01*
Y2744920D01*
G03X3962820Y2756160I-38116J65082D01*
G02X3969960Y2756130I3555J-3627D01*
G01X4029600Y2696500D01*
G03X4056550Y2685330I26958J26947D01*
G01X4073010D01*
G03X4073830Y2685320I875J38109D01*
G01X4906770D01*
X5011840Y2580250D01*
Y2451260D01*
G03X5037260Y2425840I25420J0D01*
G01X5194740D01*
G03X5220160Y2451260I0J25420D01*
G01Y2608740D01*
G03X5194740Y2634160I-25420J0D01*
G01X5065750D01*
X4971370Y2728540D01*
G02X4978560Y2745880I7188J7180D01*
G01X5017710D01*
G03X5116000Y2678580I98290J38125D01*
G03Y2889420I0J105420D01*
G03X5017710Y2822120I0J-105425D01*
G01X4978560D01*
G02X4971370Y2839460I-2J10160D01*
G01X5073420Y2941510D01*
X5076530Y2940250D01*
G03X5116000Y2932580I39475J97749D01*
G03X5010580Y3038000I0J105420D01*
G03X5018250Y2998530I105419J5D01*
G01X5019510Y2995420D01*
X4861860Y2837770D01*
X4311170D01*
G02X4301530Y2851150I-3J10161D01*
G03X4305420Y2875050I-71529J23909D01*
G03X4275250Y2935390I-75425J0D01*
G02X4274160Y2950700I6095J8128D01*
G01X4286950Y2963500D01*
G03X4298120Y2990450I-26947J26958D01*
G01Y3273310D01*
G02X4316790Y3278850I10158J-4D01*
G03X4380000Y3244580I63210J41159D01*
G03X4396380Y3246380I0J75429D01*
G01X4399100Y3246990D01*
X4513050Y3133050D01*
G03X4540000Y3121880I26958J26947D01*
G01X4844920D01*
G03X4910000Y3084580I65080J38125D01*
G03Y3235420I0J75420D01*
G03X4844920Y3198120I0J-75425D01*
G01X4555790D01*
X4453010Y3300900D01*
X4453620Y3303620D01*
G03X4455420Y3320000I-73629J16380D01*
G03X4380000Y3395420I-75420J0D01*
G03X4364070Y3393720I-7J-75421D01*
G02X4354740Y3410830I-2142J9931D01*
G01X4450900Y3506990D01*
X4453620Y3506380D01*
G03X4470000Y3504580I16380J73629D01*
G03X4545420Y3580000I0J75420D01*
G03X4530090Y3625580I-75425J0D01*
G02X4538180Y3641880I8093J6141D01*
G01X4712210D01*
X5019510Y3334580D01*
X5018250Y3331470D01*
G03X5010580Y3292000I97749J-39475D01*
G03X5116000Y3397420I105420J0D01*
G03X5076530Y3389750I5J-105419D01*
G01X5073420Y3388490D01*
X4787370Y3674540D01*
G02X4794560Y3691880I7188J7180D01*
G01X4916210D01*
X5019510Y3588580D01*
X5018250Y3585470D01*
G03X5010580Y3546000I97749J-39475D01*
G03X5116000Y3651420I105420J0D01*
G03X5076530Y3643750I5J-105419D01*
G01X5073420Y3642490D01*
X4971370Y3744540D01*
G02X4978560Y3761880I7188J7180D01*
G01X5017710D01*
G03X5116000Y3694580I98290J38125D01*
G03Y3905420I0J105420D01*
G03X5017710Y3838120I0J-105425D01*
G01X4336560D01*
G02X4329370Y3855460I-2J10160D01*
G01X4997790Y4523880D01*
X5017710D01*
G03X5116000Y4456580I98290J38125D01*
G03Y4667420I0J105420D01*
G03X5045110Y4640030I0J-105433D01*
G02X5028120Y4647550I-6831J7519D01*
G01Y4730450D01*
G02X5045110Y4737970I10159J1D01*
G03X5116000Y4710580I70890J78043D01*
G03Y4921420I0J105420D01*
G03X5018970Y4857210I0J-105418D01*
G01X5017660Y4854120D01*
X5010600D01*
G03X4983650Y4842950I8J-38117D01*
G01X4963050Y4822350D01*
G03X4951880Y4795400I26947J-26958D01*
G01Y4654120D01*
X4945460Y4647700D01*
G02X4928120Y4654890I-7180J7188D01*
G01Y5013590D01*
G37*
G36*
G01X4086880Y3561850D02*
X4096210D01*
X4097710Y3559500D01*
G03X4161350Y3524550I63640J40466D01*
G03X4179520Y3526770I6J75421D01*
G01X4182310Y3527460D01*
X4187930Y3521840D01*
X4176370Y3510270D01*
G03X4165200Y3483320I26947J-26958D01*
G01Y3115430D01*
G02X4154440Y3105290I-10159J2D01*
G03X4150000Y3105420I-4426J-75290D01*
G03X4074580Y3030000I0J-75420D01*
G03X4084570Y2992480I75422J-8D01*
G02X4082680Y2985540I-4404J-2528D01*
G03X4074780Y2980360I37324J-65537D01*
G01X4071260Y2977720D01*
X4012350Y3036620D01*
G03X3985400Y3047790I-26958J-26947D01*
G01X3975140D01*
X3973640Y3050140D01*
G03X3910000Y3085090I-63640J-40466D01*
G03X3856060Y3062380I0J-75413D01*
G02X3841600Y3062290I-7274J7097D01*
G01X3835840Y3068050D01*
G03X3808890Y3079220I-26958J-26947D01*
G01X3778680D01*
X3776990Y3080910D01*
G02X3780580Y3089580I3594J3590D01*
G01X3871640D01*
G03X3897060Y3115000I0J25420D01*
G01Y3245000D01*
G03X3871640Y3270420I-25420J0D01*
G01X3845030D01*
X3844490Y3274900D01*
G03X3833590Y3297350I-37849J-4506D01*
G01X3781480Y3349460D01*
G03X3754530Y3360630I-26958J-26947D01*
G01X3398080D01*
G02X3390890Y3377970I-2J10160D01*
G01X3487560Y3474640D01*
G02X3504870Y3466570I7188J-7181D01*
G03X3504580Y3460000I75128J-6608D01*
G03X3655420I75420J0D01*
G03X3626500Y3519380I-75421J0D01*
G02X3625580Y3534570I6260J8002D01*
G01X3652860Y3561850D01*
X3686690D01*
G02X3696670Y3549780I3J-10159D01*
G03X3696220Y3545000I24972J-4762D01*
G01Y3415000D01*
G03X3721640Y3389580I25420J0D01*
G01X3851640D01*
G03X3877060Y3415000I0J25420D01*
G01Y3545000D01*
G03X3876610Y3549780I-25422J18D01*
G02X3886590Y3561850I9977J1911D01*
G01X3913120D01*
G02X3922840Y3548720I3J-10161D01*
G03X3922280Y3545000I12158J-3732D01*
G01Y3415000D01*
G03X3935000Y3402280I12720J0D01*
G01X4065000D01*
G03X4077720Y3415000I0J12720D01*
G01Y3545000D01*
G03X4077160Y3548720I-12718J-12D01*
G02X4086880Y3561850I9717J2969D01*
G37*
G36*
G01X3998120Y4964210D02*
X4139560Y5105650D01*
G02X4156900Y5098460I7180J-7188D01*
G01Y4980420D01*
X4110000D01*
G03X4084580Y4955000I0J-25420D01*
G01Y4725000D01*
G03X4091880Y4707170I25425J0D01*
G01Y4545540D01*
G03X4103050Y4518590I38117J8D01*
G01X4126190Y4495440D01*
G02X4122610Y4478760I-7187J-7182D01*
G03X4106220Y4455000I9027J-23760D01*
G01Y4325000D01*
G03X4131640Y4299580I25420J0D01*
G01X4158520D01*
Y4223360D01*
G03X4169690Y4196410I38117J8D01*
G01X4186990Y4179100D01*
X4186380Y4176380D01*
G03X4184580Y4160000I73629J-16380D01*
G03X4189950Y4132050I75423J0D01*
G02X4180520Y4118120I-9434J-3770D01*
G01X4155080D01*
G03X4090000Y4155420I-65080J-38125D01*
G03Y4004580I0J-75420D01*
G03X4094050Y4004690I-22J75419D01*
G02X4104730Y3995190I542J-10144D01*
G03X4127750Y3945610I75268J4813D01*
G02X4120720Y3928120I-7034J-7331D01*
G01X3667800D01*
G02X3660610Y3945460I-2J10160D01*
G01X3778490Y4063340D01*
X3779860Y4063680D01*
G03X3797630Y4073730I-9194J36992D01*
G01X3804900Y4080990D01*
X3807620Y4080380D01*
G03X3824000Y4078580I16380J73629D01*
G03X3899420Y4154000I0J75420D01*
G03X3852360Y4223890I-75428J0D01*
G02X3848990Y4240480I3819J9413D01*
G01X3986950Y4378450D01*
G03X3998120Y4405400I-26947J26958D01*
G01Y4964210D01*
G37*
G36*
G01X3960420Y1532880D02*
X4063210D01*
X4500630Y1095460D01*
G02X4493440Y1078120I-7188J-7180D01*
G01X4485780D01*
X4180260Y1383630D01*
G03X4153310Y1394800I-26958J-26947D01*
G01X3960420D01*
Y1532880D01*
G37*
G36*
G01X4084580Y5459750D02*
Y5430800D01*
G03X4130000Y5385380I45420J0D01*
G03X4159240Y5396040I0J45432D01*
G02X4165780I3270J-3884D01*
G03X4195020Y5385380I29240J34772D01*
G03X4214650Y5389840I0J45429D01*
G01X4215700Y5390340D01*
X4221930D01*
Y5375850D01*
X3883050Y5036960D01*
G03X3871880Y5010010I26947J-26958D01*
G01Y4758430D01*
G02X3857660Y4749120I-10159J2D01*
G03X3827480Y4755420I-30176J-69121D01*
G03X3803580Y4751530I9J-75419D01*
G02X3790200Y4761170I-3219J9637D01*
G01Y5006290D01*
X3963460Y5179560D01*
G03X3974630Y5206510I-26947J26958D01*
G01Y5447800D01*
G02X3988970Y5457060I10160J0D01*
G03X4020000Y5450380I31030J68730D01*
G03X4067960Y5467590I0J75431D01*
G02X4084580Y5459750I6461J-7839D01*
G37*
G36*
G01X4775000Y5109580D02*
G03X4791230Y5115440I-5J25418D01*
G02X4807880Y5107620I6489J-7819D01*
G01Y4635680D01*
X4517760Y4345560D01*
G02X4500420Y4352750I-7180J7188D01*
G01Y4455000D01*
G03X4475000Y4480420I-25420J0D01*
G01X4457920D01*
Y4540550D01*
G03X4443880Y4574430I-47917J-8D01*
G01X4323070Y4695250D01*
G02X4329020Y4712520I7183J7185D01*
G03X4357790Y4745000I-3949J32480D01*
G01Y4935000D01*
G03X4325070Y4967720I-32720J0D01*
G03X4319770Y4967290I-13J-32721D01*
G02X4307970Y4977310I-1641J10026D01*
G01Y4990200D01*
X4379850Y5062080D01*
X4620000D01*
G03X4621750Y5062110I54J47921D01*
G02X4632280Y5051820I372J-10152D01*
G01Y4921640D01*
G03X4645000Y4908920I12720J0D01*
G01X4775000D01*
G03X4787720Y4921640I0J12720D01*
G01Y5051640D01*
G03X4775000Y5064360I-12720J0D01*
G01X4666660D01*
G02X4659470Y5081700I-3J10159D01*
G01X4687350Y5109580D01*
X4775000D01*
G37*
G36*
G01X4604390Y5864580D02*
X4654610D01*
X4655150Y5860100D01*
G03X4666050Y5837650I37849J4506D01*
G01X4671880Y5831810D01*
Y5770420D01*
X4645000D01*
G03X4619580Y5745000I0J-25420D01*
G01Y5615000D01*
G03X4645000Y5589580I25420J0D01*
G01X4746510D01*
X4761690Y5574400D01*
G02X4754500Y5557060I-7188J-7180D01*
G01X4645000D01*
G03X4619580Y5531640I0J-25420D01*
G01Y5401640D01*
G03X4632080Y5379750I25417J0D01*
G01X4634580Y5378270D01*
Y5288370D01*
X4632080Y5286890D01*
G03X4619580Y5265000I12917J-21890D01*
G01Y5177350D01*
X4600150Y5157920D01*
X4360000D01*
G03X4326120Y5143880I8J-47917D01*
G01X4250480Y5068250D01*
G02X4233140Y5075440I-7181J7187D01*
G01Y5116230D01*
X4465950Y5349050D01*
G03X4477120Y5376000I-26947J26958D01*
G01Y5404920D01*
G03X4514420Y5470000I-38125J65080D01*
G03X4502340Y5510950I-75422J8D01*
G02X4506480Y5525620I8531J5512D01*
G03X4516950Y5533050I-16511J34358D01*
G01X4576950Y5593050D01*
G03X4588120Y5620000I-26947J26958D01*
G01Y5832810D01*
X4592950Y5837650D01*
G03X4603850Y5860100I-26949J26956D01*
G01X4604390Y5864580D01*
G37*
G36*
G01X3974630Y6410720D02*
X4222660Y6658750D01*
G02X4240000Y6651560I7180J-7188D01*
G01Y6102790D01*
X4239430Y6101700D01*
G03X4236580Y6090000I22571J-11695D01*
G01Y6067020D01*
G02X4220850Y6058520I-10161J0D01*
G03X4199960Y6064760I-20899J-31877D01*
G01X4180420D01*
Y6091640D01*
G03X4155000Y6117060I-25420J0D01*
G01X4025000D01*
G03X3999580Y6091640I0J-25420D01*
G01Y5961640D01*
G03X4025000Y5936220I25420J0D01*
G01X4155000D01*
G03X4180420Y5961640I0J25420D01*
G01Y5967740D01*
G02X4197760Y5974930I10160J2D01*
G01X4209650Y5963050D01*
G03X4232100Y5952150I26956J26949D01*
G01X4236580Y5951610D01*
Y5890000D01*
G03X4246750Y5869660I25425J0D01*
G02X4247840Y5854350I-6095J-8128D01*
G01X4233100Y5839600D01*
G03X4221930Y5812650I26947J-26958D01*
G01Y5673800D01*
G02X4208710Y5664110I-10159J-3D01*
G03X4195020Y5666220I-13683J-43311D01*
G03X4165780Y5655560I0J-45432D01*
G02X4159240I-3270J3884D01*
G03X4130000Y5666220I-29240J-34772D01*
G03X4084580Y5620800I0J-45420D01*
G01Y5591850D01*
G02X4067960Y5584010I-10159J-1D01*
G03X4020000Y5601220I-47960J-58221D01*
G03X3988970Y5594540I0J-75410D01*
G02X3974630Y5603800I-4180J9260D01*
G01Y6410720D01*
G37*
G36*
G01X4350390Y5864580D02*
X4400880D01*
Y5746400D01*
G03X4410730Y5720830I38114J0D01*
G02X4409940Y5706410I-7532J-6819D01*
G03X4384580Y5650000I50058J-56410D01*
G03X4395900Y5610260I75416J0D01*
G02X4390990Y5595460I-8636J-5349D01*
G03X4385770Y5592920I14021J-35450D01*
G02X4370490Y5601700I-5120J8775D01*
G01Y5620800D01*
G03X4325070Y5666220I-45420J0D01*
G03X4311390Y5664110I3J-45420D01*
G02X4298170Y5673800I-3060J9688D01*
G01Y5796860D01*
X4338950Y5837650D01*
G03X4349850Y5860100I-26949J26956D01*
G01X4350390Y5864580D01*
G37*
G36*
G01X5078450Y5540000D02*
X5400000D01*
Y0D01*
X4894020D01*
Y113030D01*
G02X4911720Y119840I10160J0D01*
G03X4913050Y118450I28197J25649D01*
G01X4938450Y93050D01*
G03X4965400Y81880I26958J26947D01*
G01X5264600D01*
G03X5291550Y93050I-8J38117D01*
G01X5316950Y118450D01*
G03X5328120Y145400I-26947J26958D01*
G01Y4900000D01*
G03X5316950Y4926950I-38117J-8D01*
G01X5247370Y4996530D01*
G03X5220420Y5007700I-26958J-26947D01*
G01X5164800D01*
Y5019580D01*
X5298360D01*
G03X5323780Y5045000I0J25420D01*
G01Y5175000D01*
G03X5298360Y5200420I-25420J0D01*
G01X5207660D01*
G02X5197630Y5212210I-3J10159D01*
G03X5198120Y5218320I-37631J6093D01*
G01Y5309580D01*
X5225000D01*
G03X5250420Y5335000I0J25420D01*
G01Y5465000D01*
G03X5225000Y5490420I-25420J0D01*
G01X5091480D01*
X5090640Y5494460D01*
G03X5080270Y5513640I-37315J-7782D01*
G01X5071260Y5522660D01*
G02X5078450Y5540000I7188J7180D01*
G37*
%LPC*%
G75*
G36*
G01X2630000Y4940420D02*
X2790000D01*
G02X2813650Y4924300I0J-25409D01*
G01X2816240Y4924270D01*
G02X2870090Y4900800I-840J-75440D01*
G01X2915830Y4855060D01*
G02X2937470Y4809950I-53331J-53329D01*
G01X2937970Y4805420D01*
X2961100D01*
G02X2997510Y4796050I0J-75426D01*
G01X2998650Y4795420D01*
X3011100D01*
G02X3036520Y4770000I0J-25420D01*
G01Y4690000D01*
G02X3011100Y4664580I-25420J0D01*
G01X2998650D01*
X2997510Y4663950D01*
G02X2961100Y4654580I-36410J66056D01*
G01X2887900D01*
G02X2834570Y4676670I0J75420D01*
G01X2809170Y4702070D01*
G02X2787080Y4754560I53327J53335D01*
G01X2787030Y4759580D01*
X2630000D01*
G02X2604580Y4785000I0J25420D01*
G01Y4915000D01*
G02X2630000Y4940420I25420J0D01*
G37*
G36*
G01X1925000Y5170420D02*
X2055000D01*
G02X2076890Y5157920I0J-25417D01*
G01X2078370Y5155420D01*
X2164600D01*
G02X2198200Y5147520I-4J-75421D01*
G02X2209980Y5150420I11791J-22522D01*
G01X2370000D01*
G02X2395420Y5125000I0J-25420D01*
G01Y4995000D01*
G02X2370000Y4969580I-25420J0D01*
G01X2210000D01*
G02X2186820Y4984560I0J25424D01*
G01X2184590D01*
G02X2133410Y5004580I0J75429D01*
G01X2078370D01*
X2076890Y5002080D01*
G02X2055000Y4989580I-21890J12917D01*
G01X1925000D01*
G02X1899580Y5015000I0J25420D01*
G01Y5145000D01*
G02X1925000Y5170420I25420J0D01*
G37*
G36*
G01X4072280Y7815000D02*
Y7945000D01*
G02X4085000Y7957720I12720J0D01*
G01X4215000D01*
G02X4227720Y7945000I0J-12720D01*
G01Y7815000D01*
G02X4215000Y7802280I-12720J0D01*
G01X4085000D01*
G02X4072280Y7815000I0J12720D01*
G37*
G36*
G01X3662280Y7772900D02*
Y7932900D01*
G02X3675000Y7945620I12720J0D01*
G01X3925000D01*
G02X3937720Y7932900I0J-12720D01*
G01Y7772900D01*
G02X3925000Y7760180I-12720J0D01*
G01X3675000D01*
G02X3662280Y7772900I0J12720D01*
G37*
G36*
G01X1855020Y7688910D02*
X1854150Y7808910D01*
G02X1879380Y7834510I25419J181D01*
G01X2129380Y7836330D01*
G02X2154980Y7811090I179J-25421D01*
G01X2155850Y7691090D01*
G02X2130620Y7665490I-25419J-181D01*
G01X1880620Y7663670D01*
G02X1855020Y7688910I-179J25421D01*
G37*
G36*
G01X1305020D02*
X1304150Y7808910D01*
G02X1329380Y7834510I25419J181D01*
G01X1579380Y7836330D01*
G02X1604980Y7811090I179J-25421D01*
G01X1605850Y7691090D01*
G02X1580620Y7665490I-25419J-181D01*
G01X1330620Y7663670D01*
G02X1305020Y7688910I-179J25421D01*
G37*
G36*
G01X582280Y7782900D02*
Y7942900D01*
G02X595000Y7955620I12720J0D01*
G01X845000D01*
G02X857720Y7942900I0J-12720D01*
G01Y7782900D01*
G02X845000Y7770180I-12720J0D01*
G01X595000D01*
G02X582280Y7782900I0J12720D01*
G37*
G36*
G01X2669580Y6975000D02*
Y7105000D01*
G02X2695000Y7130420I25420J0D01*
G01X2825000D01*
G02X2850420Y7105000I0J-25420D01*
G01Y6975000D01*
G02X2825000Y6949580I-25420J0D01*
G01X2695000D01*
G02X2669580Y6975000I0J25420D01*
G37*
G36*
G01X2997280Y7120000D02*
Y7240000D01*
G02X3010000Y7252720I12720J0D01*
G01X3230000D01*
G02X3242720Y7240000I0J-12720D01*
G01Y7120000D01*
G02X3230000Y7107280I-12720J0D01*
G01X3010000D01*
G02X2997280Y7120000I0J12720D01*
G37*
G36*
G01X2833800Y7371100D02*
Y7471100D01*
G02X2846520Y7483820I12720J0D01*
G01X2926520D01*
G02X2939240Y7471100I0J-12720D01*
G01Y7371100D01*
G02X2926520Y7358380I-12720J0D01*
G01X2846520D01*
G02X2833800Y7371100I0J12720D01*
G37*
G36*
G01X2282280Y7107100D02*
Y7267100D01*
G02X2295000Y7279820I12720J0D01*
G01X2545000D01*
G02X2557720Y7267100I0J-12720D01*
G01Y7107100D01*
G02X2545000Y7094380I-12720J0D01*
G01X2295000D01*
G02X2282280Y7107100I0J12720D01*
G37*
G36*
G01X3599580Y6776000D02*
Y7136000D01*
G02X3625000Y7161420I25420J0D01*
G01X3845000D01*
G02X3870420Y7136000I0J-25420D01*
G01Y6776000D01*
G02X3845000Y6750580I-25420J0D01*
G01X3625000D01*
G02X3599580Y6776000I0J25420D01*
G37*
G36*
G01X3590180Y6275000D02*
Y6525000D01*
G02X3602900Y6537720I12720J0D01*
G01X3762900D01*
G02X3775620Y6525000I0J-12720D01*
G01Y6275000D01*
G02X3762900Y6262280I-12720J0D01*
G01X3602900D01*
G02X3590180Y6275000I0J12720D01*
G37*
G36*
G01X1480180Y6685000D02*
Y6935000D01*
G02X1492900Y6947720I12720J0D01*
G01X1652900D01*
G02X1665620Y6935000I0J-12720D01*
G01Y6685000D01*
G02X1652900Y6672280I-12720J0D01*
G01X1492900D01*
G02X1480180Y6685000I0J12720D01*
G37*
G36*
G01X564780Y6800000D02*
Y6940000D01*
G02X577500Y6952720I12720J0D01*
G01X717500D01*
G02X730220Y6940000I0J-12720D01*
G01Y6800000D01*
G02X717500Y6787280I-12720J0D01*
G01X577500D01*
G02X564780Y6800000I0J12720D01*
G37*
G36*
G01X3642280Y5710000D02*
Y5830000D01*
G02X3655000Y5842720I12720J0D01*
G01X3845000D01*
G02X3857720Y5830000I0J-12720D01*
G01Y5710000D01*
G02X3845000Y5697280I-12720J0D01*
G01X3655000D01*
G02X3642280Y5710000I0J12720D01*
G37*
G36*
G01X3452280Y5985000D02*
Y6115000D01*
G02X3465000Y6127720I12720J0D01*
G01X3595000D01*
G02X3607720Y6115000I0J-12720D01*
G01Y5985000D01*
G02X3595000Y5972280I-12720J0D01*
G01X3465000D01*
G02X3452280Y5985000I0J12720D01*
G37*
G36*
G01X2062280Y6145000D02*
Y6275000D01*
G02X2075000Y6287720I12720J0D01*
G01X2205000D01*
G02X2217720Y6275000I0J-12720D01*
G01Y6145000D01*
G02X2205000Y6132280I-12720J0D01*
G01X2075000D01*
G02X2062280Y6145000I0J12720D01*
G37*
G36*
G01X1712280Y5925000D02*
Y6055000D01*
G02X1725000Y6067720I12720J0D01*
G01X1855000D01*
G02X1867720Y6055000I0J-12720D01*
G01Y5925000D01*
G02X1855000Y5912280I-12720J0D01*
G01X1725000D01*
G02X1712280Y5925000I0J12720D01*
G37*
G36*
G01X752280Y6005000D02*
Y6135000D01*
G02X765000Y6147720I12720J0D01*
G01X895000D01*
G02X907720Y6135000I0J-12720D01*
G01Y6005000D01*
G02X895000Y5992280I-12720J0D01*
G01X765000D01*
G02X752280Y6005000I0J12720D01*
G37*
G36*
G01X172280Y5680000D02*
Y5910000D01*
G02X185000Y5922720I12720J0D01*
G01X375000D01*
G02X387720Y5910000I0J-12720D01*
G01Y5680000D01*
G02X375000Y5667280I-12720J0D01*
G01X185000D01*
G02X172280Y5680000I0J12720D01*
G37*
G36*
G01X3076180Y5126520D02*
Y5206520D01*
G02X3088900Y5219240I12720J0D01*
G01X3188900D01*
G02X3201620Y5206520I0J-12720D01*
G01Y5126520D01*
G02X3188900Y5113800I-12720J0D01*
G01X3088900D01*
G02X3076180Y5126520I0J12720D01*
G37*
G36*
G01Y5456520D02*
Y5536520D01*
G02X3088900Y5549240I12720J0D01*
G01X3188900D01*
G02X3201620Y5536520I0J-12720D01*
G01Y5456520D01*
G02X3188900Y5443800I-12720J0D01*
G01X3088900D01*
G02X3076180Y5456520I0J12720D01*
G37*
G36*
G01X172280Y5445000D02*
Y5635000D01*
G02X185000Y5647720I12720J0D01*
G01X375000D01*
G02X387720Y5635000I0J-12720D01*
G01Y5445000D01*
G02X375000Y5432280I-12720J0D01*
G01X185000D01*
G02X172280Y5445000I0J12720D01*
G37*
G36*
G01Y5205000D02*
Y5395000D01*
G02X185000Y5407720I12720J0D01*
G01X375000D01*
G02X387720Y5395000I0J-12720D01*
G01Y5205000D01*
G02X375000Y5192280I-12720J0D01*
G01X185000D01*
G02X172280Y5205000I0J12720D01*
G37*
G36*
G01X3076180Y4786520D02*
Y4866520D01*
G02X3088900Y4879240I12720J0D01*
G01X3188900D01*
G02X3201620Y4866520I0J-12720D01*
G01Y4786520D01*
G02X3188900Y4773800I-12720J0D01*
G01X3088900D01*
G02X3076180Y4786520I0J12720D01*
G37*
G36*
G01X1011780Y4679950D02*
Y4809950D01*
G02X1024500Y4822670I12720J0D01*
G01X1244500D01*
G02X1257220Y4809950I0J-12720D01*
G01Y4679950D01*
G02X1244500Y4667230I-12720J0D01*
G01X1024500D01*
G02X1011780Y4679950I0J12720D01*
G37*
G36*
G01X116430Y4673600D02*
Y4803600D01*
G02X129150Y4816320I12720J0D01*
G01X349150D01*
G02X361870Y4803600I0J-12720D01*
G01Y4673600D01*
G02X349150Y4660880I-12720J0D01*
G01X129150D01*
G02X116430Y4673600I0J12720D01*
G37*
G36*
G01X172280Y4930000D02*
Y5160000D01*
G02X185000Y5172720I12720J0D01*
G01X375000D01*
G02X387720Y5160000I0J-12720D01*
G01Y4930000D01*
G02X375000Y4917280I-12720J0D01*
G01X185000D01*
G02X172280Y4930000I0J12720D01*
G37*
G36*
G01X2555640Y4105000D02*
Y4235000D01*
G02X2568360Y4247720I12720J0D01*
G01X2698360D01*
G02X2711080Y4235000I0J-12720D01*
G01Y4105000D01*
G02X2698360Y4092280I-12720J0D01*
G01X2568360D01*
G02X2555640Y4105000I0J12720D01*
G37*
G36*
G01X882280Y3845000D02*
Y3975000D01*
G02X895000Y3987720I12720J0D01*
G01X1025000D01*
G02X1037720Y3975000I0J-12720D01*
G01Y3845000D01*
G02X1025000Y3832280I-12720J0D01*
G01X895000D01*
G02X882280Y3845000I0J12720D01*
G37*
G36*
G01X185840Y3823260D02*
Y3980740D01*
G02X211260Y4006160I25420J0D01*
G01X368740D01*
G02X394160Y3980740I0J-25420D01*
G01Y3823260D01*
G02X368740Y3797840I-25420J0D01*
G01X211260D01*
G02X185840Y3823260I0J25420D01*
G37*
G36*
G01X1322280Y1925000D02*
Y2055000D01*
G02X1335000Y2067720I12720J0D01*
G01X1465000D01*
G02X1477720Y2055000I0J-12720D01*
G01Y1925000D01*
G02X1465000Y1912280I-12720J0D01*
G01X1335000D01*
G02X1322280Y1925000I0J12720D01*
G37*
G36*
G01X1428920Y1665000D02*
Y1795000D01*
G02X1441640Y1807720I12720J0D01*
G01X1571640D01*
G02X1584360Y1795000I0J-12720D01*
G01Y1665000D01*
G02X1571640Y1652280I-12720J0D01*
G01X1441640D01*
G02X1428920Y1665000I0J12720D01*
G37*
G36*
G01X1080780Y1350500D02*
Y1570500D01*
G02X1093500Y1583220I12720J0D01*
G01X1223500D01*
G02X1236220Y1570500I0J-12720D01*
G01Y1350500D01*
G02X1223500Y1337780I-12720J0D01*
G01X1093500D01*
G02X1080780Y1350500I0J12720D01*
G37*
G36*
G01X1037230Y1709150D02*
Y1929150D01*
G02X1049950Y1941870I12720J0D01*
G01X1179950D01*
G02X1192670Y1929150I0J-12720D01*
G01Y1709150D01*
G02X1179950Y1696430I-12720J0D01*
G01X1049950D01*
G02X1037230Y1709150I0J12720D01*
G37*
G36*
G01X185840Y1537260D02*
Y1694740D01*
G02X211260Y1720160I25420J0D01*
G01X368740D01*
G02X394160Y1694740I0J-25420D01*
G01Y1654120D01*
X614000D01*
G02X640950Y1642950I-8J-38117D01*
G01X975790Y1308120D01*
X1394920D01*
G02X1460000Y1345420I65080J-38125D01*
G02Y1194580I0J-75420D01*
G02X1394920Y1231880I0J75425D01*
G01X960000D01*
G02X933050Y1243050I8J38117D01*
G01X598210Y1577880D01*
X394160D01*
Y1537260D01*
G02X368740Y1511840I-25420J0D01*
G01X211260D01*
G02X185840Y1537260I0J25420D01*
G37*
G36*
G01X871880Y1755080D02*
Y1894920D01*
G02X834580Y1960000I38125J65080D01*
G02X985420I75420J0D01*
G02X948120Y1894920I-75425J0D01*
G01Y1755080D01*
G02X985420Y1690000I-38125J-65080D01*
G02X834580I-75420J0D01*
G02X871880Y1755080I75425J0D01*
G37*
G36*
G01X1214440Y1994710D02*
G02X1210030Y1994580I-4426J75290D01*
G01X1210000D01*
G02X1285420Y2070000I0J75420D01*
G02X1283620Y2053620I-75429J0D01*
G01X1283010Y2050900D01*
X1290270Y2043630D01*
G02X1301440Y2016680I-26947J-26958D01*
G01Y1797870D01*
X1326950Y1772350D01*
G02X1338120Y1745400I-26947J-26958D01*
G01Y1735140D01*
X1340470Y1733640D01*
G02X1375420Y1670000I-40466J-63640D01*
G02X1224580I-75420J0D01*
G02X1249900Y1726380I75431J0D01*
G03X1250340Y1741150I-6749J7593D01*
G01X1236370Y1755130D01*
G02X1225200Y1782080I26947J26958D01*
G01Y1984570D01*
G03X1214440Y1994710I-10159J-2D01*
G37*
G36*
G01X395400Y3355880D02*
X388340D01*
X387030Y3352790D01*
G02X290000Y3288580I-97030J41208D01*
G02X213000Y3322000I0J105414D01*
G03X195420Y3315060I-7420J-6941D01*
G01Y3271240D01*
X236030Y3230630D01*
X239370Y3232460D01*
G02X290000Y3245420I50640J-92457D01*
G02Y3034580I0J-105420D01*
G02X216250Y3064670I0J105425D01*
G02X166670Y3086670I3754J75328D01*
G01X66670Y3186670D01*
G02X44580Y3240000I53330J53330D01*
G01Y3548000D01*
G02X66670Y3601330I75420J0D01*
G01X166670Y3701330D01*
G02X216250Y3723330I53334J-53328D01*
G02X290000Y3753420I73750J-75335D01*
G02Y3542580I0J-105420D01*
G02X239370Y3555540I10J105417D01*
G01X236030Y3557370D01*
X195420Y3516760D01*
Y3472940D01*
G03X213000Y3466000I10160J1D01*
G02X290000Y3499420I77000J-71994D01*
G02X387980Y3432890I0J-105414D01*
G01X469880D01*
Y3671240D01*
G02X481050Y3698190I38117J-8D01*
G01X506450Y3723590D01*
G02X533400Y3734760I26958J-26947D01*
G01X869580D01*
Y3761640D01*
G02X895000Y3787060I25420J0D01*
G01X1025000D01*
G02X1050420Y3761640I0J-25420D01*
G01Y3631640D01*
G02X1025000Y3606220I-25420J0D01*
G01X895000D01*
G02X869580Y3631640I0J25420D01*
G01Y3658520D01*
X549190D01*
X546120Y3655450D01*
Y2850970D01*
G03X563070Y2843410I10161J1D01*
G02X580050Y2849920I16987J-18907D01*
G01X710050D01*
G02X735470Y2824500I0J-25420D01*
G01Y2604500D01*
G02X710050Y2579080I-25420J0D01*
G01X683170D01*
Y1976110D01*
G02X689300Y1959110I-31773J-21062D01*
G01X689790Y1954570D01*
X716400D01*
G02X741820Y1929150I0J-25420D01*
G01Y1709150D01*
G02X716400Y1683730I-25420J0D01*
G01X586400D01*
G02X560980Y1709150I0J25420D01*
G01Y1929150D01*
G02X586400Y1954570I25420J0D01*
G01X606930D01*
Y2579080D01*
X580050D01*
G02X554630Y2604500I0J25420D01*
G01Y2676380D01*
X533400D01*
G02X506450Y2687550I8J38117D01*
G01X481050Y2712950D01*
G02X469880Y2739900I26947J26958D01*
G01Y3356650D01*
X403040D01*
X402570Y3356560D01*
G02X395400Y3355880I-7168J37440D01*
G37*
G36*
G01X2210000Y4940420D02*
X2370000D01*
G02X2395420Y4915000I0J-25420D01*
G01Y4785000D01*
G02X2370000Y4759580I-25420J0D01*
G01X2210000D01*
G02X2188110Y4772080I0J25417D01*
G01X2186630Y4774580D01*
X2078370D01*
X2076890Y4772080D01*
G02X2055000Y4759580I-21890J12917D01*
G01X1925000D01*
G02X1899580Y4785000I0J25420D01*
G01Y4915000D01*
G02X1925000Y4940420I25420J0D01*
G01X2055000D01*
G02X2076890Y4927920I0J-25417D01*
G01X2078370Y4925420D01*
X2186630D01*
X2188110Y4927920D01*
G02X2210000Y4940420I21890J-12917D01*
G37*
G36*
G01X2604580Y4995000D02*
Y5125000D01*
G02X2630000Y5150420I25420J0D01*
G01X2790000D01*
G02X2811890Y5137920I0J-25417D01*
G01X2813370Y5135420D01*
X2872770D01*
G02X2910300Y5145420I37530J-65425D01*
G01X2961100D01*
G02X2997510Y5136050I0J-75426D01*
G01X2998650Y5135420D01*
X3011100D01*
G02X3036520Y5110000I0J-25420D01*
G01Y5030000D01*
G02X3011100Y5004580I-25420J0D01*
G01X2998650D01*
X2997510Y5003950D01*
G02X2961100Y4994580I-36410J66056D01*
G01X2937850D01*
X2936710Y4993950D01*
G02X2900300Y4984580I-36410J66056D01*
G01X2813370D01*
X2811890Y4982080D01*
G02X2790000Y4969580I-21890J12917D01*
G01X2630000D01*
G02X2604580Y4995000I0J25420D01*
G37*
G36*
G01X3319580Y5501640D02*
Y5631640D01*
G02X3345000Y5657060I25420J0D01*
G01X3475000D01*
G02X3496890Y5644560I0J-25417D01*
G01X3498370Y5642060D01*
X3570770D01*
X3571410Y5642230D01*
G02X3590780Y5644760I19370J-72885D01*
G01X3634790D01*
G02X3655000Y5654760I20210J-15422D01*
G01X3845000D01*
G02X3870420Y5629340I0J-25420D01*
G01Y5509340D01*
G02X3845000Y5483920I-25420J0D01*
G01X3655000D01*
G02X3634790Y5493920I0J25422D01*
G01X3608090D01*
X3607450Y5493750D01*
G02X3588080Y5491220I-19370J72885D01*
G01X3498370D01*
X3496890Y5488720D01*
G02X3475000Y5476220I-21890J12917D01*
G01X3345000D01*
G02X3319580Y5501640I0J25420D01*
G37*
G36*
G01X1054580Y5985000D02*
Y6115000D01*
G02X1080000Y6140420I25420J0D01*
G01X1300000D01*
G02X1325420Y6115000I0J-25420D01*
G01Y5985000D01*
G02X1300000Y5959580I-25420J0D01*
G01X1245420D01*
Y5820000D01*
G02X1094580I-75420J0D01*
G01Y5959580D01*
X1080000D01*
G02X1054580Y5985000I0J25420D01*
G37*
G36*
G01X814210Y5381880D02*
X756560D01*
G03X749370Y5364540I-2J-10160D01*
G01X836950Y5276950D01*
G02X848120Y5250000I-26947J-26958D01*
G01Y5165790D01*
X865790Y5148120D01*
X979580D01*
Y5175000D01*
G02X1005000Y5200420I25420J0D01*
G01X1135000D01*
G02X1160420Y5175000I0J-25420D01*
G01Y5045000D01*
G02X1135000Y5019580I-25420J0D01*
G01X1005000D01*
G02X979580Y5045000I0J25420D01*
G01Y5071880D01*
X850000D01*
G02X823050Y5083050I8J38117D01*
G01X783050Y5123050D01*
G02X771880Y5150000I26947J26958D01*
G01Y5234210D01*
X689210Y5316880D01*
X667830D01*
G02X662410Y5312810I-17839J18112D01*
G02X662720Y5310000I-12412J-2791D01*
G01Y5270000D01*
G02X650000Y5257280I-12720J0D01*
G01X480000D01*
G02X467280Y5270000I0J12720D01*
G01Y5312990D01*
G02X454580Y5335000I12722J22010D01*
G01Y5375000D01*
G02X457870Y5387500I25418J-7D01*
G02X454580Y5400000I22128J12507D01*
G01Y5440000D01*
G02X457870Y5452500I25418J-7D01*
G02X454580Y5465000I22128J12507D01*
G01Y5505000D01*
G02X457870Y5517500I25418J-7D01*
G02X454580Y5530000I22128J12507D01*
G01Y5570000D01*
G02X480000Y5595420I25420J0D01*
G01X527080D01*
Y5825140D01*
X390890Y5961330D01*
X218240D01*
X213580Y5956670D01*
G02X160250Y5934580I-53330J53330D01*
G02X84830Y6010000I0J75420D01*
G02X106920Y6063330I75420J0D01*
G01X111420Y6067830D01*
G02X115090Y6071270I53385J-53277D01*
G01X116830Y6072790D01*
Y6088970D01*
G02X109230Y6107130I17822J18129D01*
G01X109430Y6237130D01*
G02X134880Y6262510I25417J-37D01*
G01X194880Y6262430D01*
G02X220270Y6236970I-33J-25423D01*
G01X220070Y6106970D01*
G02X212670Y6089070I-25419J29D01*
G01Y6072790D01*
X214410Y6071270D01*
G02X226940Y6057170I-49671J-56758D01*
G01X410740D01*
G02X444620Y6043130I-8J-47917D01*
G01X608880Y5878870D01*
G02X622920Y5844990I-33877J-33888D01*
G01Y5595420D01*
X650000D01*
G02X675420Y5570000I0J-25420D01*
G01Y5523120D01*
X799210D01*
X893050Y5616950D01*
G02X920000Y5628120I26958J-26947D01*
G01X979580D01*
Y5655000D01*
G02X1005000Y5680420I25420J0D01*
G01X1135000D01*
G02X1160420Y5655000I0J-25420D01*
G01Y5525000D01*
G02X1135000Y5499580I-25420J0D01*
G01X1005000D01*
G02X979580Y5525000I0J25420D01*
G01Y5551880D01*
X935790D01*
X850590Y5466680D01*
G03X851930Y5451180I7181J-7187D01*
G02X856950Y5446950I-21960J-31155D01*
G01X915790Y5388120D01*
X979580D01*
Y5415000D01*
G02X1005000Y5440420I25420J0D01*
G01X1135000D01*
G02X1160420Y5415000I0J-25420D01*
G01Y5285000D01*
G02X1135000Y5259580I-25420J0D01*
G01X1005000D01*
G02X979580Y5285000I0J25420D01*
G01Y5311880D01*
X900000D01*
G02X873050Y5323050I8J38117D01*
G01X814210Y5381880D01*
G37*
G36*
G01X299160Y6205720D02*
X299880Y6206920D01*
X299930Y6237130D01*
G02X325380Y6262510I25417J-37D01*
G01X385380Y6262430D01*
G02X410350Y6241560I-40J-25420D01*
G01X411110Y6237390D01*
X561140Y6237180D01*
G02X607380Y6217950I-88J-65420D01*
G01X664740Y6160420D01*
X681640D01*
G02X707060Y6135000I0J-25420D01*
G01Y6005000D01*
G02X681640Y5979580I-25420J0D01*
G01X551640D01*
G02X526220Y6005000I0J25420D01*
G01Y6106390D01*
X410920Y6106550D01*
X410150Y6102390D01*
G02X385120Y6081590I-24995J4618D01*
G01X325120Y6081670D01*
G02X299730Y6107130I33J25423D01*
G01X299780Y6137340D01*
X299060Y6138550D01*
G02X289830Y6172050I56179J33500D01*
G02X299160Y6205720I65419J0D01*
G37*
G36*
G01X855000Y6790420D02*
X985000D01*
G02X1010420Y6765000I0J-25420D01*
G01Y6635000D01*
G02X985000Y6609580I-25420J0D01*
G01X936240D01*
X916080Y6589420D01*
Y6525210D01*
G02X926080Y6505000I-15422J-20210D01*
G01Y6315000D01*
G02X900660Y6289580I-25420J0D01*
G01X780660D01*
G02X755240Y6315000I0J25420D01*
G01Y6505000D01*
G02X765240Y6525210I25422J0D01*
G01Y6620660D01*
G02X787330Y6673990I75420J0D01*
G01X829580Y6716240D01*
Y6765000D01*
G02X855000Y6790420I25420J0D01*
G37*
G36*
G01X2656020Y7496520D02*
X2736020D01*
G02X2761440Y7471100I0J-25420D01*
G01Y7458650D01*
X2762070Y7457510D01*
G02X2771440Y7421100I-66056J-36410D01*
G01Y7348580D01*
X2776240Y7343780D01*
X2825000D01*
G02X2850420Y7318360I0J-25420D01*
G01Y7188360D01*
G02X2825000Y7162940I-25420J0D01*
G01X2695000D01*
G02X2669580Y7188360I0J25420D01*
G01Y7237120D01*
X2642690Y7264010D01*
G02X2620600Y7317340I53330J53330D01*
G01Y7421100D01*
G02X2629970Y7457510I75426J0D01*
G01X2630600Y7458650D01*
Y7471100D01*
G02X2656020Y7496520I25420J0D01*
G37*
G36*
G01X1329380Y7584510D02*
X1579380Y7586330D01*
G02X1600430Y7575420I177J-25421D01*
G01X1859790D01*
G02X1880000Y7585420I20210J-15422D01*
G01X2130000D01*
G02X2155420Y7560000I0J-25420D01*
G01Y7440000D01*
G02X2130000Y7414580I-25420J0D01*
G01X1880000D01*
G02X1859790Y7424580I0J25422D01*
G01X1599910D01*
G02X1580620Y7415490I-19481J16328D01*
G01X1330620Y7413670D01*
G02X1309570Y7424580I-177J25421D01*
G01X1255420D01*
Y7335000D01*
G02X1230000Y7309580I-25420J0D01*
G01X1195420D01*
Y7207300D01*
G02X1173330Y7153970I-75420J0D01*
G01X1086030Y7066670D01*
G02X1032700Y7044580I-53330J53330D01*
G01X995420D01*
Y7001730D01*
X997920Y7000250D01*
G02X1006890Y6991280I-12920J-21890D01*
G01X1008370Y6988780D01*
X1126640D01*
G02X1179970Y6966690I0J-75420D01*
G01X1186240Y6960420D01*
X1310000D01*
G02X1335420Y6935000I0J-25420D01*
G01Y6685000D01*
G02X1310000Y6659580I-25420J0D01*
G01X1150000D01*
G02X1124580Y6685000I0J25420D01*
G01Y6808760D01*
X1095400Y6837940D01*
X1008370D01*
X1006890Y6835440D01*
G02X985000Y6822940I-21890J12917D01*
G01X855000D01*
G02X829580Y6848360I0J25420D01*
G01Y6978360D01*
G02X842080Y7000250I25417J0D01*
G01X844580Y7001730D01*
Y7120000D01*
G02X920000Y7195420I75420J0D01*
G01X1001460D01*
X1044580Y7238540D01*
Y7309580D01*
X1010000D01*
G02X984580Y7335000I0J25420D01*
G01Y7465000D01*
G02X1010000Y7490420I25420J0D01*
G01X1103760D01*
X1166670Y7553330D01*
G02X1220000Y7575420I53330J-53330D01*
G01X1310090D01*
G02X1329380Y7584510I19481J-16328D01*
G37*
G36*
G01X230170Y6465670D02*
X290020D01*
G02X296380Y6463960I-11J-12722D01*
G03X303310Y6465790I2547J4393D01*
G02X325250Y6478370I21940J-12842D01*
G01X385250D01*
G02X410250Y6457530I0J-25415D01*
G01X411020Y6453370D01*
X477190D01*
X480080Y6456260D01*
G02X526340Y6475420I46260J-46265D01*
G01X554580D01*
Y6505000D01*
G02X580000Y6530420I25420J0D01*
G01X700000D01*
G02X725420Y6505000I0J-25420D01*
G01Y6315000D01*
G02X700000Y6289580I-25420J0D01*
G01X580000D01*
G02X554580Y6315000I0J25420D01*
G01Y6323900D01*
G03X539030Y6332510I-10158J1D01*
G02X504310Y6322530I-34731J55443D01*
G01X411020D01*
X410250Y6318370D01*
G02X385250Y6297530I-25000J4575D01*
G01X325250D01*
G02X303310Y6310110I0J25422D01*
G03X296380Y6311940I-4383J-2563D01*
G02X290020Y6310230I-6371J11012D01*
G01X230000D01*
G02X223590Y6311970I11J12717D01*
G03X216630Y6310130I-2563J-4388D01*
G02X194620Y6297490I-21973J12778D01*
G01X134620Y6297570D01*
G02X109230Y6323030I33J25423D01*
G01X109280Y6353240D01*
X108560Y6354450D01*
G02X99330Y6387950I56179J33500D01*
G01Y6924750D01*
G02X118490Y6971010I65425J0D01*
G01X263740Y7116260D01*
G02X310000Y7135420I46260J-46265D01*
G01X552000D01*
X552080Y7140420D01*
G02X568750Y7163870I25419J-419D01*
G01X572080Y7165090D01*
Y7233520D01*
G02X594170Y7286850I75420J0D01*
G01X644580Y7337260D01*
Y7414580D01*
X595000D01*
G02X569580Y7440000I0J25420D01*
G01Y7600000D01*
G02X595000Y7625420I25420J0D01*
G01X763760D01*
X836010Y7697670D01*
G02X886140Y7719690I53328J-53331D01*
G01X888120Y7719780D01*
X984580Y7816240D01*
Y7865000D01*
G02X1010000Y7890420I25420J0D01*
G01X1230000D01*
G02X1255420Y7865000I0J-25420D01*
G01Y7735000D01*
G02X1230000Y7709580I-25420J0D01*
G01X1091240D01*
X972670Y7591010D01*
G02X922540Y7568990I-53328J53331D01*
G01X920560Y7568900D01*
X870420Y7518760D01*
Y7440000D01*
G02X845000Y7414580I-25420J0D01*
G01X795420D01*
Y7306020D01*
G02X773330Y7252690I-75420J0D01*
G01X722920Y7202280D01*
Y7165090D01*
X726250Y7163870D01*
G02X742920Y7140000I-8755J-23870D01*
G01Y7000000D01*
G02X717500Y6974580I-25420J0D01*
G01X577500D01*
G02X552080Y6999580I0J25424D01*
G01X552000Y7004580D01*
X337100D01*
X230170Y6897650D01*
Y6465670D01*
G37*
G36*
G01X2405000Y7965420D02*
X2535000D01*
G02X2560420Y7940000I0J-25420D01*
G01Y7720000D01*
G02X2535000Y7694580I-25420J0D01*
G01X2495420D01*
Y7635420D01*
X2545000D01*
G02X2570420Y7610000I0J-25420D01*
G01Y7450000D01*
G02X2545000Y7424580I-25420J0D01*
G01X2295000D01*
G02X2269580Y7450000I0J25420D01*
G01Y7610000D01*
G02X2295000Y7635420I25420J0D01*
G01X2344580D01*
Y7780000D01*
G02X2366670Y7833330I75420J0D01*
G01X2379580Y7846240D01*
Y7940000D01*
G02X2405000Y7965420I25420J0D01*
G37*
G36*
G01X2805000D02*
X2935000D01*
G02X2960420Y7940000I0J-25420D01*
G01Y7720000D01*
G02X2935000Y7694580I-25420J0D01*
G01X2865420D01*
Y7676560D01*
X2968860D01*
G02X3022190Y7654470I0J-75420D01*
G01X3043880Y7632780D01*
G03X3060930Y7642390I7185J7183D01*
G02X3057580Y7669990I112070J27606D01*
G01Y7670000D01*
G02X3173000Y7554580I115420J0D01*
G01X3172990D01*
G02X3145390Y7557930I6J115420D01*
G03X3135780Y7540880I-2427J-9865D01*
G01X3163110Y7513550D01*
X3316590D01*
X3351580Y7548540D01*
Y7582630D01*
G02X3311580Y7670000I75419J87370D01*
G02X3542420I115420J0D01*
G02X3502420Y7582630I-115419J0D01*
G01Y7517300D01*
G02X3480330Y7463970I-75420J0D01*
G01X3401160Y7384800D01*
G02X3347830Y7362710I-53330J53330D01*
G01X3131870D01*
G02X3078540Y7384800I0J75420D01*
G01X2937620Y7525720D01*
X2840480D01*
X2839560Y7525350D01*
G02X2830000Y7523480I-9569J23548D01*
G01X2750000D01*
G02X2724580Y7548900I0J25420D01*
G01Y7561350D01*
X2723950Y7562490D01*
G02X2714580Y7598900I66056J36410D01*
G01Y7750000D01*
G02X2736670Y7803330I75420J0D01*
G01X2779580Y7846240D01*
Y7940000D01*
G02X2805000Y7965420I25420J0D01*
G37*
G36*
G01X3987720Y679000D02*
X3986850Y799000D01*
G02X3999480Y811810I12719J91D01*
G01X4249470Y813630D01*
G02X4262280Y801000I89J-12721D01*
G01X4263150Y681000D01*
G02X4250520Y668190I-12719J-91D01*
G01X4000530Y666370D01*
G02X3987720Y679000I-89J12721D01*
G37*
G36*
G01X3437720Y179000D02*
X3436850Y299000D01*
G02X3449480Y311810I12719J91D01*
G01X3699470Y313630D01*
G02X3712280Y301000I89J-12721D01*
G01X3713150Y181000D01*
G02X3700520Y168190I-12719J-91D01*
G01X3450530Y166370D01*
G02X3437720Y179000I-89J12721D01*
G37*
G36*
G01X2022280Y1575000D02*
Y1705000D01*
G02X2035000Y1717720I12720J0D01*
G01X2165000D01*
G02X2177720Y1705000I0J-12720D01*
G01Y1575000D01*
G02X2165000Y1562280I-12720J0D01*
G01X2035000D01*
G02X2022280Y1575000I0J12720D01*
G37*
G36*
G01X4625210Y1589050D02*
X4209100Y2005150D01*
X4206380Y2004540D01*
G02X4190000Y2002740I-16380J73629D01*
G02X4265420Y2078160I0J75420D01*
G02X4263620Y2061780I-75429J0D01*
G01X4263010Y2059060D01*
X4667950Y1654120D01*
X5017710D01*
G02X5116000Y1721420I98290J-38125D01*
G02Y1510580I0J-105420D01*
G02X5017710Y1577880I0J105425D01*
G01X4652160D01*
G02X4625210Y1589050I8J38117D01*
G37*
G36*
G01X3942280Y3115000D02*
Y3245000D01*
G02X3955000Y3257720I12720J0D01*
G01X4085000D01*
G02X4097720Y3245000I0J-12720D01*
G01Y3115000D01*
G02X4085000Y3102280I-12720J0D01*
G01X3955000D01*
G02X3942280Y3115000I0J12720D01*
G37*
G36*
G01X4012280Y6175000D02*
Y6305000D01*
G02X4025000Y6317720I12720J0D01*
G01X4155000D01*
G02X4167720Y6305000I0J-12720D01*
G01Y6175000D01*
G02X4155000Y6162280I-12720J0D01*
G01X4025000D01*
G02X4012280Y6175000I0J12720D01*
G37*
G54D58*
X290000Y2124000D03*
Y2886000D03*
X5116000Y854000D03*
Y4308000D03*
G54D57*
X290000Y2632000D03*
Y2378000D03*
X5116000Y4054000D03*
%LPD*%
G75*
G54D10*
X760000Y260000D03*
X260000Y7740000D03*
X4640000Y250000D03*
X5140000Y7740000D03*
G54D20*
X616640Y6070000D03*
X910000Y2960000D03*
Y3173360D03*
X960000Y3696640D03*
Y3910000D03*
X1206640Y4500000D03*
X1070000Y5110000D03*
X1283360D03*
X1070000Y5350000D03*
X1283360D03*
X1070000Y5590000D03*
X1283360D03*
X830000Y6070000D03*
X920000Y6700000D03*
Y6913360D03*
X1520000Y780000D03*
X1733360D03*
X1720000Y1730000D03*
X1506640D03*
X1400000Y1990000D03*
X1613360D03*
X1410000Y2540000D03*
X1623360D03*
X1400000Y2220000D03*
X1613360D03*
X1650000Y4180000D03*
X1863360D03*
X1420000Y4500000D03*
X1776640Y5080000D03*
Y4850000D03*
Y5310000D03*
X1790000Y5990000D03*
Y6203360D03*
X2100000Y1640000D03*
X2313360D03*
X1950000Y3860000D03*
X2163360D03*
X2420000Y4170000D03*
X1990000Y5080000D03*
Y4850000D03*
Y5310000D03*
X2310000Y5570000D03*
X2140000Y6210000D03*
Y5996640D03*
X3056640Y1640000D03*
X2633360Y4170000D03*
X2700000Y3930000D03*
X2913360D03*
X2523360Y5570000D03*
X2900000Y5750000D03*
X3113360D03*
X2760000Y7040000D03*
Y7253360D03*
X3270000Y1640000D03*
X3680000Y2556640D03*
Y2770000D03*
X3430000Y4660000D03*
X3643360D03*
X3430000Y4960000D03*
X3643360D03*
X3430000Y5240000D03*
X3643360D03*
X3410000Y5566640D03*
X3530000Y6050000D03*
X3316640D03*
X3410000Y5780000D03*
X3870000Y1250000D03*
Y1463360D03*
X4010000Y1950000D03*
X3796640D03*
X4020000Y3180000D03*
X3806640D03*
X4000000Y3480000D03*
X3786640D03*
X4196640Y4390000D03*
X4090000Y6240000D03*
Y6026640D03*
X4150000Y7880000D03*
Y7666640D03*
X4410000Y4390000D03*
X4710000Y4986640D03*
Y5200000D03*
Y5680000D03*
Y5466640D03*
X4946640Y5400000D03*
X5020000Y5110000D03*
X5233360D03*
X5160000Y5400000D03*
G54D11*
X90000Y90000D03*
Y7390000D03*
X4300000Y90000D03*
X4800000Y7910000D03*
G54D12*
X290000Y600000D03*
Y346000D03*
Y1362000D03*
Y1108000D03*
Y854000D03*
Y2632000D03*
Y2378000D03*
Y2124000D03*
Y3140000D03*
Y2886000D03*
Y3648000D03*
Y3394000D03*
X5116000Y600000D03*
Y854000D03*
Y1108000D03*
Y1362000D03*
Y1616000D03*
Y1870000D03*
Y2124000D03*
Y2784000D03*
Y3038000D03*
Y3292000D03*
Y3546000D03*
Y3800000D03*
Y4054000D03*
Y4308000D03*
Y4562000D03*
Y4816000D03*
G54D21*
G01X290000Y3648000D02*
X220000D01*
X120000Y3548000D01*
Y3240000D01*
X220000Y3140000D01*
X290000D01*
G01X160250Y6010000D02*
X164750Y6014500D01*
G01X720000Y7520000D02*
Y7306020D01*
X647500Y7233520D01*
Y7070000D01*
G01X1190000Y6050000D02*
X1170000Y6030000D01*
Y5820000D01*
G01X1190000Y6450000D02*
X1790000D01*
G01X920000Y7120000D02*
Y6913360D01*
G01D02*
X1126640D01*
X1230000Y6810000D01*
G01X920000Y6700000D02*
X840660Y6620660D01*
Y6410000D01*
G01X720000Y7520000D02*
X765000D01*
X889340Y7644340D01*
X919340D01*
X1075000Y7800000D01*
X1120000D01*
G01X920000Y7120000D02*
X1032700D01*
X1120000Y7207300D01*
Y7400000D01*
G01D02*
X1220000Y7500000D01*
X1455000D01*
G01X1776640Y5080000D02*
Y4850000D01*
G01Y5080000D02*
Y5310000D01*
G01Y4850000D02*
Y4723800D01*
X1960440Y4540000D01*
X2330000D01*
G01X1770000Y5570000D02*
Y5442840D01*
X1776640Y5436200D01*
Y5310000D01*
G01X1790000Y6450000D02*
Y6203360D01*
G01X2000000Y6860000D02*
X1955000D01*
X1790000Y6695000D01*
Y6450000D01*
G01X1455000Y7250000D02*
X2005000D01*
G01Y7500000D02*
X1455000D01*
G01X1990000Y4850000D02*
X2290000D01*
G01X1990000Y5080000D02*
X2164590D01*
X2184590Y5060000D01*
X2290000D01*
G01X1990000Y5310000D02*
X2144590D01*
X2184590Y5270000D01*
X2290000D01*
G01X2140000Y5996640D02*
Y5740000D01*
X2310000Y5570000D01*
G01D02*
Y5460000D01*
X2349650Y5420350D01*
X2700350D01*
X2900000Y5620000D01*
Y5750000D01*
G01X2000000Y6860000D02*
Y7003980D01*
X2005000Y7008980D01*
Y7250000D01*
G01X2470000Y6740000D02*
X2465890Y6735890D01*
X2342300D01*
G01D02*
X2218190Y6860000D01*
X2000000D01*
G01X2420000Y7530000D02*
Y7780000D01*
X2470000Y7830000D01*
G01X2710000Y5060000D02*
X2900300D01*
X2910300Y5070000D01*
X2961100D01*
G01X2710000Y4850000D02*
X2815400Y4848830D01*
X2862500Y4801730D01*
Y4755400D01*
X2887900Y4730000D01*
X2961100D01*
G01X2710000Y5270000D02*
X2726510Y5269820D01*
X2859610Y5400000D01*
X2961100D01*
G01X3113360Y5750000D02*
Y6084380D01*
G01D02*
X3107740Y6090000D01*
X2880000D01*
G01X3120000Y6730000D02*
X3113360Y6084380D01*
G01X3427000Y7670000D02*
Y7517300D01*
X3347830Y7438130D01*
X3131870D01*
X2968860Y7601140D01*
X2790000D01*
G01X2760000Y7253360D02*
X2696020Y7317340D01*
Y7421100D01*
G01X3340000Y6956000D02*
X3110000D01*
G01X2790000Y7598900D02*
Y7601140D01*
G01D02*
Y7750000D01*
X2870000Y7830000D01*
G01Y7783010D02*
Y7830000D01*
G01X3410000Y5566640D02*
X3588080D01*
X3590780Y5569340D01*
X3750000D01*
G01X3410000Y5780000D02*
X3316640Y5873360D01*
Y6050000D01*
G01D02*
Y6177700D01*
X3340000Y6201060D01*
Y6400000D01*
G01Y6956000D02*
Y6400000D01*
G01X3800000Y7510000D02*
X3755000D01*
X3340000Y7095000D01*
Y6956000D01*
G01X3810000Y3180000D02*
X3806640D01*
G01X3800000Y7510000D02*
X3989700D01*
X4139700Y7360000D01*
X4312000D01*
G01X4710000Y5200000D02*
Y5466640D01*
X160250Y6010000D03*
X1210000Y170000D03*
X780000Y1270000D03*
Y1600000D03*
X660000Y1819150D03*
X910000Y1960000D03*
Y1690000D03*
X870000Y2400000D03*
X1210000Y2070000D03*
X1260000Y3110000D03*
X670000Y3250000D03*
X1170000Y5820000D03*
X920000Y7120000D03*
X1520000Y780000D03*
X1460000Y1270000D03*
X1440000Y922000D03*
X1613360Y1990000D03*
X1460000Y1480000D03*
X1300000Y1670000D03*
X1766450Y2422150D03*
X1760000Y2220000D03*
X1680000Y2950000D03*
Y3230000D03*
X1800000Y2920000D03*
X1410000Y2820000D03*
X1700000Y2810000D03*
X1500000Y2960000D03*
X1650000Y3430000D03*
X1320000Y3580000D03*
X1820000Y3545000D03*
X1440000Y3460000D03*
X1860000Y4180000D03*
X1770000Y5570000D03*
X2040000Y190000D03*
X2410000Y730000D03*
X2150000Y790000D03*
X2490000Y922000D03*
X1892000D03*
X2100000Y1640000D03*
X2505000Y1665000D03*
X2430000Y2460000D03*
X2060000Y2320000D03*
X2090000Y2120000D03*
X1940000Y2360000D03*
X1930000Y2220000D03*
X2246970Y2577220D03*
X2281160Y2858840D03*
X2500000Y2840000D03*
X2330000Y2653430D03*
X2361600Y2970530D03*
X1895400Y3160000D03*
X1930000Y2680000D03*
X2320000Y3810000D03*
X2327000Y3634000D03*
X2067000Y3404000D03*
X1990000Y4022000D03*
X2420000Y4170000D03*
X2500000Y6510000D03*
X2470000Y7830000D03*
X2920000Y630000D03*
X2760000Y190000D03*
X2770000Y730000D03*
X3110000Y890000D03*
X2700000Y1310000D03*
X2670000Y1130000D03*
X2730000Y922000D03*
X2864000Y1967000D03*
X2990000Y1440000D03*
X2650000Y1910000D03*
X2778370Y1668370D03*
X2650000Y1690000D03*
X2880000Y1820000D03*
X2810000Y1450000D03*
X2910000Y1690000D03*
X2970000Y2454000D03*
X2760000Y2600000D03*
X3070000Y2554040D03*
X3100000Y2020000D03*
X2520000Y3000000D03*
X2630000Y2860000D03*
X2808890Y2767760D03*
X2925400Y2622080D03*
X2510000Y3150000D03*
X2620000Y2730000D03*
X3110000Y3020000D03*
X2580000Y3810000D03*
X2902000Y3630000D03*
X2780000Y3250000D03*
X2783000Y3763000D03*
X2980000Y3750000D03*
X2510000Y4370000D03*
X2810000Y4130000D03*
X2523360Y5570000D03*
X3120000Y6730000D03*
X2760000Y7040000D03*
X3690000Y1120000D03*
X3206070Y1792000D03*
X3270000Y1640000D03*
X3260000Y1400000D03*
X3554600Y1991000D03*
X3659280Y2307500D03*
X3563270Y2172370D03*
X3276000Y2173000D03*
X3508400Y2278400D03*
X3480000Y2534000D03*
X3620000Y3220000D03*
X3590000Y2980000D03*
X3730530Y2965700D03*
X3277300Y3722700D03*
X3400000Y3247110D03*
X3160000Y3504600D03*
X3580000Y3460000D03*
X3200000Y4000000D03*
X3310000Y4820000D03*
X3270000Y5430000D03*
X3290000Y5130000D03*
X3530000Y5100000D03*
X3410000Y5770000D03*
X3680000Y6400000D03*
X3850000Y160000D03*
X4130000Y240000D03*
Y490000D03*
X3870000Y1250000D03*
X3796640Y1950000D03*
X4030000Y1490000D03*
X4302000Y1786000D03*
X4010000Y1710000D03*
X3870000Y1463360D03*
X3760000Y2380000D03*
X4190000Y2078160D03*
X4178000Y2535000D03*
X3810000Y3180000D03*
X3910000Y3009670D03*
Y2810000D03*
X4150000Y3030000D03*
X4230000Y2875050D03*
X3962460Y2909910D03*
X4120000Y2920000D03*
X3990000Y3320000D03*
X4000000Y3480000D03*
X3790000Y3476110D03*
X4300000Y3580000D03*
X4161350Y3599970D03*
X3824000Y4154000D03*
X4020000Y4320000D03*
X4180000Y4000000D03*
X4260000Y4160000D03*
X4090000Y4080000D03*
X3752080Y4520000D03*
X3827480Y4680000D03*
X4260000Y4550000D03*
X4030000Y5270000D03*
X4020000Y5525800D03*
X4352000Y5735000D03*
X3770000Y6060000D03*
X4090000Y6240000D03*
X4000000Y6930000D03*
X4580000Y790000D03*
X4670000Y1380000D03*
X4690000Y1730000D03*
X4561000Y2037000D03*
X4540000Y2500000D03*
X4610000Y2960000D03*
X4910000Y3160000D03*
Y3380000D03*
X4380000Y3320000D03*
X4470000Y3580000D03*
X4410000Y4400000D03*
X4610000Y4660000D03*
X4570000Y5510000D03*
X4520000Y5220000D03*
X4710000Y5466640D03*
X4460000Y5650000D03*
X4439000Y5470000D03*
X5330000Y5480000D03*
X5240000Y5110000D03*
G54D30*
X2240000Y1210000D03*
X3140000D03*
G54D13*
X290000Y1616000D03*
Y3902000D03*
X5116000Y346000D03*
Y2530000D03*
G54D22*
X647500Y6870000D03*
Y7070000D03*
G54D40*
X3120000Y6732000D03*
Y7180000D03*
Y6956000D03*
G54D31*
X2300000Y2200000D03*
X2750340D03*
X2700300Y3407770D03*
G54D23*
X640000Y6410000D03*
X840660D03*
G54D14*
X651400Y1819150D03*
X645050Y2714500D03*
X1158500Y1079500D03*
X1114950Y1819150D03*
X1158500Y1460500D03*
X1114950Y2714500D03*
X1730000Y1079500D03*
Y1460500D03*
X2470000Y7830000D03*
X2870000D03*
G54D50*
X4820000Y5990000D03*
Y7360000D03*
G54D32*
X2350040Y2200000D03*
X2400080D03*
X2450110D03*
Y3407770D03*
X2400080D03*
X2350040D03*
X2300000D03*
X2500150Y2200000D03*
X2550190D03*
X2600230D03*
X2650270D03*
X2700300D03*
X2800380D03*
X2850420D03*
X2900460D03*
X2950490D03*
X3000530D03*
X3050570D03*
Y3407770D03*
X3000530D03*
X2950490D03*
X2900460D03*
X2850420D03*
X2800380D03*
X2750340D03*
X2650270D03*
X2600230D03*
X2550190D03*
X2500150D03*
G54D41*
X2886520Y7421100D03*
X2696020D03*
X2790000Y7598900D03*
G54D51*
G01X90000Y153500D02*
Y26500D01*
G01X26500Y90000D02*
X153500D01*
G01X90000Y7453500D02*
Y7326500D01*
G01X26500Y7390000D02*
X153500D01*
G01X4300000Y153500D02*
Y26500D01*
G01X4236500Y90000D02*
X4363500D01*
G01X4800000Y7973500D02*
Y7846500D01*
G01X4736500Y7910000D02*
X4863500D01*
G54D42*
X3173000Y7670000D03*
X3427000D03*
G54D15*
X239150Y4275050D03*
Y4738600D03*
X1134500Y4275050D03*
Y4744950D03*
X1190000Y6050000D03*
Y6450000D03*
X1120000Y7400000D03*
Y7800000D03*
G54D24*
X260000Y6387950D03*
X355250D03*
G54D33*
X2071400Y2578710D03*
Y2528680D03*
Y2478640D03*
Y2428600D03*
Y3179170D03*
Y3079090D03*
Y3029060D03*
Y2979020D03*
Y2928980D03*
Y2878940D03*
Y2828900D03*
Y2778870D03*
Y2728830D03*
Y2678790D03*
X3279170Y2428600D03*
Y2478640D03*
Y2528680D03*
Y2628750D03*
Y2678790D03*
Y2728830D03*
Y2778870D03*
Y2828900D03*
Y2878940D03*
Y2928980D03*
Y2979020D03*
Y3029060D03*
Y3129130D03*
Y3179170D03*
G54D52*
G01X153500Y90000D02*
G03I-63500J0D01*
G01Y7390000D02*
G03I-63500J0D01*
G01X4363500Y90000D02*
G03I-63500J0D01*
G01X4863500Y7910000D02*
G03I-63500J0D01*
G54D16*
X280000Y5045000D03*
Y5795000D03*
G54D25*
X720000Y7520000D03*
Y7862900D03*
X2000000Y6860000D03*
Y6517100D03*
X2420000Y7530000D03*
Y7187100D03*
X2880000Y6090000D03*
Y6432900D03*
X3800000Y7510000D03*
Y7852900D03*
G54D43*
X3750000Y5569340D03*
Y5770000D03*
G54D34*
X2071400Y3129130D03*
Y2628750D03*
X3279170Y2578710D03*
Y3079090D03*
G54D53*
G01X2310000Y5570000D02*
X2453500Y5713500D01*
Y5850000D01*
G01X2390000D02*
Y6294500D01*
G01X2342300Y6735890D02*
Y6624380D01*
X2343340Y6623340D01*
Y6391160D01*
X2390000Y6344500D01*
Y6294500D01*
G01X2517000D02*
X2453500D01*
G01X2523360Y5570000D02*
Y5672700D01*
X2580500Y5729840D01*
Y5850000D01*
G01Y6294500D02*
X2640000D01*
X2690000Y6344500D01*
Y6542900D01*
X2749400Y6602300D01*
Y6740000D01*
G01X2880000Y6090000D02*
X2630000D01*
X2580000Y6040000D01*
Y5960700D01*
X2580500Y5960200D01*
Y5850000D01*
G54D26*
X1100000Y3050000D03*
Y3100000D03*
Y3150000D03*
X1420000D03*
Y3100000D03*
Y3050000D03*
G54D17*
X280000Y5300000D03*
Y5540000D03*
G54D44*
X3735000Y6956000D03*
G54D35*
X2290000Y4850000D03*
Y5060000D03*
Y5270000D03*
X2710000Y5060000D03*
Y4850000D03*
Y5270000D03*
G54D54*
G01X616640Y6070000D02*
X616700Y6115950D01*
X561050Y6171760D01*
X355250Y6172050D01*
G01X164750Y6387950D02*
Y6924750D01*
X310000Y7070000D01*
X647500D01*
G01X355250Y6387950D02*
X504290D01*
X526340Y6410000D01*
X640000D01*
G54D27*
X1210000Y2940000D03*
X1160000D03*
Y3260000D03*
X1210000D03*
X1360000Y2940000D03*
X1310000D03*
X1260000D03*
Y3260000D03*
X1310000D03*
X1360000D03*
G54D45*
X3173000Y7924000D03*
X3427000D03*
G54D18*
X565000Y5290000D03*
Y5355000D03*
Y5420000D03*
Y5485000D03*
Y5550000D03*
G54D36*
X2390000Y5850000D03*
X2453500D03*
Y6294500D03*
X2390000D03*
X2517000Y5850000D03*
X2580500D03*
Y6294500D03*
X2517000D03*
G54D55*
G01X575000Y5550000D02*
Y5844990D01*
X410740Y6009250D01*
X170000D01*
X164750Y6014500D01*
G01D02*
Y6172050D01*
G01X4710000Y5200000D02*
X4620000Y5110000D01*
X4360000D01*
X4260050Y5010050D01*
Y4840000D01*
G01X4410000Y4400000D02*
Y4540550D01*
X4260050Y4690500D01*
Y4840000D01*
G01X4195020Y5525800D02*
X4130000D01*
G01D02*
X4020000D01*
G01X4410000Y4400000D02*
Y4390000D01*
G54D19*
X355250Y6172050D03*
X164750D03*
Y6387950D03*
G54D28*
X1230000Y6810000D03*
X1572900D03*
X2330000Y4540000D03*
X2672900D03*
X3340000Y6400000D03*
X3682900D03*
G54D37*
X2470000Y6740000D03*
X2749400D03*
G54D46*
X4130000Y4840000D03*
G54D56*
G01X290000Y854000D02*
X151000D01*
X124600Y827600D01*
Y275400D01*
X207680Y192320D01*
X414600D01*
X493300Y271020D01*
Y519270D01*
X500730Y526700D01*
X3046700D01*
X3492000Y972000D01*
Y1310000D01*
X3421450Y1380550D01*
Y2301440D01*
X3571100Y2451090D01*
Y2722800D01*
X3414960Y2878940D01*
X3279170D01*
G01X2700000Y1310000D02*
X2615400D01*
X2590000Y1284600D01*
Y760000D01*
X2451000Y621000D01*
X416400D01*
X395400Y600000D01*
X290000D01*
G01Y346000D02*
X364530Y420530D01*
Y454530D01*
X484000Y574000D01*
X2494000D01*
X2644000Y724000D01*
Y1028600D01*
X2670000Y1054600D01*
Y1130000D01*
G01X2410000Y730000D02*
X2345000Y665000D01*
X733000D01*
X290000Y1108000D01*
G01X1440000Y922000D02*
X730000D01*
X290000Y1362000D01*
G01X1460000Y1270000D02*
X960000D01*
X614000Y1616000D01*
X290000D01*
G01X215760Y2557760D02*
X290000Y2632000D01*
G01D02*
X364240Y2557760D01*
G01X215760Y2303760D02*
X290000Y2378000D01*
G01D02*
X364240Y2452240D01*
G01X215760D02*
X290000Y2378000D01*
G01D02*
X364240Y2303760D01*
G01X290000Y2632000D02*
X364240Y2706240D01*
G01X215760D02*
X290000Y2632000D01*
G01X645050Y2714500D02*
X533400D01*
X508000Y2739900D01*
Y3394770D01*
G01D02*
Y3671240D01*
X533400Y3696640D01*
X960000D01*
G01X508000Y3394770D02*
X396170D01*
X395400Y3394000D01*
X290000D01*
G01X239150Y4275050D02*
X1134500D01*
G01X239150Y4655800D02*
Y4738600D01*
G01D02*
Y4821400D01*
G01X111350Y4738600D02*
X239150D01*
G01D02*
X366950D01*
G01X280000Y4912200D02*
Y5045000D01*
G01D02*
Y5177800D01*
G01X167200Y5045000D02*
X280000D01*
G01D02*
X392800D01*
G01X1070000Y5590000D02*
X920000D01*
X815000Y5485000D01*
X565000D01*
G01X1070000Y5110000D02*
X850000D01*
X810000Y5150000D01*
Y5250000D01*
X705000Y5355000D01*
X565000D01*
G01Y5550000D02*
X575000D01*
G01X280000Y5187200D02*
Y5300000D01*
G01D02*
Y5412800D01*
G01X167200Y5300000D02*
X280000D01*
G01D02*
X392800D01*
G01X280000Y5427200D02*
Y5540000D01*
G01D02*
Y5652800D01*
G01X167200Y5540000D02*
X280000D01*
G01D02*
X392800D01*
G01X565000Y5252200D02*
Y5290000D01*
G01X462200D02*
X565000D01*
G01D02*
X667800D01*
G01X280000Y5662200D02*
Y5795000D01*
G01X1070000Y5350000D02*
X900000D01*
X830000Y5420000D01*
X565000D01*
G01X280000Y5795000D02*
Y5927800D01*
G01X167200Y5795000D02*
X280000D01*
G01D02*
X392800D01*
G01X559700Y6782200D02*
X647500Y6870000D01*
G01X260000Y6305150D02*
Y6387950D01*
G01D02*
Y6470750D01*
G01X559700Y6957800D02*
X647500Y6870000D01*
G01X577200Y7862900D02*
X720000D01*
G01X1158500Y1079500D02*
Y1207300D01*
G01X1075700Y1079500D02*
X1158500D01*
G01D02*
X1241300D01*
G01X1158500Y1332700D02*
Y1460500D01*
G01X1114950Y1691350D02*
Y1819150D01*
G01D02*
Y1946950D01*
G01X1032150Y1819150D02*
X1114950D01*
G01D02*
X1197750D01*
G01X1158500Y1460500D02*
Y1588300D01*
G01X1075700Y1460500D02*
X1158500D01*
G01D02*
X1241300D01*
G01X645050Y2714500D02*
Y1961390D01*
X651400Y1955040D01*
Y1819150D01*
G01D02*
X660000D01*
G01X910000Y1960000D02*
Y1690000D01*
G01X1300000Y1670000D02*
Y1745400D01*
X1263320Y1782080D01*
Y2016680D01*
X1210000Y2070000D01*
G01X910000Y2877200D02*
Y2960000D01*
G01D02*
Y3042800D01*
G01X827200Y2960000D02*
X910000D01*
G01X1114950Y2586700D02*
Y2714500D01*
G01D02*
Y2842300D01*
G01X1032150Y2714500D02*
X1114950D01*
G01D02*
X1197750D01*
G01X1100000Y3019700D02*
Y3050000D01*
G01D02*
X1157800D01*
G01X1100000Y3100000D02*
X1157800D01*
G01X1100000D02*
X1157800Y3081930D01*
G01X1135000Y3150000D02*
X1100000D01*
G01X910000Y3173360D02*
X998900D01*
X1020000Y3152260D01*
Y3150000D01*
G01D02*
Y2985190D01*
X1065190Y2940000D01*
X1160000D01*
G01X1020000Y3150000D02*
X1100000D01*
G01X1623360Y2540000D02*
Y2614600D01*
X1597960Y2640000D01*
X1290000D01*
X1250000Y2680000D01*
Y2794600D01*
X1160000Y2884600D01*
Y2940000D01*
G01X670000Y3250000D02*
X746640Y3173360D01*
X910000D01*
G01X1160000Y3202200D02*
Y3260000D01*
G01D02*
Y3317800D01*
G01X1129700Y3260000D02*
X1160000D01*
G01X1210000Y3202200D02*
Y3260000D01*
G01D02*
Y3317800D01*
G01X1206640Y4500000D02*
X1196640Y4510000D01*
X1165400D01*
X1134500Y4479100D01*
Y4275050D01*
G01X1650000Y4180000D02*
Y4249000D01*
X1623950Y4275050D01*
X1134500D01*
G01X960000Y3827200D02*
Y3910000D01*
G01D02*
Y3992800D01*
G01X877200Y3910000D02*
X960000D01*
G01D02*
X1042800D01*
G01X1134500Y4662150D02*
Y4744950D01*
G01D02*
Y4827750D01*
G01X1006700Y4744950D02*
X1134500D01*
G01D02*
X1262300D01*
G01X830000Y5987200D02*
Y6070000D01*
G01D02*
Y6152800D01*
G01X747200Y6070000D02*
X830000D01*
G01D02*
X912800D01*
G01X647500Y6870000D02*
X735300Y6957800D01*
G01X647500Y6870000D02*
X735300Y6782200D01*
G01X720000Y7765100D02*
Y7862900D01*
G01D02*
Y7960700D01*
G01Y7862900D02*
X862800D01*
G01X1733360Y780000D02*
Y868900D01*
X1730000Y872260D01*
Y1079500D01*
G01D02*
X1818900D01*
X1850000Y1110600D01*
Y1834600D01*
X1875400Y1860000D01*
X2340000D01*
X2450110Y1970110D01*
Y2200000D01*
G01X1430000Y780000D02*
X1520000D01*
G01D02*
Y862800D01*
G01Y780000D02*
X1602800D01*
G01X1730000Y1460500D02*
Y1621100D01*
X1720000Y1631100D01*
Y1720000D01*
G01D02*
Y1730000D01*
G01X2400080Y2200000D02*
Y1990080D01*
X2325000Y1915000D01*
X1755000D01*
X1720000Y1880000D01*
Y1730000D01*
G01X1506640Y1647200D02*
Y1730000D01*
G01D02*
Y1812800D01*
G01X1423840Y1730000D02*
X1506640D01*
G01D02*
X1589440D01*
G01X1400000Y1907200D02*
Y1990000D01*
G01X1800000Y2920000D02*
X1853320Y2866680D01*
Y2056680D01*
X1940000Y1970000D01*
X2290000D01*
X2350000Y2030000D01*
Y2085660D01*
X2350040Y2085700D01*
Y2200000D01*
G01X1400000Y1990000D02*
Y2072800D01*
G01X1317200Y1990000D02*
X1400000D01*
G01D02*
X1482800D01*
G01X1410000Y2457200D02*
Y2540000D01*
G01X1327200D02*
X1410000D01*
G01D02*
X1492800D01*
G01X1623360D02*
X1623000Y2539640D01*
Y2422150D01*
G01D02*
X1467150D01*
X1400000Y2355000D01*
Y2220000D01*
G01X1623000Y2422150D02*
X1766450D01*
G01X1613360Y2220000D02*
X1760000D01*
G01X1680000Y2950000D02*
X1759060Y3029060D01*
X2071400D01*
G01X1385000Y3100000D02*
X1420000D01*
G01D02*
X1470000D01*
X1600000Y3230000D01*
X1680000D01*
G01X1385000Y3050000D02*
X1420000D01*
G01D02*
X1490000D01*
X1594600Y3154600D01*
X1711240D01*
X1833640Y3277000D01*
X2126990D01*
X2187600Y3216390D01*
Y3013120D01*
X2153500Y2979020D01*
X2071400D01*
G01X1360000Y2976250D02*
Y3000000D01*
G01Y2882200D02*
Y2940000D01*
G01D02*
X1390300D01*
G01X1500000Y2960000D02*
X1643000Y3103000D01*
X1713530D01*
X1845930Y3235400D01*
X1940170D01*
X1996400Y3179170D01*
X2071400D01*
G01X1310000Y2940000D02*
Y2976250D01*
G01Y2940000D02*
Y2708100D01*
X1335400Y2682700D01*
X1564600D01*
X1590000Y2708100D01*
Y2981000D01*
X1658000Y3049000D01*
X1722000D01*
X1757600Y3084600D01*
X1941840D01*
X1947350Y3079090D01*
X2071400D01*
G01X1420000Y3150000D02*
Y3187900D01*
X1440000Y3207900D01*
Y3460000D01*
G01X1650000Y3430000D02*
Y4180000D01*
G01X1310000Y3202200D02*
Y3260000D01*
G01D02*
Y3317800D01*
G01X1820000Y3545000D02*
X1950000D01*
G01X2320000Y3810000D02*
Y3900010D01*
X1283360Y4936650D01*
Y5110000D01*
G01X1420000Y4500000D02*
X1642000D01*
X1760000Y4382000D01*
Y3885400D01*
X1785400Y3860000D01*
X1950000D01*
G01X1283360Y5590000D02*
X1434600D01*
X1460000Y5564600D01*
Y4900560D01*
X2050560Y4310000D01*
X2050580D01*
X2500150Y3860430D01*
Y3407770D01*
G01X1283360Y5350000D02*
X1390040Y5243320D01*
Y4899950D01*
X2450110Y3839880D01*
Y3407770D01*
G01X1790000Y5907200D02*
Y5990000D01*
G01D02*
Y6072800D01*
G01X1707200Y5990000D02*
X1790000D01*
G01D02*
X1872800D01*
G01X1572900Y6667200D02*
Y6810000D01*
G01D02*
Y6952800D01*
G01X1475100Y6810000D02*
X1572900D01*
G01D02*
X1670700D01*
G01X2313360Y1640000D02*
Y1463360D01*
X2240000Y1390000D01*
Y1210000D01*
G01X1892000Y922000D02*
X2490000D01*
G01X2100000Y1557200D02*
Y1640000D01*
G01D02*
Y1722800D01*
G01X2017200Y1640000D02*
X2100000D01*
G01D02*
X2182800D01*
G01X2500150Y2200000D02*
Y1930160D01*
X2313360Y1743370D01*
Y1640000D01*
G01X2550190Y2200000D02*
Y1890190D01*
X2429600Y1769600D01*
Y1585800D01*
X2475400Y1540000D01*
X3058690D01*
G01X2195220Y2447060D02*
X2170380Y2471900D01*
X2164210D01*
X2157470Y2478640D01*
X2071400D01*
G01X1955000Y2481000D02*
X1957360Y2478640D01*
G01D02*
X2071400D01*
G01X1940000Y2360000D02*
Y2403200D01*
X1965400Y2428600D01*
X2071400D01*
G01X2760000Y2600000D02*
X2531660Y2371660D01*
X2203270D01*
X2146330Y2428600D01*
X2071400D01*
G01X2300000Y2200000D02*
X2260630D01*
X2240630Y2220000D01*
X1930000D01*
G01X2246970Y2577220D02*
X2245480Y2578710D01*
X2071400D01*
G01Y2528680D02*
X2183840D01*
X2212520Y2500000D01*
X2340000D01*
X2460000Y2620000D01*
X2646990D01*
X2722000Y2695010D01*
Y2928900D01*
X2871900Y3080140D01*
Y3080990D01*
X3620900Y3838100D01*
X3623170D01*
X3625050Y3840000D01*
X4260000D01*
X4982000Y4562000D01*
X5116000D01*
G01X2281160Y2858840D02*
X2278840D01*
X2250000Y2830000D01*
X2186800D01*
X2185700Y2828900D01*
X2071400D01*
G01X2500000Y2840000D02*
X2440000Y2780000D01*
X2428130D01*
X2427180Y2779050D01*
X2185880D01*
X2185700Y2778870D01*
X2071400D01*
G01Y2928980D02*
X2186800D01*
X2240000Y2982180D01*
Y3232000D01*
X2143320Y3328680D01*
X2142320D01*
X2067000Y3404000D01*
G01X2071400Y2628750D02*
X2185700D01*
X2220600Y2663650D01*
X2262150D01*
X2263320Y2662480D01*
X2320950D01*
X2330000Y2653430D01*
G01X2361600Y2970530D02*
X2286200D01*
X2194610Y2878940D01*
X2071400D01*
G01X1895400Y3160000D02*
X1910000D01*
X1940870Y3129130D01*
X2071400D01*
G01Y2728830D02*
X2550730D01*
X2551900Y2730000D01*
X2620000D01*
G01X2071400Y2678790D02*
X1931210D01*
X1930000Y2680000D01*
G01X2351000Y3261000D02*
X2350040Y3261960D01*
G01D02*
Y3407770D01*
G01X2163360Y3777200D02*
Y3860000D01*
G01X1950000Y3545000D02*
X2237770D01*
X2300000Y3482770D01*
Y3407770D01*
G01X1950000Y3545000D02*
Y3860000D01*
G01X2327000Y3634000D02*
X2400080Y3560920D01*
Y3407770D01*
G01X2163360Y3860000D02*
Y3942800D01*
G01X2080560Y3860000D02*
X2163360D01*
G01X1863360Y4180000D02*
X1860000D01*
G01X2453500Y6206700D02*
Y6294500D01*
G01X2140000Y6127200D02*
Y6210000D01*
G01D02*
Y6292800D01*
G01X2057200Y6210000D02*
X2140000D01*
G01D02*
X2222800D01*
G01X2453500Y6294500D02*
Y6382300D01*
G01X2000000Y6419300D02*
Y6517100D01*
G01D02*
Y6614900D01*
G01Y6517100D02*
X2142800D01*
G01X2420000Y7089300D02*
Y7187100D01*
G01D02*
Y7284900D01*
G01X2277200Y7187100D02*
X2420000D01*
G01D02*
X2562800D01*
G01X3279170Y2578710D02*
X3363930D01*
X3400000Y2542640D01*
Y2358400D01*
X3370000Y2328400D01*
Y1365930D01*
X3446460Y1289470D01*
Y1026460D01*
X3150000Y730000D01*
X2770000D01*
G01X2810000Y1450000D02*
Y946600D01*
X2785400Y922000D01*
X2730000D01*
G01X3140000Y1210000D02*
Y1458690D01*
X3058690Y1540000D01*
G01X3056640Y1640000D02*
Y1542050D01*
X3058690Y1540000D01*
G01X2650000Y1910000D02*
Y1985400D01*
X2600230Y2035170D01*
Y2200000D01*
G01X2505000Y1665000D02*
Y1765000D01*
X2650000Y1910000D01*
G01X2778370Y1668370D02*
Y2001630D01*
X2700300Y2079700D01*
Y2200000D01*
G01X2650000Y1690000D02*
X2730000Y1770000D01*
Y1980010D01*
X2651750Y2058260D01*
Y2065790D01*
X2650270Y2067270D01*
Y2200000D01*
G01X2880000Y1820000D02*
X2950490Y1890490D01*
Y2200000D01*
G01X2910000Y1690000D02*
X3000000Y1780000D01*
Y2021670D01*
X3000530Y2022200D01*
Y2200000D01*
G01X2864000Y1967000D02*
Y2046000D01*
X2850000Y2060000D01*
Y2199580D01*
X2850420Y2200000D01*
G01X3206070Y1792000D02*
Y2044530D01*
X3122310Y2128290D01*
Y2319080D01*
X3096910Y2344480D01*
X2925860D01*
X2900460Y2319080D01*
Y2200000D01*
G01X3070000Y2554040D02*
X3095960D01*
X3121320Y2528680D01*
X3279170D01*
G01X3100000Y2020000D02*
X3050570Y2069430D01*
Y2200000D01*
G01X2808890Y2767760D02*
Y2692360D01*
X2840000Y2661250D01*
Y2539990D01*
X2750000Y2449990D01*
Y2314640D01*
X2750340Y2314300D01*
Y2200000D01*
G01X2925400Y2622080D02*
Y2546680D01*
X2800380Y2421660D01*
Y2200000D01*
G01X2630000Y2860000D02*
Y2935400D01*
X2650270Y2955670D01*
Y3407770D01*
G01X3279170Y2678790D02*
X3140860D01*
X2960000Y2859650D01*
Y3061440D01*
X3628560Y3730000D01*
X4932000D01*
X5116000Y3546000D01*
G01Y3292000D02*
X4728000Y3680000D01*
X3639010D01*
X3020000Y3060990D01*
Y2873700D01*
X3164870Y2728830D01*
X3279170D01*
G01Y2628750D02*
X3109250D01*
X2910000Y2828000D01*
Y3065320D01*
X3636810Y3800000D01*
X5116000D01*
G01X2600230Y3407770D02*
Y3293470D01*
X2600000Y3240000D01*
X2510000Y3150000D01*
G01X2700000Y3930000D02*
X2605400D01*
X2580000Y3904600D01*
Y3810000D01*
G01X2550190Y3407770D02*
Y3704790D01*
X2580000Y3734600D01*
Y3810000D01*
G01X3000530Y3407770D02*
Y3550530D01*
X3201900Y3751900D01*
Y3753940D01*
X3910000Y4462040D01*
Y5010010D01*
X4260050Y5360060D01*
Y5525800D01*
G01X2902000Y3630000D02*
Y3554600D01*
X2900460Y3553060D01*
Y3407770D01*
G01X3824000Y4154000D02*
X3770680Y4100680D01*
X3761920D01*
X3589340Y3928100D01*
X3587450D01*
X3287470Y3621000D01*
X3149500D01*
X3050570Y3522070D01*
Y3407770D01*
G01X3827480Y4680000D02*
Y4446490D01*
X2950490Y3569500D01*
Y3407770D01*
G01X2800380D02*
Y3270380D01*
X2780000Y3250000D01*
G01X2783000Y3763000D02*
Y3687600D01*
X2750340Y3654940D01*
Y3407770D01*
G01X2700300D02*
Y3814200D01*
X2725700Y3839600D01*
X2988890D01*
X2989290Y3840000D01*
X3160000D01*
X3643360Y4323360D01*
Y4660000D01*
G01X2980000Y3750000D02*
X2899000D01*
X2822000Y3673000D01*
Y3551590D01*
X2850420Y3523170D01*
Y3407770D01*
G01X2672900Y4397200D02*
Y4540000D01*
G01X2633360Y4087200D02*
Y4170000D01*
G01D02*
Y4252800D01*
G01X2550560Y4170000D02*
X2633360D01*
G01D02*
X2716160D01*
G01X2913360Y3930000D02*
X3130000D01*
X3200000Y4000000D01*
G01X3643360Y4960000D02*
X3536680Y4853320D01*
Y4570680D01*
X3509000Y4543000D01*
X2895000D01*
X2810000Y4458000D01*
Y4130000D01*
G01X2672900Y4540000D02*
Y4682800D01*
G01X2575100Y4540000D02*
X2672900D01*
G01D02*
X2770700D01*
G01X3071100Y4826520D02*
X3138900D01*
G01X3071100Y5166520D02*
X3138900D01*
G01X3071100Y5496520D02*
X3138900D01*
G01X2517000Y6206700D02*
Y6294500D01*
G01D02*
Y6382300D01*
G01X2880000Y6335100D02*
Y6432900D01*
G01D02*
Y6530700D01*
G01Y6432900D02*
X3022800D01*
G01X2886520Y7353300D02*
Y7421100D01*
G01D02*
Y7488900D01*
G01X2828720Y7421100D02*
X2886520D01*
G01D02*
X2944320D01*
G01X2992200Y7210000D02*
X3110000D01*
G01X3574440Y317800D02*
X3575000Y240000D01*
G01D02*
X3575560Y162200D01*
G01X3432200Y238960D02*
X3575000Y240000D01*
G01D02*
X3717800Y241040D01*
G01X3575000Y490000D02*
Y584600D01*
X3600400Y610000D01*
X4832530D01*
X4940000Y502530D01*
Y145400D01*
X4965400Y120000D01*
X5264600D01*
X5290000Y145400D01*
Y4900000D01*
X5220420Y4969580D01*
X5140000D01*
X5126680Y4982900D01*
Y5185000D01*
X5160000Y5218320D01*
Y5400000D01*
G01X3563270Y2172370D02*
X3487870D01*
X3469340Y2153840D01*
Y1391650D01*
X3535000Y1325990D01*
Y965400D01*
X3560400Y940000D01*
X4599990D01*
X5000000Y539990D01*
Y462000D01*
X5116000Y346000D01*
G01X3270000Y1557200D02*
Y1640000D01*
G01D02*
Y1722800D01*
G01X3187200Y1640000D02*
X3270000D01*
G01X5116000Y1362000D02*
X4934000Y1180000D01*
X4570000D01*
X4129000Y1621000D01*
X3725400D01*
X3700000Y1646400D01*
Y2266780D01*
X3659280Y2307500D01*
G01X3554600Y1991000D02*
Y1382080D01*
X3580000Y1356680D01*
X4153310D01*
X4469990Y1040000D01*
X4676000D01*
X5116000Y600000D01*
G01X3508400Y2278400D02*
X3571600D01*
X3640000Y2210000D01*
Y1625400D01*
X3694400Y1571000D01*
X4079000D01*
X4542000Y1108000D01*
X5116000D01*
G01X3154000Y2468000D02*
Y2478640D01*
G01D02*
X3279170D01*
G01X3680000Y2556640D02*
Y2458600D01*
X3705280Y2433320D01*
X3706680D01*
X3760000Y2380000D01*
G01X3279170Y2428600D02*
Y2251570D01*
X3276000Y2248400D01*
Y2173000D01*
G01X3480000Y2534000D02*
Y2692340D01*
X3393470Y2778870D01*
X3279170D01*
G01X3770000Y2760000D02*
X3690000D01*
X3680000Y2770000D01*
G01X3279170Y3129130D02*
X3368060D01*
X3400000Y3161070D01*
G01D02*
Y3247110D01*
G01X3680000Y2687200D02*
Y2770000D01*
G01D02*
Y2852800D01*
G01X3597200Y2770000D02*
X3680000D01*
G01D02*
X3762800D01*
G01X3279170Y3179170D02*
Y3232920D01*
X3368760Y3322510D01*
X3754530D01*
X3806640Y3270400D01*
Y3180000D01*
G01X3620000Y3220000D02*
X3544600D01*
X3403690Y3079090D01*
X3279170D01*
G01X5116000Y1870000D02*
X5011860D01*
X4996860Y1885000D01*
X4586010D01*
X3834600Y2636410D01*
Y3015390D01*
X3808890Y3041100D01*
X3762890D01*
X3668990Y3135000D01*
X3534010D01*
X3428070Y3029060D01*
X3279170D01*
G01Y2928980D02*
X3463580D01*
X3514600Y2980000D01*
X3590000D01*
G01X3279170Y2828900D02*
X3164870D01*
X3110000Y2883770D01*
Y3020000D01*
G01X3730530Y2965700D02*
X3620280Y3075950D01*
X3549130D01*
X3452200Y2979020D01*
X3279170D01*
G01X3277300Y3722700D02*
X3960000Y4405400D01*
Y4980000D01*
X4325070Y5345070D01*
Y5525800D01*
G01X5116000Y4816000D02*
X5010600D01*
X4990000Y4795400D01*
Y4638330D01*
X4241670Y3890000D01*
X3614560D01*
X3282480Y3557920D01*
X3213320D01*
X3160000Y3504600D01*
G01X3580000Y3460000D02*
Y3542900D01*
X3637070Y3599970D01*
X4161350D01*
G01X3430000Y4960000D02*
X3341100D01*
X3325080Y4976020D01*
X3138900D01*
G01X3430000Y4660000D02*
X3341100D01*
X3317120Y4636020D01*
X3138900D01*
G01Y4768720D02*
Y4826520D01*
G01D02*
Y4884320D01*
G01Y4826520D02*
X3206700D01*
G01X3430000Y5240000D02*
X3363980Y5306020D01*
X3138900D01*
G01Y5108720D02*
Y5166520D01*
G01D02*
Y5224320D01*
G01Y5166520D02*
X3206700D01*
G01X3138900Y5438720D02*
Y5496520D01*
G01D02*
Y5554320D01*
G01Y5496520D02*
X3206700D01*
G01X3643360Y5240000D02*
Y5137960D01*
X3605400Y5100000D01*
X3530000D01*
G01Y5967200D02*
Y6050000D01*
G01D02*
Y6132800D01*
G01X3447200Y6050000D02*
X3530000D01*
G01D02*
X3612800D01*
G01X3682900Y6257200D02*
Y6400000D01*
G01X3637200Y5770000D02*
X3750000D01*
G01X3682900Y6400000D02*
Y6542800D01*
G01X3585100Y6400000D02*
X3682900D01*
G01D02*
X3780700D01*
G01X3110000Y7102200D02*
Y7210000D01*
G01D02*
Y7257800D01*
G01Y7210000D02*
X3247800D01*
G01X3657200Y7852900D02*
X3800000D01*
G01X4125000Y740000D02*
X4125560Y662200D01*
G01X4124440Y817800D02*
X4125000Y740000D01*
G01X3982200Y738960D02*
X4125000Y740000D01*
G01D02*
X4267800Y741040D01*
G01X4010000Y1710000D02*
Y1950000D01*
G01X3760000Y2380000D02*
Y2093400D01*
X3785400Y2068000D01*
X3984600D01*
X4010000Y2042600D01*
Y1950000D01*
G01X4190000Y2078160D02*
X4652160Y1616000D01*
X5116000D01*
G01X3910000Y2810000D02*
Y2643000D01*
X4429000Y2124000D01*
X5116000D01*
G01X4178000Y2535000D02*
X4253400D01*
X4288400Y2500000D01*
X4540000D01*
G01X4020000Y3097200D02*
Y3180000D01*
G01D02*
Y3262800D01*
G01X3937200Y3180000D02*
X4020000D01*
G01D02*
X4102800D01*
G01X3910000Y3009670D02*
X3985400D01*
X4040000Y2955070D01*
Y2811160D01*
X4089610Y2761550D01*
X4893440D01*
X4915890Y2784000D01*
X5116000D01*
G01X4300000Y3580000D02*
X4203320Y3483320D01*
Y3083320D01*
X4150000Y3030000D01*
G01X4230000Y2875050D02*
Y2960450D01*
X4260000Y2990450D01*
Y3370000D01*
X4470000Y3580000D01*
G01X3962460Y2909910D02*
X3990000Y2882370D01*
Y2790000D01*
X4056550Y2723450D01*
X4073820D01*
X4073830Y2723440D01*
X4922560D01*
X5116000Y2530000D01*
G01X4120000Y2920000D02*
Y2834600D01*
X4154950Y2799650D01*
X4877650D01*
X5116000Y3038000D01*
G01X4000000Y3397200D02*
Y3480000D01*
G01X3917200D02*
X4000000D01*
G01D02*
X4082800D01*
G01X4180000Y4000000D02*
X4290000D01*
X4890000Y4600000D01*
Y5068900D01*
X4931100Y5110000D01*
X5020000D01*
G01X4130000Y4840000D02*
Y4545540D01*
X4196640Y4478900D01*
Y4390000D01*
G01D02*
Y4223360D01*
X4260000Y4160000D01*
G01X4846000Y5400000D02*
Y4619890D01*
X4306110Y4080000D01*
X4090000D01*
G01X4439000Y7360000D02*
Y6929000D01*
X3936510Y6426510D01*
Y5206510D01*
X3752080Y5022080D01*
Y4520000D01*
G01X4260000Y4550000D02*
X4195020Y4614980D01*
Y4840000D01*
G01X4439000Y5470000D02*
Y5376000D01*
X4195020Y5132020D01*
Y4840000D01*
G01X4312000Y5990000D02*
Y5864600D01*
X4260050Y5812650D01*
Y5525800D01*
G01X4090000Y6026640D02*
X4199960D01*
X4236600Y5990000D01*
X4312000D01*
G01X3750000Y5692200D02*
Y5770000D01*
G01D02*
Y5847800D01*
G01Y5770000D02*
X3862800D01*
G01X4090000Y6157200D02*
Y6240000D01*
G01D02*
Y6322800D01*
G01X4007200Y6240000D02*
X4090000D01*
G01D02*
X4172800D01*
G01X4212000Y6882200D02*
Y6950000D01*
G01D02*
Y7017800D01*
G01X4094200Y6950000D02*
X4212000D01*
G01X4150000Y7666640D02*
X4413600D01*
X4439000Y7641240D01*
Y7360000D01*
G01X3800000Y7755100D02*
Y7852900D01*
G01D02*
Y7950700D01*
G01Y7852900D02*
X3942800D01*
G01X4150000Y7797200D02*
Y7880000D01*
G01D02*
Y7962800D01*
G01X4067200Y7880000D02*
X4150000D01*
G01D02*
X4232800D01*
G01X4380000Y3320000D02*
X4540000Y3160000D01*
X4910000D01*
G01X4710000Y4903840D02*
Y4986640D01*
G01D02*
Y5069440D01*
G01X4627200Y4986640D02*
X4710000D01*
G01D02*
X4792800D01*
G01X4325070Y4707200D02*
Y4840000D01*
G01D02*
Y4972800D01*
G01Y4840000D02*
X4362870D01*
G01X4325070Y5525800D02*
X4370790D01*
X4404990Y5560000D01*
X4490000D01*
X4550000Y5620000D01*
Y5848600D01*
X4566000Y5864600D01*
Y5990000D01*
G01X4439000D02*
Y5746400D01*
X4460000Y5725400D01*
Y5650000D01*
G01X5020000Y5110000D02*
Y5291680D01*
X5053320Y5325000D01*
Y5486690D01*
X4820000Y5720010D01*
Y5990000D01*
G01X4946640Y5400000D02*
X4846000D01*
G01D02*
Y5544000D01*
X4710000Y5680000D01*
G01D02*
Y5847600D01*
X4693000Y5864600D01*
Y5990000D01*
G01X5041760Y3979760D02*
X5116000Y4054000D01*
G01D02*
X5190240Y4128240D01*
G01X5041760D02*
X5116000Y4054000D01*
G01D02*
X5190240Y3979760D01*
G54D29*
X1455000Y7500000D03*
Y7250000D03*
Y7750000D03*
X2005000D03*
X3575000Y240000D03*
X4125000D03*
Y490000D03*
Y740000D03*
G54D38*
X2005000Y7500000D03*
Y7250000D03*
X3575000Y490000D03*
Y740000D03*
G54D47*
X4195020Y4840000D03*
X4260050D03*
X4325070D03*
Y5525800D03*
X4260050D03*
X4195020D03*
X4130000D03*
G54D48*
X4312000Y5990000D03*
Y7360000D03*
X4693000Y5990000D03*
X4566000D03*
X4439000D03*
Y7360000D03*
X4566000D03*
X4693000D03*
G54D39*
X2961100Y5070000D03*
Y4730000D03*
Y5400000D03*
X3138900Y4976020D03*
Y4826520D03*
Y4636020D03*
Y5496520D03*
Y5306020D03*
Y5166520D03*
G54D49*
X4212000Y6950000D03*
M02*
