G04 ================== begin FILE IDENTIFICATION RECORD ==================*
G04 Layout Name:  C:/Users/Joel/Desktop/ORCAD_ObCP_V2_2/OBcP_v2_3_V1.brd*
G04 Film Name:    Values*
G04 File Format:  Gerber RS274X*
G04 File Origin:  Cadence Allegro 23.1-S004*
G04 Origin Date:  Fri Nov 22 16:40:57 2024*
G04 *
G04 Layer:  COMPONENT VALUE/SILKSCREEN_TOP*
G04 *
G04 Offset:    (0.0000 0.0000)*
G04 Mirror:    No*
G04 Mode:      Positive*
G04 Rotation:  0*
G04 FullContactRelief:  No*
G04 UndefLineWidth:     0.0000*
G04 ================== end FILE IDENTIFICATION RECORD ====================*
%FSLAX25Y25*MOMM*%
%IR0*IPPOS*OFA0.00000B0.00000*MIA0B0*SFA1.00000B1.00000*%
%ADD10C,.2*%
G75*
%LPD*%
G75*
G54D10*
G01X-146110Y6120000D02*
Y6198740D01*
X-120790Y6133120D01*
X-95470Y6198740D01*
Y6120000D01*
G01X-20630Y6192180D02*
X-26470Y6196120D01*
X-33290Y6198740D01*
X-41080D01*
X-49840Y6194800D01*
X-56650Y6188240D01*
X-61520Y6180370D01*
X-65420Y6167240D01*
X-66390Y6155430D01*
X-64440Y6143620D01*
X-61520Y6135750D01*
X-55680Y6127870D01*
X-48870Y6122620D01*
X-42050Y6120000D01*
X-35230D01*
X-28420Y6122620D01*
X-22580Y6126560D01*
X-17710Y6131810D01*
G01X17220Y6120000D02*
Y6198740D01*
X40580D01*
X48370Y6194800D01*
X54220Y6185620D01*
X56160Y6175120D01*
X54220Y6164620D01*
X49350Y6156740D01*
X40580Y6152810D01*
X17220D01*
G01X113480Y6120000D02*
X115430Y6137060D01*
X118350Y6151490D01*
X122250Y6164620D01*
X127110Y6179050D01*
X134900Y6198740D01*
X95960D01*
G01X172750Y6135750D02*
X178590Y6126560D01*
X186380Y6121310D01*
X195140Y6120000D01*
X202930Y6121310D01*
X210720Y6127870D01*
X215590Y6135750D01*
X216560Y6143620D01*
X214620Y6152810D01*
X207800Y6159370D01*
X200990Y6162000D01*
X192220D01*
G01X200990D02*
X206830Y6165930D01*
X211700Y6172490D01*
X213640Y6180370D01*
X211700Y6188240D01*
X206830Y6194800D01*
X198060Y6198740D01*
X189300Y6197430D01*
X180540Y6192180D01*
G01X272910Y6120000D02*
X279730Y6121310D01*
X287510Y6125250D01*
X292380Y6131810D01*
X294330Y6141000D01*
X292380Y6150180D01*
X286540Y6158060D01*
X277780Y6162000D01*
X268040D01*
X262200Y6164620D01*
X257330Y6171180D01*
X255380Y6180370D01*
X258310Y6189550D01*
X265120Y6196120D01*
X272910Y6198740D01*
X280700Y6196120D01*
X287510Y6189550D01*
X290440Y6180370D01*
X288490Y6171180D01*
X283620Y6164620D01*
X277780Y6162000D01*
X268040D01*
X259280Y6158060D01*
X253440Y6150180D01*
X251490Y6141000D01*
X253440Y6131810D01*
X258310Y6125250D01*
X266090Y6121310D01*
X272910Y6120000D01*
G01X330230Y6135750D02*
X336070Y6126560D01*
X343860Y6121310D01*
X352620Y6120000D01*
X360410Y6121310D01*
X368200Y6127870D01*
X373070Y6135750D01*
X374040Y6143620D01*
X372100Y6152810D01*
X365280Y6159370D01*
X358470Y6162000D01*
X349700D01*
G01X358470D02*
X364310Y6165930D01*
X369180Y6172490D01*
X371120Y6180370D01*
X369180Y6188240D01*
X364310Y6194800D01*
X355540Y6198740D01*
X346780Y6197430D01*
X338020Y6192180D01*
G01X430390Y6120000D02*
Y6198740D01*
X418710Y6182990D01*
G01Y6120000D02*
X442070D01*
G01X497000Y4452000D02*
X500890Y4455930D01*
X503810Y4462490D01*
X505760Y4471680D01*
X503810Y4479550D01*
X499920Y4484800D01*
X493100Y4488740D01*
X466820D01*
Y4410000D01*
X498950D01*
X505760Y4415250D01*
X509660Y4423120D01*
X511600Y4432310D01*
X509660Y4441490D01*
X503810Y4449370D01*
X497000Y4452000D01*
X466820D01*
G01X551400Y4462490D02*
Y4425750D01*
X555290Y4416560D01*
X561130Y4411310D01*
X567950Y4410000D01*
X574770Y4411310D01*
X580610Y4416560D01*
X584500Y4425750D01*
G01Y4410000D02*
Y4462490D01*
G01X646690Y4488740D02*
Y4410000D01*
G01X633060Y4462490D02*
X660320D01*
G01X725430Y4488740D02*
Y4410000D01*
G01X711800Y4462490D02*
X739060D01*
G01X804170Y4410000D02*
X798330Y4411310D01*
X792490Y4416560D01*
X788590Y4425750D01*
X786640Y4436250D01*
X788590Y4446740D01*
X792490Y4455930D01*
X798330Y4461180D01*
X804170Y4462490D01*
X810010Y4461180D01*
X815850Y4455930D01*
X819750Y4446740D01*
X820720Y4436250D01*
X819750Y4425750D01*
X815850Y4416560D01*
X810010Y4411310D01*
X804170Y4410000D01*
G01X866360D02*
Y4462490D01*
G01Y4449370D02*
X870250Y4455930D01*
X876090Y4461180D01*
X883880Y4462490D01*
X890700Y4461180D01*
X896540Y4455930D01*
X899460Y4446740D01*
Y4410000D01*
G01X539740Y4580000D02*
Y4658740D01*
X563100D01*
X570890Y4654800D01*
X576740Y4645620D01*
X578680Y4635120D01*
X576740Y4624620D01*
X571870Y4616740D01*
X563100Y4612810D01*
X539740D01*
G01X621400Y4632490D02*
Y4595750D01*
X625290Y4586560D01*
X631130Y4581310D01*
X637950Y4580000D01*
X644770Y4581310D01*
X650610Y4586560D01*
X654500Y4595750D01*
G01Y4580000D02*
Y4632490D01*
G01X702090Y4589180D02*
X706950Y4583940D01*
X713770Y4580000D01*
X719610D01*
X725450Y4582620D01*
X729350Y4586560D01*
X731290Y4591810D01*
X730320Y4599690D01*
X726430Y4603620D01*
X708900Y4611490D01*
X705010Y4620680D01*
X706950Y4627240D01*
X710850Y4631180D01*
X716690Y4632490D01*
X722530Y4631180D01*
X728370Y4627240D01*
G01X778880Y4580000D02*
Y4658740D01*
G01Y4620680D02*
X783750Y4627240D01*
X788610Y4631180D01*
X796400Y4632490D01*
X802250Y4631180D01*
X809060Y4625930D01*
X811980Y4618060D01*
Y4580000D01*
G01X137790Y5658740D02*
Y5602310D01*
X141680Y5590500D01*
X149470Y5582620D01*
X159210Y5580000D01*
X168950Y5582620D01*
X176740Y5590500D01*
X180630Y5602310D01*
Y5658740D01*
G01X217500Y5590500D02*
X225290Y5583940D01*
X234060Y5580000D01*
X241840D01*
X249630Y5583940D01*
X255480Y5590500D01*
X258400Y5599690D01*
X256450Y5608870D01*
X251580Y5616740D01*
X242820Y5622000D01*
X231130Y5624620D01*
X224320Y5629870D01*
X221400Y5639050D01*
X223350Y5648240D01*
X228210Y5654800D01*
X235030Y5658740D01*
X241840D01*
X248660Y5656120D01*
X254500Y5649550D01*
G01X324480Y5622000D02*
X328370Y5625930D01*
X331290Y5632490D01*
X333240Y5641680D01*
X331290Y5649550D01*
X327400Y5654800D01*
X320580Y5658740D01*
X294300D01*
Y5580000D01*
X326430D01*
X333240Y5585250D01*
X337140Y5593120D01*
X339080Y5602310D01*
X337140Y5611490D01*
X331290Y5619370D01*
X324480Y5622000D01*
X294300D01*
G01X149740Y7180000D02*
Y7258740D01*
X173100D01*
X180890Y7254800D01*
X186740Y7245620D01*
X188680Y7235120D01*
X186740Y7224620D01*
X181870Y7216740D01*
X173100Y7212810D01*
X149740D01*
G01X247950Y7180000D02*
X242110Y7181310D01*
X236270Y7186560D01*
X232370Y7195750D01*
X230420Y7206250D01*
X232370Y7216740D01*
X236270Y7225930D01*
X242110Y7231180D01*
X247950Y7232490D01*
X253790Y7231180D01*
X259630Y7225930D01*
X263530Y7216740D01*
X264500Y7206250D01*
X263530Y7195750D01*
X259630Y7186560D01*
X253790Y7181310D01*
X247950Y7180000D01*
G01X302350Y7232490D02*
X314030Y7180000D01*
X326690Y7232490D01*
X339350Y7180000D01*
X351030Y7232490D01*
G01X390830Y7215430D02*
X421980D01*
X419060Y7224620D01*
X414190Y7229870D01*
X407380Y7232490D01*
X400560Y7231180D01*
X394720Y7227240D01*
X390830Y7218060D01*
X388880Y7210180D01*
Y7202310D01*
X390830Y7194430D01*
X395690Y7186560D01*
X401540Y7181310D01*
X408350Y7180000D01*
X415170Y7182620D01*
X421980Y7190500D01*
G01X470540Y7180000D02*
Y7232490D01*
G01Y7222000D02*
X475410Y7227240D01*
X480280Y7231180D01*
X487090Y7232490D01*
X491960Y7231180D01*
X497800Y7227240D01*
G01X609210Y7820000D02*
Y7898740D01*
X597530Y7882990D01*
G01Y7820000D02*
X620890D01*
G01X687950Y7898740D02*
X680160Y7896120D01*
X674320Y7889550D01*
X670420Y7881680D01*
X667500Y7871180D01*
X666530Y7859370D01*
X667500Y7847560D01*
X670420Y7837060D01*
X674320Y7829180D01*
X680160Y7822620D01*
X687950Y7820000D01*
X695740Y7822620D01*
X701580Y7829180D01*
X705480Y7837060D01*
X708400Y7847560D01*
X709370Y7859370D01*
X708400Y7871180D01*
X705480Y7881680D01*
X701580Y7889550D01*
X695740Y7896120D01*
X687950Y7898740D01*
G01X750140Y7872490D02*
Y7835750D01*
X754030Y7826560D01*
X759870Y7821310D01*
X766690Y7820000D01*
X773510Y7821310D01*
X779350Y7826560D01*
X783240Y7835750D01*
G01Y7820000D02*
Y7872490D01*
G01X1177790Y1235750D02*
X1183630Y1226560D01*
X1191420Y1221310D01*
X1200180Y1220000D01*
X1207970Y1221310D01*
X1215760Y1227870D01*
X1220630Y1235750D01*
X1221600Y1243620D01*
X1219660Y1252810D01*
X1212840Y1259370D01*
X1206030Y1262000D01*
X1197260D01*
G01X1206030D02*
X1211870Y1265930D01*
X1216740Y1272490D01*
X1218680Y1280370D01*
X1216740Y1288240D01*
X1211870Y1294800D01*
X1203100Y1298740D01*
X1194340Y1297430D01*
X1185580Y1292180D01*
G01X1259450Y1285620D02*
X1265290Y1293490D01*
X1272110Y1297430D01*
X1279900Y1298740D01*
X1289630Y1296120D01*
X1296450Y1289550D01*
X1298400Y1281680D01*
X1297420Y1273800D01*
X1293530Y1267240D01*
X1274060Y1254120D01*
X1265290Y1244930D01*
X1259450Y1231810D01*
X1257500Y1220000D01*
X1298400D01*
G01X1340140D02*
Y1298740D01*
G01X1371290Y1272490D02*
X1340140Y1242310D01*
G01X1352800Y1254120D02*
X1373240Y1220000D01*
G01X1433480D02*
X1435430Y1237060D01*
X1438350Y1251490D01*
X1442250Y1264620D01*
X1447110Y1279050D01*
X1454900Y1298740D01*
X1415960D01*
G01X1495670Y1252810D02*
X1502490Y1262000D01*
X1508330Y1267240D01*
X1516120Y1269870D01*
X1522930Y1267240D01*
X1527800Y1262000D01*
X1531700Y1254120D01*
X1532670Y1244930D01*
X1531700Y1237060D01*
X1527800Y1229180D01*
X1521960Y1222620D01*
X1515140Y1220000D01*
X1507350Y1222620D01*
X1500540Y1230500D01*
X1496640Y1242310D01*
X1495670Y1255430D01*
X1497620Y1272490D01*
X1500540Y1281680D01*
X1505410Y1290870D01*
X1512220Y1297430D01*
X1519040Y1298740D01*
X1525850Y1296120D01*
X1530720Y1289550D01*
G01X1592910Y1220000D02*
X1599730Y1221310D01*
X1607510Y1225250D01*
X1612380Y1231810D01*
X1614330Y1241000D01*
X1612380Y1250180D01*
X1606540Y1258060D01*
X1597780Y1262000D01*
X1588040D01*
X1582200Y1264620D01*
X1577330Y1271180D01*
X1575380Y1280370D01*
X1578310Y1289550D01*
X1585120Y1296120D01*
X1592910Y1298740D01*
X1600700Y1296120D01*
X1607510Y1289550D01*
X1610440Y1280370D01*
X1608490Y1271180D01*
X1603620Y1264620D01*
X1597780Y1262000D01*
X1588040D01*
X1579280Y1258060D01*
X1573440Y1250180D01*
X1571490Y1241000D01*
X1573440Y1231810D01*
X1578310Y1225250D01*
X1586090Y1221310D01*
X1592910Y1220000D01*
G01X1651200D02*
Y1298740D01*
G01X1692100D02*
Y1220000D01*
G01Y1259370D02*
X1651200D01*
G01X1735790Y1272490D02*
X1764990D01*
X1735790Y1220000D01*
X1764990D01*
G01X729740Y2360000D02*
Y2438740D01*
X753100D01*
X760890Y2434800D01*
X766740Y2425620D01*
X768680Y2415120D01*
X766740Y2404620D01*
X761870Y2396740D01*
X753100Y2392810D01*
X729740D01*
G01X811400Y2412490D02*
Y2375750D01*
X815290Y2366560D01*
X821130Y2361310D01*
X827950Y2360000D01*
X834770Y2361310D01*
X840610Y2366560D01*
X844500Y2375750D01*
G01Y2360000D02*
Y2412490D01*
G01X892090Y2369180D02*
X896950Y2363940D01*
X903770Y2360000D01*
X909610D01*
X915450Y2362620D01*
X919350Y2366560D01*
X921290Y2371810D01*
X920320Y2379690D01*
X916430Y2383620D01*
X898900Y2391490D01*
X895010Y2400680D01*
X896950Y2407240D01*
X900850Y2411180D01*
X906690Y2412490D01*
X912530Y2411180D01*
X918370Y2407240D01*
G01X968880Y2360000D02*
Y2438740D01*
G01Y2400680D02*
X973750Y2407240D01*
X978610Y2411180D01*
X986400Y2412490D01*
X992250Y2411180D01*
X999060Y2405930D01*
X1001980Y2398060D01*
Y2360000D01*
G01X677000Y2222000D02*
X680890Y2225930D01*
X683810Y2232490D01*
X685760Y2241680D01*
X683810Y2249550D01*
X679920Y2254800D01*
X673100Y2258740D01*
X646820D01*
Y2180000D01*
X678950D01*
X685760Y2185250D01*
X689660Y2193120D01*
X691600Y2202310D01*
X689660Y2211490D01*
X683810Y2219370D01*
X677000Y2222000D01*
X646820D01*
G01X731400Y2232490D02*
Y2195750D01*
X735290Y2186560D01*
X741130Y2181310D01*
X747950Y2180000D01*
X754770Y2181310D01*
X760610Y2186560D01*
X764500Y2195750D01*
G01Y2180000D02*
Y2232490D01*
G01X826690Y2258740D02*
Y2180000D01*
G01X813060Y2232490D02*
X840320D01*
G01X905430Y2258740D02*
Y2180000D01*
G01X891800Y2232490D02*
X919060D01*
G01X984170Y2180000D02*
X978330Y2181310D01*
X972490Y2186560D01*
X968590Y2195750D01*
X966640Y2206250D01*
X968590Y2216740D01*
X972490Y2225930D01*
X978330Y2231180D01*
X984170Y2232490D01*
X990010Y2231180D01*
X995850Y2225930D01*
X999750Y2216740D01*
X1000720Y2206250D01*
X999750Y2195750D01*
X995850Y2186560D01*
X990010Y2181310D01*
X984170Y2180000D01*
G01X1046360D02*
Y2232490D01*
G01Y2219370D02*
X1050250Y2225930D01*
X1056090Y2231180D01*
X1063880Y2232490D01*
X1070700Y2231180D01*
X1076540Y2225930D01*
X1079460Y2216740D01*
Y2180000D01*
G01X960000Y2949210D02*
X881260D01*
X897010Y2937530D01*
G01X960000D02*
Y2960890D01*
G01X881260Y3027950D02*
X883880Y3020160D01*
X890450Y3014320D01*
X898320Y3010420D01*
X908820Y3007500D01*
X920630Y3006530D01*
X932440Y3007500D01*
X942940Y3010420D01*
X950820Y3014320D01*
X957380Y3020160D01*
X960000Y3027950D01*
X957380Y3035740D01*
X950820Y3041580D01*
X942940Y3045480D01*
X932440Y3048400D01*
X920630Y3049370D01*
X908820Y3048400D01*
X898320Y3045480D01*
X890450Y3041580D01*
X883880Y3035740D01*
X881260Y3027950D01*
G01Y3106690D02*
X883880Y3098900D01*
X890450Y3093060D01*
X898320Y3089160D01*
X908820Y3086240D01*
X920630Y3085270D01*
X932440Y3086240D01*
X942940Y3089160D01*
X950820Y3093060D01*
X957380Y3098900D01*
X960000Y3106690D01*
X957380Y3114480D01*
X950820Y3120320D01*
X942940Y3124220D01*
X932440Y3127140D01*
X920630Y3128110D01*
X908820Y3127140D01*
X898320Y3124220D01*
X890450Y3120320D01*
X883880Y3114480D01*
X881260Y3106690D01*
G01X960000Y3168880D02*
X907510D01*
G01X920630D02*
X914070Y3172770D01*
X908820Y3178610D01*
X907510Y3186400D01*
X908820Y3193220D01*
X914070Y3199060D01*
X923260Y3201980D01*
X960000D01*
G01X1000000Y3699210D02*
X921260D01*
X937010Y3687530D01*
G01X1000000D02*
Y3710890D01*
G01X921260Y3777950D02*
X923880Y3770160D01*
X930450Y3764320D01*
X938320Y3760420D01*
X948820Y3757500D01*
X960630Y3756530D01*
X972440Y3757500D01*
X982940Y3760420D01*
X990820Y3764320D01*
X997380Y3770160D01*
X1000000Y3777950D01*
X997380Y3785740D01*
X990820Y3791580D01*
X982940Y3795480D01*
X972440Y3798400D01*
X960630Y3799370D01*
X948820Y3798400D01*
X938320Y3795480D01*
X930450Y3791580D01*
X923880Y3785740D01*
X921260Y3777950D01*
G01Y3856690D02*
X923880Y3848900D01*
X930450Y3843060D01*
X938320Y3839160D01*
X948820Y3836240D01*
X960630Y3835270D01*
X972440Y3836240D01*
X982940Y3839160D01*
X990820Y3843060D01*
X997380Y3848900D01*
X1000000Y3856690D01*
X997380Y3864480D01*
X990820Y3870320D01*
X982940Y3874220D01*
X972440Y3877140D01*
X960630Y3878110D01*
X948820Y3877140D01*
X938320Y3874220D01*
X930450Y3870320D01*
X923880Y3864480D01*
X921260Y3856690D01*
G01X1000000Y3918880D02*
X947510D01*
G01X960630D02*
X954070Y3922770D01*
X948820Y3928610D01*
X947510Y3936400D01*
X948820Y3943220D01*
X954070Y3949060D01*
X963260Y3951980D01*
X1000000D01*
G01X1230890Y4470000D02*
Y4548740D01*
X1194870Y4492310D01*
X1243550D01*
G01X1297950Y4467380D02*
X1296000Y4468690D01*
Y4471310D01*
X1297950Y4472620D01*
X1299900Y4471310D01*
Y4468690D01*
X1297950Y4467380D01*
G01X1374740Y4470000D02*
X1376690Y4487060D01*
X1379610Y4501490D01*
X1383510Y4514620D01*
X1388370Y4529050D01*
X1396160Y4548740D01*
X1357220D01*
G01X1438880Y4470000D02*
Y4548740D01*
G01X1470030Y4522490D02*
X1438880Y4492310D01*
G01X1451540Y4504120D02*
X1471980Y4470000D01*
G01X1130710Y5145620D02*
X1136550Y5153490D01*
X1143370Y5157430D01*
X1151160Y5158740D01*
X1160890Y5156120D01*
X1167710Y5149550D01*
X1169660Y5141680D01*
X1168680Y5133800D01*
X1164790Y5127240D01*
X1145320Y5114120D01*
X1136550Y5104930D01*
X1130710Y5091810D01*
X1128760Y5080000D01*
X1169660D01*
G01X1209450Y5145620D02*
X1215290Y5153490D01*
X1222110Y5157430D01*
X1229900Y5158740D01*
X1239630Y5156120D01*
X1246450Y5149550D01*
X1248400Y5141680D01*
X1247420Y5133800D01*
X1243530Y5127240D01*
X1224060Y5114120D01*
X1215290Y5104930D01*
X1209450Y5091810D01*
X1207500Y5080000D01*
X1248400D01*
G01X1120710Y5385620D02*
X1126550Y5393490D01*
X1133370Y5397430D01*
X1141160Y5398740D01*
X1150890Y5396120D01*
X1157710Y5389550D01*
X1159660Y5381680D01*
X1158680Y5373800D01*
X1154790Y5367240D01*
X1135320Y5354120D01*
X1126550Y5344930D01*
X1120710Y5331810D01*
X1118760Y5320000D01*
X1159660D01*
G01X1199450Y5385620D02*
X1205290Y5393490D01*
X1212110Y5397430D01*
X1219900Y5398740D01*
X1229630Y5396120D01*
X1236450Y5389550D01*
X1238400Y5381680D01*
X1237420Y5373800D01*
X1233530Y5367240D01*
X1214060Y5354120D01*
X1205290Y5344930D01*
X1199450Y5331810D01*
X1197500Y5320000D01*
X1238400D01*
G01X1120710Y5625620D02*
X1126550Y5633490D01*
X1133370Y5637430D01*
X1141160Y5638740D01*
X1150890Y5636120D01*
X1157710Y5629550D01*
X1159660Y5621680D01*
X1158680Y5613800D01*
X1154790Y5607240D01*
X1135320Y5594120D01*
X1126550Y5584930D01*
X1120710Y5571810D01*
X1118760Y5560000D01*
X1159660D01*
G01X1199450Y5625620D02*
X1205290Y5633490D01*
X1212110Y5637430D01*
X1219900Y5638740D01*
X1229630Y5636120D01*
X1236450Y5629550D01*
X1238400Y5621680D01*
X1237420Y5613800D01*
X1233530Y5607240D01*
X1214060Y5594120D01*
X1205290Y5584930D01*
X1199450Y5571810D01*
X1197500Y5560000D01*
X1238400D01*
G01X629740Y6310000D02*
Y6388740D01*
X654080D01*
X661870Y6384800D01*
X666740Y6379550D01*
X668680Y6369050D01*
X666740Y6358560D01*
X660890Y6352000D01*
X654080Y6348060D01*
X629740D01*
G01X654080D02*
X668680Y6310000D01*
G01X713350Y6345430D02*
X744500D01*
X741580Y6354620D01*
X736710Y6359870D01*
X729900Y6362490D01*
X723080Y6361180D01*
X717240Y6357240D01*
X713350Y6348060D01*
X711400Y6340180D01*
Y6332310D01*
X713350Y6324430D01*
X718210Y6316560D01*
X724060Y6311310D01*
X730870Y6310000D01*
X737690Y6312620D01*
X744500Y6320500D01*
G01X824220Y6388740D02*
Y6310000D01*
G01Y6321810D02*
X820320Y6315250D01*
X814480Y6311310D01*
X807660Y6310000D01*
X799870Y6312620D01*
X794030Y6319180D01*
X790140Y6327060D01*
X789160Y6336250D01*
X790140Y6345430D01*
X794030Y6353310D01*
X799870Y6359870D01*
X807660Y6362490D01*
X814480Y6361180D01*
X819350Y6358560D01*
X824220Y6353310D01*
G01X670710Y6095620D02*
X676550Y6103490D01*
X683370Y6107430D01*
X691160Y6108740D01*
X700890Y6106120D01*
X707710Y6099550D01*
X709660Y6091680D01*
X708680Y6083800D01*
X704790Y6077240D01*
X685320Y6064120D01*
X676550Y6054930D01*
X670710Y6041810D01*
X668760Y6030000D01*
X709660D01*
G01X751400D02*
Y6108740D01*
G01X782550Y6082490D02*
X751400Y6052310D01*
G01X764060Y6064120D02*
X784500Y6030000D01*
G01X629740Y6508740D02*
Y6430000D01*
X668680D01*
G01X713350Y6465430D02*
X744500D01*
X741580Y6474620D01*
X736710Y6479870D01*
X729900Y6482490D01*
X723080Y6481180D01*
X717240Y6477240D01*
X713350Y6468060D01*
X711400Y6460180D01*
Y6452310D01*
X713350Y6444430D01*
X718210Y6436560D01*
X724060Y6431310D01*
X730870Y6430000D01*
X737690Y6432620D01*
X744500Y6440500D01*
G01X824220Y6508740D02*
Y6430000D01*
G01Y6441810D02*
X820320Y6435250D01*
X814480Y6431310D01*
X807660Y6430000D01*
X799870Y6432620D01*
X794030Y6439180D01*
X790140Y6447060D01*
X789160Y6456250D01*
X790140Y6465430D01*
X794030Y6473310D01*
X799870Y6479870D01*
X807660Y6482490D01*
X814480Y6481180D01*
X819350Y6478560D01*
X824220Y6473310D01*
G01X840890Y7040000D02*
Y7118740D01*
X804870Y7062310D01*
X853550D01*
G01X906000Y7040000D02*
X907950Y7057060D01*
X910870Y7071490D01*
X914770Y7084620D01*
X919630Y7099050D01*
X927420Y7118740D01*
X888480D01*
G01X986690D02*
X978900Y7116120D01*
X973060Y7109550D01*
X969160Y7101680D01*
X966240Y7091180D01*
X965270Y7079370D01*
X966240Y7067560D01*
X969160Y7057060D01*
X973060Y7049180D01*
X978900Y7042620D01*
X986690Y7040000D01*
X994480Y7042620D01*
X1000320Y7049180D01*
X1004220Y7057060D01*
X1007140Y7067560D01*
X1008110Y7079370D01*
X1007140Y7091180D01*
X1004220Y7101680D01*
X1000320Y7109550D01*
X994480Y7116120D01*
X986690Y7118740D01*
G01X819740Y8050000D02*
Y8128740D01*
X844080D01*
X851870Y8124800D01*
X856740Y8119550D01*
X858680Y8109050D01*
X856740Y8098560D01*
X850890Y8092000D01*
X844080Y8088060D01*
X819740D01*
G01X844080D02*
X858680Y8050000D01*
G01X897500Y8060500D02*
X905290Y8053940D01*
X914060Y8050000D01*
X921840D01*
X929630Y8053940D01*
X935480Y8060500D01*
X938400Y8069690D01*
X936450Y8078870D01*
X931580Y8086740D01*
X922820Y8092000D01*
X911130Y8094620D01*
X904320Y8099870D01*
X901400Y8109050D01*
X903350Y8118240D01*
X908210Y8124800D01*
X915030Y8128740D01*
X921840D01*
X928660Y8126120D01*
X934500Y8119550D01*
G01X996690Y8050000D02*
Y8128740D01*
X985010Y8112990D01*
G01Y8050000D02*
X1008370D01*
G01X1055960Y8065750D02*
X1060830Y8057870D01*
X1066670Y8052620D01*
X1073480Y8050000D01*
X1081270Y8052620D01*
X1087110Y8057870D01*
X1092960Y8065750D01*
X1094900Y8076250D01*
Y8128740D01*
G01X1141510Y8076250D02*
X1166830D01*
G01X1232910Y8050000D02*
Y8128740D01*
X1221230Y8112990D01*
G01Y8050000D02*
X1244590D01*
G01X1290230Y8065750D02*
X1296070Y8056560D01*
X1303860Y8051310D01*
X1312620Y8050000D01*
X1320410Y8051310D01*
X1328200Y8057870D01*
X1333070Y8065750D01*
X1334040Y8073620D01*
X1332100Y8082810D01*
X1325280Y8089370D01*
X1318470Y8092000D01*
X1309700D01*
G01X1318470D02*
X1324310Y8095930D01*
X1329180Y8102490D01*
X1331120Y8110370D01*
X1329180Y8118240D01*
X1324310Y8124800D01*
X1315540Y8128740D01*
X1306780Y8127430D01*
X1298020Y8122180D01*
G01X1377730Y8076250D02*
X1403050D01*
G01X1450630Y8050000D02*
Y8128740D01*
X1487630D01*
G01X1474000Y8090680D02*
X1450630D01*
G01X1530890Y750000D02*
Y828740D01*
X1494870Y772310D01*
X1543550D01*
G01X1597950Y747380D02*
X1596000Y748690D01*
Y751310D01*
X1597950Y752620D01*
X1599900Y751310D01*
Y748690D01*
X1597950Y747380D01*
G01X1655270Y765750D02*
X1661110Y756560D01*
X1668900Y751310D01*
X1677660Y750000D01*
X1685450Y751310D01*
X1693240Y757870D01*
X1698110Y765750D01*
X1699080Y773620D01*
X1697140Y782810D01*
X1690320Y789370D01*
X1683510Y792000D01*
X1674740D01*
G01X1683510D02*
X1689350Y795930D01*
X1694220Y802490D01*
X1696160Y810370D01*
X1694220Y818240D01*
X1689350Y824800D01*
X1680580Y828740D01*
X1671820Y827430D01*
X1663060Y822180D01*
G01X1737900Y723750D02*
Y802490D01*
G01Y790680D02*
X1742770Y797240D01*
X1747640Y801180D01*
X1755430Y802490D01*
X1762250Y801180D01*
X1769060Y794620D01*
X1771980Y785430D01*
X1772960Y776250D01*
X1771980Y767060D01*
X1769060Y757870D01*
X1763220Y752620D01*
X1755430Y750000D01*
X1748610Y751310D01*
X1741800Y755250D01*
X1737900Y760500D01*
G01X1550890Y1690000D02*
Y1768740D01*
X1514870Y1712310D01*
X1563550D01*
G01X1617950Y1687380D02*
X1616000Y1688690D01*
Y1691310D01*
X1617950Y1692620D01*
X1619900Y1691310D01*
Y1688690D01*
X1617950Y1687380D01*
G01X1675270Y1705750D02*
X1681110Y1696560D01*
X1688900Y1691310D01*
X1697660Y1690000D01*
X1705450Y1691310D01*
X1713240Y1697870D01*
X1718110Y1705750D01*
X1719080Y1713620D01*
X1717140Y1722810D01*
X1710320Y1729370D01*
X1703510Y1732000D01*
X1694740D01*
G01X1703510D02*
X1709350Y1735930D01*
X1714220Y1742490D01*
X1716160Y1750370D01*
X1714220Y1758240D01*
X1709350Y1764800D01*
X1700580Y1768740D01*
X1691820Y1767430D01*
X1683060Y1762180D01*
G01X1757900Y1663750D02*
Y1742490D01*
G01Y1730680D02*
X1762770Y1737240D01*
X1767640Y1741180D01*
X1775430Y1742490D01*
X1782250Y1741180D01*
X1789060Y1734620D01*
X1791980Y1725430D01*
X1792960Y1716250D01*
X1791980Y1707060D01*
X1789060Y1697870D01*
X1783220Y1692620D01*
X1775430Y1690000D01*
X1768610Y1691310D01*
X1761800Y1695250D01*
X1757900Y1700500D01*
G01X1519210Y2038740D02*
X1511420Y2036120D01*
X1505580Y2029550D01*
X1501680Y2021680D01*
X1498760Y2011180D01*
X1497790Y1999370D01*
X1498760Y1987560D01*
X1501680Y1977060D01*
X1505580Y1969180D01*
X1511420Y1962620D01*
X1519210Y1960000D01*
X1527000Y1962620D01*
X1532840Y1969180D01*
X1536740Y1977060D01*
X1539660Y1987560D01*
X1540630Y1999370D01*
X1539660Y2011180D01*
X1536740Y2021680D01*
X1532840Y2029550D01*
X1527000Y2036120D01*
X1519210Y2038740D01*
G01X1409210Y2510000D02*
Y2588740D01*
X1397530Y2572990D01*
G01Y2510000D02*
X1420890D01*
G01X1487950Y2588740D02*
X1480160Y2586120D01*
X1474320Y2579550D01*
X1470420Y2571680D01*
X1467500Y2561180D01*
X1466530Y2549370D01*
X1467500Y2537560D01*
X1470420Y2527060D01*
X1474320Y2519180D01*
X1480160Y2512620D01*
X1487950Y2510000D01*
X1495740Y2512620D01*
X1501580Y2519180D01*
X1505480Y2527060D01*
X1508400Y2537560D01*
X1509370Y2549370D01*
X1508400Y2561180D01*
X1505480Y2571680D01*
X1501580Y2579550D01*
X1495740Y2586120D01*
X1487950Y2588740D01*
G01X1566690D02*
X1558900Y2586120D01*
X1553060Y2579550D01*
X1549160Y2571680D01*
X1546240Y2561180D01*
X1545270Y2549370D01*
X1546240Y2537560D01*
X1549160Y2527060D01*
X1553060Y2519180D01*
X1558900Y2512620D01*
X1566690Y2510000D01*
X1574480Y2512620D01*
X1580320Y2519180D01*
X1584220Y2527060D01*
X1587140Y2537560D01*
X1588110Y2549370D01*
X1587140Y2561180D01*
X1584220Y2571680D01*
X1580320Y2579550D01*
X1574480Y2586120D01*
X1566690Y2588740D01*
G01X1628880Y2510000D02*
Y2562490D01*
G01Y2549370D02*
X1632770Y2555930D01*
X1638610Y2561180D01*
X1646400Y2562490D01*
X1653220Y2561180D01*
X1659060Y2555930D01*
X1661980Y2546740D01*
Y2510000D01*
G01X1519210Y2268740D02*
X1511420Y2266120D01*
X1505580Y2259550D01*
X1501680Y2251680D01*
X1498760Y2241180D01*
X1497790Y2229370D01*
X1498760Y2217560D01*
X1501680Y2207060D01*
X1505580Y2199180D01*
X1511420Y2192620D01*
X1519210Y2190000D01*
X1527000Y2192620D01*
X1532840Y2199180D01*
X1536740Y2207060D01*
X1539660Y2217560D01*
X1540630Y2229370D01*
X1539660Y2241180D01*
X1536740Y2251680D01*
X1532840Y2259550D01*
X1527000Y2266120D01*
X1519210Y2268740D01*
G01X1649210Y4150000D02*
Y4228740D01*
X1637530Y4212990D01*
G01Y4150000D02*
X1660890D01*
G01X1727950Y4228740D02*
X1720160Y4226120D01*
X1714320Y4219550D01*
X1710420Y4211680D01*
X1707500Y4201180D01*
X1706530Y4189370D01*
X1707500Y4177560D01*
X1710420Y4167060D01*
X1714320Y4159180D01*
X1720160Y4152620D01*
X1727950Y4150000D01*
X1735740Y4152620D01*
X1741580Y4159180D01*
X1745480Y4167060D01*
X1748400Y4177560D01*
X1749370Y4189370D01*
X1748400Y4201180D01*
X1745480Y4211680D01*
X1741580Y4219550D01*
X1735740Y4226120D01*
X1727950Y4228740D01*
G01X1806690D02*
X1798900Y4226120D01*
X1793060Y4219550D01*
X1789160Y4211680D01*
X1786240Y4201180D01*
X1785270Y4189370D01*
X1786240Y4177560D01*
X1789160Y4167060D01*
X1793060Y4159180D01*
X1798900Y4152620D01*
X1806690Y4150000D01*
X1814480Y4152620D01*
X1820320Y4159180D01*
X1824220Y4167060D01*
X1827140Y4177560D01*
X1828110Y4189370D01*
X1827140Y4201180D01*
X1824220Y4211680D01*
X1820320Y4219550D01*
X1814480Y4226120D01*
X1806690Y4228740D01*
G01X1868880Y4150000D02*
Y4202490D01*
G01Y4189370D02*
X1872770Y4195930D01*
X1878610Y4201180D01*
X1886400Y4202490D01*
X1893220Y4201180D01*
X1899060Y4195930D01*
X1901980Y4186740D01*
Y4150000D01*
G01X1789210Y5050000D02*
Y5128740D01*
X1777530Y5112990D01*
G01Y5050000D02*
X1800890D01*
G01X1867950Y5128740D02*
X1860160Y5126120D01*
X1854320Y5119550D01*
X1850420Y5111680D01*
X1847500Y5101180D01*
X1846530Y5089370D01*
X1847500Y5077560D01*
X1850420Y5067060D01*
X1854320Y5059180D01*
X1860160Y5052620D01*
X1867950Y5050000D01*
X1875740Y5052620D01*
X1881580Y5059180D01*
X1885480Y5067060D01*
X1888400Y5077560D01*
X1889370Y5089370D01*
X1888400Y5101180D01*
X1885480Y5111680D01*
X1881580Y5119550D01*
X1875740Y5126120D01*
X1867950Y5128740D01*
G01X1946690D02*
X1938900Y5126120D01*
X1933060Y5119550D01*
X1929160Y5111680D01*
X1926240Y5101180D01*
X1925270Y5089370D01*
X1926240Y5077560D01*
X1929160Y5067060D01*
X1933060Y5059180D01*
X1938900Y5052620D01*
X1946690Y5050000D01*
X1954480Y5052620D01*
X1960320Y5059180D01*
X1964220Y5067060D01*
X1967140Y5077560D01*
X1968110Y5089370D01*
X1967140Y5101180D01*
X1964220Y5111680D01*
X1960320Y5119550D01*
X1954480Y5126120D01*
X1946690Y5128740D01*
G01X1799210Y4820000D02*
Y4898740D01*
X1787530Y4882990D01*
G01Y4820000D02*
X1810890D01*
G01X1877950Y4898740D02*
X1870160Y4896120D01*
X1864320Y4889550D01*
X1860420Y4881680D01*
X1857500Y4871180D01*
X1856530Y4859370D01*
X1857500Y4847560D01*
X1860420Y4837060D01*
X1864320Y4829180D01*
X1870160Y4822620D01*
X1877950Y4820000D01*
X1885740Y4822620D01*
X1891580Y4829180D01*
X1895480Y4837060D01*
X1898400Y4847560D01*
X1899370Y4859370D01*
X1898400Y4871180D01*
X1895480Y4881680D01*
X1891580Y4889550D01*
X1885740Y4896120D01*
X1877950Y4898740D01*
G01X1956690D02*
X1948900Y4896120D01*
X1943060Y4889550D01*
X1939160Y4881680D01*
X1936240Y4871180D01*
X1935270Y4859370D01*
X1936240Y4847560D01*
X1939160Y4837060D01*
X1943060Y4829180D01*
X1948900Y4822620D01*
X1956690Y4820000D01*
X1964480Y4822620D01*
X1970320Y4829180D01*
X1974220Y4837060D01*
X1977140Y4847560D01*
X1978110Y4859370D01*
X1977140Y4871180D01*
X1974220Y4881680D01*
X1970320Y4889550D01*
X1964480Y4896120D01*
X1956690Y4898740D01*
G01X1799210Y5270000D02*
Y5348740D01*
X1787530Y5332990D01*
G01Y5270000D02*
X1810890D01*
G01X1877950Y5348740D02*
X1870160Y5346120D01*
X1864320Y5339550D01*
X1860420Y5331680D01*
X1857500Y5321180D01*
X1856530Y5309370D01*
X1857500Y5297560D01*
X1860420Y5287060D01*
X1864320Y5279180D01*
X1870160Y5272620D01*
X1877950Y5270000D01*
X1885740Y5272620D01*
X1891580Y5279180D01*
X1895480Y5287060D01*
X1898400Y5297560D01*
X1899370Y5309370D01*
X1898400Y5321180D01*
X1895480Y5331680D01*
X1891580Y5339550D01*
X1885740Y5346120D01*
X1877950Y5348740D01*
G01X1956690D02*
X1948900Y5346120D01*
X1943060Y5339550D01*
X1939160Y5331680D01*
X1936240Y5321180D01*
X1935270Y5309370D01*
X1936240Y5297560D01*
X1939160Y5287060D01*
X1943060Y5279180D01*
X1948900Y5272620D01*
X1956690Y5270000D01*
X1964480Y5272620D01*
X1970320Y5279180D01*
X1974220Y5287060D01*
X1977140Y5297560D01*
X1978110Y5309370D01*
X1977140Y5321180D01*
X1974220Y5331680D01*
X1970320Y5339550D01*
X1964480Y5346120D01*
X1956690Y5348740D01*
G01X1590000Y5899740D02*
X1511260D01*
Y5924080D01*
X1515200Y5931870D01*
X1520450Y5936740D01*
X1530950Y5938680D01*
X1541440Y5936740D01*
X1548000Y5930890D01*
X1551940Y5924080D01*
Y5899740D01*
G01Y5924080D02*
X1590000Y5938680D01*
G01X1579500Y5977500D02*
X1586060Y5985290D01*
X1590000Y5994060D01*
Y6001840D01*
X1586060Y6009630D01*
X1579500Y6015480D01*
X1570310Y6018400D01*
X1561130Y6016450D01*
X1553260Y6011580D01*
X1548000Y6002820D01*
X1545380Y5991130D01*
X1540130Y5984320D01*
X1530950Y5981400D01*
X1521760Y5983350D01*
X1515200Y5988210D01*
X1511260Y5995030D01*
Y6001840D01*
X1513880Y6008660D01*
X1520450Y6014500D01*
G01X1590000Y6076690D02*
X1511260D01*
X1527010Y6065010D01*
G01X1590000D02*
Y6088370D01*
G01X1574250Y6135960D02*
X1582130Y6140830D01*
X1587380Y6146670D01*
X1590000Y6153480D01*
X1587380Y6161270D01*
X1582130Y6167110D01*
X1574250Y6172960D01*
X1563750Y6174900D01*
X1511260D01*
G01X1590000Y6234170D02*
X1511260D01*
X1527010Y6222490D01*
G01X1590000D02*
Y6245850D01*
G01X1574250Y6291490D02*
X1583440Y6297330D01*
X1588690Y6305120D01*
X1590000Y6313880D01*
X1588690Y6321670D01*
X1582130Y6329460D01*
X1574250Y6334330D01*
X1566380Y6335300D01*
X1557190Y6333360D01*
X1550630Y6326540D01*
X1548000Y6319730D01*
Y6310960D01*
G01Y6319730D02*
X1544070Y6325570D01*
X1537510Y6330440D01*
X1529630Y6332380D01*
X1521760Y6330440D01*
X1515200Y6325570D01*
X1511260Y6316800D01*
X1512570Y6308040D01*
X1517820Y6299280D01*
G01X1563750Y6378990D02*
Y6404310D01*
G01X1590000Y6451890D02*
X1511260D01*
Y6488890D01*
G01X1549320Y6475260D02*
Y6451890D01*
G01X1840000Y5989210D02*
X1761260D01*
X1777010Y5977530D01*
G01X1840000D02*
Y6000890D01*
G01X1761260Y6067950D02*
X1763880Y6060160D01*
X1770450Y6054320D01*
X1778320Y6050420D01*
X1788820Y6047500D01*
X1800630Y6046530D01*
X1812440Y6047500D01*
X1822940Y6050420D01*
X1830820Y6054320D01*
X1837380Y6060160D01*
X1840000Y6067950D01*
X1837380Y6075740D01*
X1830820Y6081580D01*
X1822940Y6085480D01*
X1812440Y6088400D01*
X1800630Y6089370D01*
X1788820Y6088400D01*
X1778320Y6085480D01*
X1770450Y6081580D01*
X1763880Y6075740D01*
X1761260Y6067950D01*
G01Y6146690D02*
X1763880Y6138900D01*
X1770450Y6133060D01*
X1778320Y6129160D01*
X1788820Y6126240D01*
X1800630Y6125270D01*
X1812440Y6126240D01*
X1822940Y6129160D01*
X1830820Y6133060D01*
X1837380Y6138900D01*
X1840000Y6146690D01*
X1837380Y6154480D01*
X1830820Y6160320D01*
X1822940Y6164220D01*
X1812440Y6167140D01*
X1800630Y6168110D01*
X1788820Y6167140D01*
X1778320Y6164220D01*
X1770450Y6160320D01*
X1763880Y6154480D01*
X1761260Y6146690D01*
G01X1840000Y6208880D02*
X1787510D01*
G01X1800630D02*
X1794070Y6212770D01*
X1788820Y6218610D01*
X1787510Y6226400D01*
X1788820Y6233220D01*
X1794070Y6239060D01*
X1803260Y6241980D01*
X1840000D01*
G01X1339210Y6780000D02*
Y6858740D01*
X1327530Y6842990D01*
G01Y6780000D02*
X1350890D01*
G01X1417950Y6858740D02*
X1410160Y6856120D01*
X1404320Y6849550D01*
X1400420Y6841680D01*
X1397500Y6831180D01*
X1396530Y6819370D01*
X1397500Y6807560D01*
X1400420Y6797060D01*
X1404320Y6789180D01*
X1410160Y6782620D01*
X1417950Y6780000D01*
X1425740Y6782620D01*
X1431580Y6789180D01*
X1435480Y6797060D01*
X1438400Y6807560D01*
X1439370Y6819370D01*
X1438400Y6831180D01*
X1435480Y6841680D01*
X1431580Y6849550D01*
X1425740Y6856120D01*
X1417950Y6858740D01*
G01X1480140Y6832490D02*
Y6795750D01*
X1484030Y6786560D01*
X1489870Y6781310D01*
X1496690Y6780000D01*
X1503510Y6781310D01*
X1509350Y6786560D01*
X1513240Y6795750D01*
G01Y6780000D02*
Y6832490D01*
G01X2150710Y1675620D02*
X2156550Y1683490D01*
X2163370Y1687430D01*
X2171160Y1688740D01*
X2180890Y1686120D01*
X2187710Y1679550D01*
X2189660Y1671680D01*
X2188680Y1663800D01*
X2184790Y1657240D01*
X2165320Y1644120D01*
X2156550Y1634930D01*
X2150710Y1621810D01*
X2148760Y1610000D01*
X2189660D01*
G01X2247950Y1688740D02*
X2240160Y1686120D01*
X2234320Y1679550D01*
X2230420Y1671680D01*
X2227500Y1661180D01*
X2226530Y1649370D01*
X2227500Y1637560D01*
X2230420Y1627060D01*
X2234320Y1619180D01*
X2240160Y1612620D01*
X2247950Y1610000D01*
X2255740Y1612620D01*
X2261580Y1619180D01*
X2265480Y1627060D01*
X2268400Y1637560D01*
X2269370Y1649370D01*
X2268400Y1661180D01*
X2265480Y1671680D01*
X2261580Y1679550D01*
X2255740Y1686120D01*
X2247950Y1688740D01*
G01X2309160Y1583750D02*
Y1662490D01*
G01Y1650680D02*
X2314030Y1657240D01*
X2318900Y1661180D01*
X2326690Y1662490D01*
X2333510Y1661180D01*
X2340320Y1654620D01*
X2343240Y1645430D01*
X2344220Y1636250D01*
X2343240Y1627060D01*
X2340320Y1617870D01*
X2334480Y1612620D01*
X2326690Y1610000D01*
X2319870Y1611310D01*
X2313060Y1615250D01*
X2309160Y1620500D01*
G01X2378760Y2770500D02*
X2386550Y2763940D01*
X2395320Y2760000D01*
X2403100D01*
X2410890Y2763940D01*
X2416740Y2770500D01*
X2419660Y2779690D01*
X2417710Y2788870D01*
X2412840Y2796740D01*
X2404080Y2802000D01*
X2392390Y2804620D01*
X2385580Y2809870D01*
X2382660Y2819050D01*
X2384610Y2828240D01*
X2389470Y2834800D01*
X2396290Y2838740D01*
X2403100D01*
X2409920Y2836120D01*
X2415760Y2829550D01*
G01X2477950Y2838740D02*
Y2760000D01*
G01X2455560Y2838740D02*
X2500340D01*
G01X2531370Y2760000D02*
Y2838740D01*
X2556690Y2773120D01*
X2582010Y2838740D01*
Y2760000D01*
G01X2614010Y2775750D02*
X2619850Y2766560D01*
X2627640Y2761310D01*
X2636400Y2760000D01*
X2644190Y2761310D01*
X2651980Y2767870D01*
X2656850Y2775750D01*
X2657820Y2783620D01*
X2655880Y2792810D01*
X2649060Y2799370D01*
X2642250Y2802000D01*
X2633480D01*
G01X2642250D02*
X2648090Y2805930D01*
X2652960Y2812490D01*
X2654900Y2820370D01*
X2652960Y2828240D01*
X2648090Y2834800D01*
X2639320Y2838740D01*
X2630560Y2837430D01*
X2621800Y2832180D01*
G01X2695670Y2825620D02*
X2701510Y2833490D01*
X2708330Y2837430D01*
X2716120Y2838740D01*
X2725850Y2836120D01*
X2732670Y2829550D01*
X2734620Y2821680D01*
X2733640Y2813800D01*
X2729750Y2807240D01*
X2710280Y2794120D01*
X2701510Y2784930D01*
X2695670Y2771810D01*
X2693720Y2760000D01*
X2734620D01*
G01X2773440Y2838740D02*
Y2760000D01*
X2812380D01*
G01X2883330D02*
Y2838740D01*
X2847310Y2782310D01*
X2895990D01*
G01X2948440Y2760000D02*
X2950390Y2777060D01*
X2953310Y2791490D01*
X2957210Y2804620D01*
X2962070Y2819050D01*
X2969860Y2838740D01*
X2930920D01*
G01X3010630Y2792810D02*
X3017450Y2802000D01*
X3023290Y2807240D01*
X3031080Y2809870D01*
X3037890Y2807240D01*
X3042760Y2802000D01*
X3046660Y2794120D01*
X3047630Y2784930D01*
X3046660Y2777060D01*
X3042760Y2769180D01*
X3036920Y2762620D01*
X3030100Y2760000D01*
X3022310Y2762620D01*
X3015500Y2770500D01*
X3011600Y2782310D01*
X3010630Y2795430D01*
X3012580Y2812490D01*
X3015500Y2821680D01*
X3020370Y2830870D01*
X3027180Y2837430D01*
X3034000Y2838740D01*
X3040810Y2836120D01*
X3045680Y2829550D01*
G01X3088400Y2760000D02*
Y2838740D01*
X3112740D01*
X3120530Y2834800D01*
X3125400Y2829550D01*
X3127340Y2819050D01*
X3125400Y2808560D01*
X3119550Y2802000D01*
X3112740Y2798060D01*
X3088400D01*
G01X3112740D02*
X3127340Y2760000D01*
G01X3192450Y2799370D02*
X3211930D01*
Y2775750D01*
X3206080Y2767870D01*
X3199270Y2762620D01*
X3189530Y2760000D01*
X3179790Y2762620D01*
X3172980Y2767870D01*
X3167140Y2775750D01*
X3163240Y2784930D01*
X3161290Y2795430D01*
Y2804620D01*
X3163240Y2812490D01*
X3167140Y2821680D01*
X3172980Y2829550D01*
X3178820Y2834800D01*
X3186610Y2838740D01*
X3193430D01*
X3201210Y2836120D01*
X3207060Y2830870D01*
G01X3265350Y2838740D02*
Y2760000D01*
G01X3242960Y2838740D02*
X3287740D01*
G01X3325590Y2792810D02*
X3332410Y2802000D01*
X3338250Y2807240D01*
X3346040Y2809870D01*
X3352850Y2807240D01*
X3357720Y2802000D01*
X3361620Y2794120D01*
X3362590Y2784930D01*
X3361620Y2777060D01*
X3357720Y2769180D01*
X3351880Y2762620D01*
X3345060Y2760000D01*
X3337270Y2762620D01*
X3330460Y2770500D01*
X3326560Y2782310D01*
X3325590Y2795430D01*
X3327540Y2812490D01*
X3330460Y2821680D01*
X3335330Y2830870D01*
X3342140Y2837430D01*
X3348960Y2838740D01*
X3355770Y2836120D01*
X3360640Y2829550D01*
G01X1949210Y3820000D02*
Y3898740D01*
X1937530Y3882990D01*
G01Y3820000D02*
X1960890D01*
G01X2027950Y3898740D02*
X2020160Y3896120D01*
X2014320Y3889550D01*
X2010420Y3881680D01*
X2007500Y3871180D01*
X2006530Y3859370D01*
X2007500Y3847560D01*
X2010420Y3837060D01*
X2014320Y3829180D01*
X2020160Y3822620D01*
X2027950Y3820000D01*
X2035740Y3822620D01*
X2041580Y3829180D01*
X2045480Y3837060D01*
X2048400Y3847560D01*
X2049370Y3859370D01*
X2048400Y3871180D01*
X2045480Y3881680D01*
X2041580Y3889550D01*
X2035740Y3896120D01*
X2027950Y3898740D01*
G01X2106690D02*
X2098900Y3896120D01*
X2093060Y3889550D01*
X2089160Y3881680D01*
X2086240Y3871180D01*
X2085270Y3859370D01*
X2086240Y3847560D01*
X2089160Y3837060D01*
X2093060Y3829180D01*
X2098900Y3822620D01*
X2106690Y3820000D01*
X2114480Y3822620D01*
X2120320Y3829180D01*
X2124220Y3837060D01*
X2127140Y3847560D01*
X2128110Y3859370D01*
X2127140Y3871180D01*
X2124220Y3881680D01*
X2120320Y3889550D01*
X2114480Y3896120D01*
X2106690Y3898740D01*
G01X2168880Y3820000D02*
Y3872490D01*
G01Y3859370D02*
X2172770Y3865930D01*
X2178610Y3871180D01*
X2186400Y3872490D01*
X2193220Y3871180D01*
X2199060Y3865930D01*
X2201980Y3856740D01*
Y3820000D01*
G01X2449210Y4130000D02*
Y4208740D01*
X2437530Y4192990D01*
G01Y4130000D02*
X2460890D01*
G01X2527950Y4208740D02*
X2520160Y4206120D01*
X2514320Y4199550D01*
X2510420Y4191680D01*
X2507500Y4181180D01*
X2506530Y4169370D01*
X2507500Y4157560D01*
X2510420Y4147060D01*
X2514320Y4139180D01*
X2520160Y4132620D01*
X2527950Y4130000D01*
X2535740Y4132620D01*
X2541580Y4139180D01*
X2545480Y4147060D01*
X2548400Y4157560D01*
X2549370Y4169370D01*
X2548400Y4181180D01*
X2545480Y4191680D01*
X2541580Y4199550D01*
X2535740Y4206120D01*
X2527950Y4208740D01*
G01X2606690D02*
X2598900Y4206120D01*
X2593060Y4199550D01*
X2589160Y4191680D01*
X2586240Y4181180D01*
X2585270Y4169370D01*
X2586240Y4157560D01*
X2589160Y4147060D01*
X2593060Y4139180D01*
X2598900Y4132620D01*
X2606690Y4130000D01*
X2614480Y4132620D01*
X2620320Y4139180D01*
X2624220Y4147060D01*
X2627140Y4157560D01*
X2628110Y4169370D01*
X2627140Y4181180D01*
X2624220Y4191680D01*
X2620320Y4199550D01*
X2614480Y4206120D01*
X2606690Y4208740D01*
G01X2399740Y5058740D02*
Y4980000D01*
X2438680D01*
G01X2483350Y5015430D02*
X2514500D01*
X2511580Y5024620D01*
X2506710Y5029870D01*
X2499900Y5032490D01*
X2493080Y5031180D01*
X2487240Y5027240D01*
X2483350Y5018060D01*
X2481400Y5010180D01*
Y5002310D01*
X2483350Y4994430D01*
X2488210Y4986560D01*
X2494060Y4981310D01*
X2500870Y4980000D01*
X2507690Y4982620D01*
X2514500Y4990500D01*
G01X2594220Y5058740D02*
Y4980000D01*
G01Y4991810D02*
X2590320Y4985250D01*
X2584480Y4981310D01*
X2577660Y4980000D01*
X2569870Y4982620D01*
X2564030Y4989180D01*
X2560140Y4997060D01*
X2559160Y5006250D01*
X2560140Y5015430D01*
X2564030Y5023310D01*
X2569870Y5029870D01*
X2577660Y5032490D01*
X2584480Y5031180D01*
X2589350Y5028560D01*
X2594220Y5023310D01*
G01X2389740Y4850000D02*
Y4928740D01*
X2414080D01*
X2421870Y4924800D01*
X2426740Y4919550D01*
X2428680Y4909050D01*
X2426740Y4898560D01*
X2420890Y4892000D01*
X2414080Y4888060D01*
X2389740D01*
G01X2414080D02*
X2428680Y4850000D01*
G01X2463610Y4928740D02*
X2487950Y4850000D01*
X2512290Y4928740D01*
G01X2574480Y4892000D02*
X2578370Y4895930D01*
X2581290Y4902490D01*
X2583240Y4911680D01*
X2581290Y4919550D01*
X2577400Y4924800D01*
X2570580Y4928740D01*
X2544300D01*
Y4850000D01*
X2576430D01*
X2583240Y4855250D01*
X2587140Y4863120D01*
X2589080Y4872310D01*
X2587140Y4881490D01*
X2581290Y4889370D01*
X2574480Y4892000D01*
X2544300D01*
G01X2429210Y4530000D02*
Y4608740D01*
X2417530Y4592990D01*
G01Y4530000D02*
X2440890D01*
G01X2507950Y4608740D02*
X2500160Y4606120D01*
X2494320Y4599550D01*
X2490420Y4591680D01*
X2487500Y4581180D01*
X2486530Y4569370D01*
X2487500Y4557560D01*
X2490420Y4547060D01*
X2494320Y4539180D01*
X2500160Y4532620D01*
X2507950Y4530000D01*
X2515740Y4532620D01*
X2521580Y4539180D01*
X2525480Y4547060D01*
X2528400Y4557560D01*
X2529370Y4569370D01*
X2528400Y4581180D01*
X2525480Y4591680D01*
X2521580Y4599550D01*
X2515740Y4606120D01*
X2507950Y4608740D01*
G01X2570140Y4582490D02*
Y4545750D01*
X2574030Y4536560D01*
X2579870Y4531310D01*
X2586690Y4530000D01*
X2593510Y4531310D01*
X2599350Y4536560D01*
X2603240Y4545750D01*
G01Y4530000D02*
Y4582490D01*
G01X2272660Y5569180D02*
X2279470Y5562620D01*
X2287260Y5560000D01*
X2295050Y5562620D01*
X2301870Y5570500D01*
X2306740Y5582310D01*
X2308680Y5594120D01*
Y5608560D01*
X2306740Y5620370D01*
X2301870Y5630870D01*
X2296030Y5636120D01*
X2289210Y5638740D01*
X2281420Y5636120D01*
X2275580Y5630870D01*
X2271680Y5622990D01*
X2269740Y5612490D01*
X2271680Y5603310D01*
X2276550Y5594120D01*
X2282390Y5588870D01*
X2289210Y5587560D01*
X2297000Y5590180D01*
X2302840Y5596740D01*
X2308680Y5608560D01*
G01X2366000Y5560000D02*
X2367950Y5577060D01*
X2370870Y5591490D01*
X2374770Y5604620D01*
X2379630Y5619050D01*
X2387420Y5638740D01*
X2348480D01*
G01X2428190Y5592810D02*
X2435010Y5602000D01*
X2440850Y5607240D01*
X2448640Y5609870D01*
X2455450Y5607240D01*
X2460320Y5602000D01*
X2464220Y5594120D01*
X2465190Y5584930D01*
X2464220Y5577060D01*
X2460320Y5569180D01*
X2454480Y5562620D01*
X2447660Y5560000D01*
X2439870Y5562620D01*
X2433060Y5570500D01*
X2429160Y5582310D01*
X2428190Y5595430D01*
X2430140Y5612490D01*
X2433060Y5621680D01*
X2437930Y5630870D01*
X2444740Y5637430D01*
X2451560Y5638740D01*
X2458370Y5636120D01*
X2463240Y5629550D01*
G01X2508880Y5560000D02*
Y5638740D01*
G01X2540030Y5612490D02*
X2508880Y5582310D01*
G01X2521540Y5594120D02*
X2541980Y5560000D01*
G01X2530000Y5813890D02*
X2451260D01*
X2516880Y5839210D01*
X2451260Y5864530D01*
X2530000D01*
G01X2457820Y5939370D02*
X2453880Y5933530D01*
X2451260Y5926710D01*
Y5918920D01*
X2455200Y5910160D01*
X2461760Y5903350D01*
X2469630Y5898480D01*
X2482760Y5894580D01*
X2494570Y5893610D01*
X2506380Y5895560D01*
X2514250Y5898480D01*
X2522130Y5904320D01*
X2527380Y5911130D01*
X2530000Y5917950D01*
Y5924770D01*
X2527380Y5931580D01*
X2523440Y5937420D01*
X2518190Y5942290D01*
G01X2530000Y5977220D02*
X2451260D01*
Y6000580D01*
X2455200Y6008370D01*
X2464380Y6014220D01*
X2474880Y6016160D01*
X2485380Y6014220D01*
X2493260Y6009350D01*
X2497190Y6000580D01*
Y5977220D01*
G01X2530000Y6075430D02*
X2451260D01*
X2467010Y6063750D01*
G01X2530000D02*
Y6087110D01*
G01X2497190Y6135670D02*
X2488000Y6142490D01*
X2482760Y6148330D01*
X2480130Y6156120D01*
X2482760Y6162930D01*
X2488000Y6167800D01*
X2495880Y6171700D01*
X2505070Y6172670D01*
X2512940Y6171700D01*
X2520820Y6167800D01*
X2527380Y6161960D01*
X2530000Y6155140D01*
X2527380Y6147350D01*
X2519500Y6140540D01*
X2507690Y6136640D01*
X2494570Y6135670D01*
X2477510Y6137620D01*
X2468320Y6140540D01*
X2459130Y6145410D01*
X2452570Y6152220D01*
X2451260Y6159040D01*
X2453880Y6165850D01*
X2460450Y6170720D01*
G01X2530000Y6244590D02*
X2451260D01*
X2507690Y6208570D01*
Y6257250D01*
G01X2464380Y6293150D02*
X2456510Y6298990D01*
X2452570Y6305810D01*
X2451260Y6313600D01*
X2453880Y6323330D01*
X2460450Y6330150D01*
X2468320Y6332100D01*
X2476200Y6331120D01*
X2482760Y6327230D01*
X2495880Y6307760D01*
X2505070Y6298990D01*
X2518190Y6293150D01*
X2530000Y6291200D01*
Y6332100D01*
G01X2164250Y5967790D02*
X2173440Y5973630D01*
X2178690Y5981420D01*
X2180000Y5990180D01*
X2178690Y5997970D01*
X2172130Y6005760D01*
X2164250Y6010630D01*
X2156380Y6011600D01*
X2147190Y6009660D01*
X2140630Y6002840D01*
X2138000Y5996030D01*
Y5987260D01*
G01Y5996030D02*
X2134070Y6001870D01*
X2127510Y6006740D01*
X2119630Y6008680D01*
X2111760Y6006740D01*
X2105200Y6001870D01*
X2101260Y5993100D01*
X2102570Y5984340D01*
X2107820Y5975580D01*
G01X2101260Y6067950D02*
X2103880Y6060160D01*
X2110450Y6054320D01*
X2118320Y6050420D01*
X2128820Y6047500D01*
X2140630Y6046530D01*
X2152440Y6047500D01*
X2162940Y6050420D01*
X2170820Y6054320D01*
X2177380Y6060160D01*
X2180000Y6067950D01*
X2177380Y6075740D01*
X2170820Y6081580D01*
X2162940Y6085480D01*
X2152440Y6088400D01*
X2140630Y6089370D01*
X2128820Y6088400D01*
X2118320Y6085480D01*
X2110450Y6081580D01*
X2103880Y6075740D01*
X2101260Y6067950D01*
G01X2170820Y6130140D02*
X2177380Y6136950D01*
X2180000Y6144740D01*
X2177380Y6152530D01*
X2169500Y6159350D01*
X2157690Y6164220D01*
X2145880Y6166160D01*
X2131440D01*
X2119630Y6164220D01*
X2109130Y6159350D01*
X2103880Y6153510D01*
X2101260Y6146690D01*
X2103880Y6138900D01*
X2109130Y6133060D01*
X2117010Y6129160D01*
X2127510Y6127220D01*
X2136690Y6129160D01*
X2145880Y6134030D01*
X2151130Y6139870D01*
X2152440Y6146690D01*
X2149820Y6154480D01*
X2143260Y6160320D01*
X2131440Y6166160D01*
G01X2180000Y6208880D02*
X2101260D01*
G01X2127510Y6240030D02*
X2157690Y6208880D01*
G01X2145880Y6221540D02*
X2180000Y6241980D01*
G01X1929210Y6700000D02*
Y6778740D01*
X1917530Y6762990D01*
G01Y6700000D02*
X1940890D01*
G01X2007950Y6778740D02*
X2000160Y6776120D01*
X1994320Y6769550D01*
X1990420Y6761680D01*
X1987500Y6751180D01*
X1986530Y6739370D01*
X1987500Y6727560D01*
X1990420Y6717060D01*
X1994320Y6709180D01*
X2000160Y6702620D01*
X2007950Y6700000D01*
X2015740Y6702620D01*
X2021580Y6709180D01*
X2025480Y6717060D01*
X2028400Y6727560D01*
X2029370Y6739370D01*
X2028400Y6751180D01*
X2025480Y6761680D01*
X2021580Y6769550D01*
X2015740Y6776120D01*
X2007950Y6778740D01*
G01X2070140Y6752490D02*
Y6715750D01*
X2074030Y6706560D01*
X2079870Y6701310D01*
X2086690Y6700000D01*
X2093510Y6701310D01*
X2099350Y6706560D01*
X2103240Y6715750D01*
G01Y6700000D02*
Y6752490D01*
G01X2329210Y7350000D02*
Y7428740D01*
X2317530Y7412990D01*
G01Y7350000D02*
X2340890D01*
G01X2407950Y7428740D02*
X2400160Y7426120D01*
X2394320Y7419550D01*
X2390420Y7411680D01*
X2387500Y7401180D01*
X2386530Y7389370D01*
X2387500Y7377560D01*
X2390420Y7367060D01*
X2394320Y7359180D01*
X2400160Y7352620D01*
X2407950Y7350000D01*
X2415740Y7352620D01*
X2421580Y7359180D01*
X2425480Y7367060D01*
X2428400Y7377560D01*
X2429370Y7389370D01*
X2428400Y7401180D01*
X2425480Y7411680D01*
X2421580Y7419550D01*
X2415740Y7426120D01*
X2407950Y7428740D01*
G01X2470140Y7402490D02*
Y7365750D01*
X2474030Y7356560D01*
X2479870Y7351310D01*
X2486690Y7350000D01*
X2493510Y7351310D01*
X2499350Y7356560D01*
X2503240Y7365750D01*
G01Y7350000D02*
Y7402490D01*
G01X2339740Y7990000D02*
Y8068740D01*
X2364080D01*
X2371870Y8064800D01*
X2376740Y8059550D01*
X2378680Y8049050D01*
X2376740Y8038560D01*
X2370890Y8032000D01*
X2364080Y8028060D01*
X2339740D01*
G01X2364080D02*
X2378680Y7990000D01*
G01X2417500Y8000500D02*
X2425290Y7993940D01*
X2434060Y7990000D01*
X2441840D01*
X2449630Y7993940D01*
X2455480Y8000500D01*
X2458400Y8009690D01*
X2456450Y8018870D01*
X2451580Y8026740D01*
X2442820Y8032000D01*
X2431130Y8034620D01*
X2424320Y8039870D01*
X2421400Y8049050D01*
X2423350Y8058240D01*
X2428210Y8064800D01*
X2435030Y8068740D01*
X2441840D01*
X2448660Y8066120D01*
X2454500Y8059550D01*
G01X2516690Y7990000D02*
Y8068740D01*
X2505010Y8052990D01*
G01Y7990000D02*
X2528370D01*
G01X2575960Y8005750D02*
X2580830Y7997870D01*
X2586670Y7992620D01*
X2593480Y7990000D01*
X2601270Y7992620D01*
X2607110Y7997870D01*
X2612960Y8005750D01*
X2614900Y8016250D01*
Y8068740D01*
G01X2661510Y8016250D02*
X2686830D01*
G01X2752910Y7990000D02*
Y8068740D01*
X2741230Y8052990D01*
G01Y7990000D02*
X2764590D01*
G01X2810230Y8005750D02*
X2816070Y7996560D01*
X2823860Y7991310D01*
X2832620Y7990000D01*
X2840410Y7991310D01*
X2848200Y7997870D01*
X2853070Y8005750D01*
X2854040Y8013620D01*
X2852100Y8022810D01*
X2845280Y8029370D01*
X2838470Y8032000D01*
X2829700D01*
G01X2838470D02*
X2844310Y8035930D01*
X2849180Y8042490D01*
X2851120Y8050370D01*
X2849180Y8058240D01*
X2844310Y8064800D01*
X2835540Y8068740D01*
X2826780Y8067430D01*
X2818020Y8062180D01*
G01X2897730Y8016250D02*
X2923050D01*
G01X2970630Y7990000D02*
Y8068740D01*
X3007630D01*
G01X2994000Y8030680D02*
X2970630D01*
G01X2589210Y1170000D02*
X2596030Y1171310D01*
X2603810Y1175250D01*
X2608680Y1181810D01*
X2610630Y1191000D01*
X2608680Y1200180D01*
X2602840Y1208060D01*
X2594080Y1212000D01*
X2584340D01*
X2578500Y1214620D01*
X2573630Y1221180D01*
X2571680Y1230370D01*
X2574610Y1239550D01*
X2581420Y1246120D01*
X2589210Y1248740D01*
X2597000Y1246120D01*
X2603810Y1239550D01*
X2606740Y1230370D01*
X2604790Y1221180D01*
X2599920Y1214620D01*
X2594080Y1212000D01*
X2584340D01*
X2575580Y1208060D01*
X2569740Y1200180D01*
X2567790Y1191000D01*
X2569740Y1181810D01*
X2574610Y1175250D01*
X2582390Y1171310D01*
X2589210Y1170000D01*
G01X2642630D02*
Y1248740D01*
X2667950Y1183120D01*
X2693270Y1248740D01*
Y1170000D01*
G01X2726240D02*
Y1248740D01*
G01X2767140D02*
Y1170000D01*
G01Y1209370D02*
X2726240D01*
G01X2810830Y1222490D02*
X2840030D01*
X2810830Y1170000D01*
X2840030D01*
G01X3080710Y1665620D02*
X3086550Y1673490D01*
X3093370Y1677430D01*
X3101160Y1678740D01*
X3110890Y1676120D01*
X3117710Y1669550D01*
X3119660Y1661680D01*
X3118680Y1653800D01*
X3114790Y1647240D01*
X3095320Y1634120D01*
X3086550Y1624930D01*
X3080710Y1611810D01*
X3078760Y1600000D01*
X3119660D01*
G01X3177950Y1678740D02*
X3170160Y1676120D01*
X3164320Y1669550D01*
X3160420Y1661680D01*
X3157500Y1651180D01*
X3156530Y1639370D01*
X3157500Y1627560D01*
X3160420Y1617060D01*
X3164320Y1609180D01*
X3170160Y1602620D01*
X3177950Y1600000D01*
X3185740Y1602620D01*
X3191580Y1609180D01*
X3195480Y1617060D01*
X3198400Y1627560D01*
X3199370Y1639370D01*
X3198400Y1651180D01*
X3195480Y1661680D01*
X3191580Y1669550D01*
X3185740Y1676120D01*
X3177950Y1678740D01*
G01X3239160Y1573750D02*
Y1652490D01*
G01Y1640680D02*
X3244030Y1647240D01*
X3248900Y1651180D01*
X3256690Y1652490D01*
X3263510Y1651180D01*
X3270320Y1644620D01*
X3273240Y1635430D01*
X3274220Y1626250D01*
X3273240Y1617060D01*
X3270320Y1607870D01*
X3264480Y1602620D01*
X3256690Y1600000D01*
X3249870Y1601310D01*
X3243060Y1605250D01*
X3239160Y1610500D01*
G01X2740890Y3890000D02*
Y3968740D01*
X2704870Y3912310D01*
X2753550D01*
G01X2806000Y3890000D02*
X2807950Y3907060D01*
X2810870Y3921490D01*
X2814770Y3934620D01*
X2819630Y3949050D01*
X2827420Y3968740D01*
X2788480D01*
G01X2886690D02*
X2878900Y3966120D01*
X2873060Y3959550D01*
X2869160Y3951680D01*
X2866240Y3941180D01*
X2865270Y3929370D01*
X2866240Y3917560D01*
X2869160Y3907060D01*
X2873060Y3899180D01*
X2878900Y3892620D01*
X2886690Y3890000D01*
X2894480Y3892620D01*
X2900320Y3899180D01*
X2904220Y3907060D01*
X2907140Y3917560D01*
X2908110Y3929370D01*
X2907140Y3941180D01*
X2904220Y3951680D01*
X2900320Y3959550D01*
X2894480Y3966120D01*
X2886690Y3968740D01*
G01X3014380Y5290710D02*
X3006510Y5296550D01*
X3002570Y5303370D01*
X3001260Y5311160D01*
X3003880Y5320890D01*
X3010450Y5327710D01*
X3018320Y5329660D01*
X3026200Y5328680D01*
X3032760Y5324790D01*
X3045880Y5305320D01*
X3055070Y5296550D01*
X3068190Y5290710D01*
X3080000Y5288760D01*
Y5329660D01*
G01Y5365560D02*
X3001260D01*
X3080000Y5410340D01*
X3001260D01*
G01X3014380Y5448190D02*
X3006510Y5454030D01*
X3002570Y5460850D01*
X3001260Y5468640D01*
X3003880Y5478370D01*
X3010450Y5485190D01*
X3018320Y5487140D01*
X3026200Y5486160D01*
X3032760Y5482270D01*
X3045880Y5462800D01*
X3055070Y5454030D01*
X3068190Y5448190D01*
X3080000Y5446240D01*
Y5487140D01*
G01X3014380Y5526930D02*
X3006510Y5532770D01*
X3002570Y5539590D01*
X3001260Y5547380D01*
X3003880Y5557110D01*
X3010450Y5563930D01*
X3018320Y5565880D01*
X3026200Y5564900D01*
X3032760Y5561010D01*
X3045880Y5541540D01*
X3055070Y5532770D01*
X3068190Y5526930D01*
X3080000Y5524980D01*
Y5565880D01*
G01X3014380Y5605670D02*
X3006510Y5611510D01*
X3002570Y5618330D01*
X3001260Y5626120D01*
X3003880Y5635850D01*
X3010450Y5642670D01*
X3018320Y5644620D01*
X3026200Y5643640D01*
X3032760Y5639750D01*
X3045880Y5620280D01*
X3055070Y5611510D01*
X3068190Y5605670D01*
X3080000Y5603720D01*
Y5644620D01*
G01X3014380Y5684410D02*
X3006510Y5690250D01*
X3002570Y5697070D01*
X3001260Y5704860D01*
X3003880Y5714590D01*
X3010450Y5721410D01*
X3018320Y5723360D01*
X3026200Y5722380D01*
X3032760Y5718490D01*
X3045880Y5699020D01*
X3055070Y5690250D01*
X3068190Y5684410D01*
X3080000Y5682460D01*
Y5723360D01*
G01X2799210Y6300000D02*
Y6378740D01*
X2787530Y6362990D01*
G01Y6300000D02*
X2810890D01*
G01X2877950Y6378740D02*
X2870160Y6376120D01*
X2864320Y6369550D01*
X2860420Y6361680D01*
X2857500Y6351180D01*
X2856530Y6339370D01*
X2857500Y6327560D01*
X2860420Y6317060D01*
X2864320Y6309180D01*
X2870160Y6302620D01*
X2877950Y6300000D01*
X2885740Y6302620D01*
X2891580Y6309180D01*
X2895480Y6317060D01*
X2898400Y6327560D01*
X2899370Y6339370D01*
X2898400Y6351180D01*
X2895480Y6361680D01*
X2891580Y6369550D01*
X2885740Y6376120D01*
X2877950Y6378740D01*
G01X2940140Y6352490D02*
Y6315750D01*
X2944030Y6306560D01*
X2949870Y6301310D01*
X2956690Y6300000D01*
X2963510Y6301310D01*
X2969350Y6306560D01*
X2973240Y6315750D01*
G01Y6300000D02*
Y6352490D01*
G01X2820710Y5815620D02*
X2826550Y5823490D01*
X2833370Y5827430D01*
X2841160Y5828740D01*
X2850890Y5826120D01*
X2857710Y5819550D01*
X2859660Y5811680D01*
X2858680Y5803800D01*
X2854790Y5797240D01*
X2835320Y5784120D01*
X2826550Y5774930D01*
X2820710Y5761810D01*
X2818760Y5750000D01*
X2859660D01*
G01X2916000D02*
X2917950Y5767060D01*
X2920870Y5781490D01*
X2924770Y5794620D01*
X2929630Y5809050D01*
X2937420Y5828740D01*
X2898480D01*
G01X2979160Y5723750D02*
Y5802490D01*
G01Y5790680D02*
X2984030Y5797240D01*
X2988900Y5801180D01*
X2996690Y5802490D01*
X3003510Y5801180D01*
X3010320Y5794620D01*
X3013240Y5785430D01*
X3014220Y5776250D01*
X3013240Y5767060D01*
X3010320Y5757870D01*
X3004480Y5752620D01*
X2996690Y5750000D01*
X2989870Y5751310D01*
X2983060Y5755250D01*
X2979160Y5760500D01*
G01X2510890Y6690000D02*
Y6768740D01*
X2474870Y6712310D01*
X2523550D01*
G01X2577950Y6687380D02*
X2576000Y6688690D01*
Y6691310D01*
X2577950Y6692620D01*
X2579900Y6691310D01*
Y6688690D01*
X2577950Y6687380D01*
G01X2654740Y6690000D02*
X2656690Y6707060D01*
X2659610Y6721490D01*
X2663510Y6734620D01*
X2668370Y6749050D01*
X2676160Y6768740D01*
X2637220D01*
G01X2718880Y6742490D02*
Y6705750D01*
X2722770Y6696560D01*
X2728610Y6691310D01*
X2735430Y6690000D01*
X2742250Y6691310D01*
X2748090Y6696560D01*
X2751980Y6705750D01*
G01Y6690000D02*
Y6742490D01*
G01X2527530Y7548740D02*
X2550890D01*
G01X2539210D02*
Y7470000D01*
G01X2527530D02*
X2550890D01*
G01X2598480D02*
Y7548740D01*
X2622820D01*
X2630610Y7544800D01*
X2635480Y7539550D01*
X2637420Y7529050D01*
X2635480Y7518560D01*
X2629630Y7512000D01*
X2622820Y7508060D01*
X2598480D01*
G01X2622820D02*
X2637420Y7470000D01*
G01X2677220Y7548740D02*
Y7470000D01*
X2716160D01*
G01X2750110D02*
Y7548740D01*
X2775430Y7483120D01*
X2800750Y7548740D01*
Y7470000D01*
G01X2835670Y7535620D02*
X2841510Y7543490D01*
X2848330Y7547430D01*
X2856120Y7548740D01*
X2865850Y7546120D01*
X2872670Y7539550D01*
X2874620Y7531680D01*
X2873640Y7523800D01*
X2869750Y7517240D01*
X2850280Y7504120D01*
X2841510Y7494930D01*
X2835670Y7481810D01*
X2833720Y7470000D01*
X2874620D01*
G01X2932910D02*
X2939730Y7471310D01*
X2947510Y7475250D01*
X2952380Y7481810D01*
X2954330Y7491000D01*
X2952380Y7500180D01*
X2946540Y7508060D01*
X2937780Y7512000D01*
X2928040D01*
X2922200Y7514620D01*
X2917330Y7521180D01*
X2915380Y7530370D01*
X2918310Y7539550D01*
X2925120Y7546120D01*
X2932910Y7548740D01*
X2940700Y7546120D01*
X2947510Y7539550D01*
X2950440Y7530370D01*
X2948490Y7521180D01*
X2943620Y7514620D01*
X2937780Y7512000D01*
X2928040D01*
X2919280Y7508060D01*
X2913440Y7500180D01*
X2911490Y7491000D01*
X2913440Y7481810D01*
X2918310Y7475250D01*
X2926090Y7471310D01*
X2932910Y7470000D01*
G01X3011650Y7548740D02*
X3003860Y7546120D01*
X2998020Y7539550D01*
X2994120Y7531680D01*
X2991200Y7521180D01*
X2990230Y7509370D01*
X2991200Y7497560D01*
X2994120Y7487060D01*
X2998020Y7479180D01*
X3003860Y7472620D01*
X3011650Y7470000D01*
X3019440Y7472620D01*
X3025280Y7479180D01*
X3029180Y7487060D01*
X3032100Y7497560D01*
X3033070Y7509370D01*
X3032100Y7521180D01*
X3029180Y7531680D01*
X3025280Y7539550D01*
X3019440Y7546120D01*
X3011650Y7548740D01*
G01X3068970Y7485750D02*
X3074810Y7476560D01*
X3082600Y7471310D01*
X3091360Y7470000D01*
X3099150Y7471310D01*
X3106940Y7477870D01*
X3111810Y7485750D01*
X3112780Y7493620D01*
X3110840Y7502810D01*
X3104020Y7509370D01*
X3097210Y7512000D01*
X3088440D01*
G01X3097210D02*
X3103050Y7515930D01*
X3107920Y7522490D01*
X3109860Y7530370D01*
X3107920Y7538240D01*
X3103050Y7544800D01*
X3094280Y7548740D01*
X3085520Y7547430D01*
X3076760Y7542180D01*
G01X2800000Y7070890D02*
X2721260D01*
X2777690Y7034870D01*
Y7083550D01*
G01X2800000Y7136000D02*
X2782940Y7137950D01*
X2768510Y7140870D01*
X2755380Y7144770D01*
X2740950Y7149630D01*
X2721260Y7157420D01*
Y7118480D01*
G01Y7216690D02*
X2723880Y7208900D01*
X2730450Y7203060D01*
X2738320Y7199160D01*
X2748820Y7196240D01*
X2760630Y7195270D01*
X2772440Y7196240D01*
X2782940Y7199160D01*
X2790820Y7203060D01*
X2797380Y7208900D01*
X2800000Y7216690D01*
X2797380Y7224480D01*
X2790820Y7230320D01*
X2782940Y7234220D01*
X2772440Y7237140D01*
X2760630Y7238110D01*
X2748820Y7237140D01*
X2738320Y7234220D01*
X2730450Y7230320D01*
X2723880Y7224480D01*
X2721260Y7216690D01*
G01X3710000Y2559210D02*
X3631260D01*
X3647010Y2547530D01*
G01X3710000D02*
Y2570890D01*
G01X3631260Y2637950D02*
X3633880Y2630160D01*
X3640450Y2624320D01*
X3648320Y2620420D01*
X3658820Y2617500D01*
X3670630Y2616530D01*
X3682440Y2617500D01*
X3692940Y2620420D01*
X3700820Y2624320D01*
X3707380Y2630160D01*
X3710000Y2637950D01*
X3707380Y2645740D01*
X3700820Y2651580D01*
X3692940Y2655480D01*
X3682440Y2658400D01*
X3670630Y2659370D01*
X3658820Y2658400D01*
X3648320Y2655480D01*
X3640450Y2651580D01*
X3633880Y2645740D01*
X3631260Y2637950D01*
G01Y2716690D02*
X3633880Y2708900D01*
X3640450Y2703060D01*
X3648320Y2699160D01*
X3658820Y2696240D01*
X3670630Y2695270D01*
X3682440Y2696240D01*
X3692940Y2699160D01*
X3700820Y2703060D01*
X3707380Y2708900D01*
X3710000Y2716690D01*
X3707380Y2724480D01*
X3700820Y2730320D01*
X3692940Y2734220D01*
X3682440Y2737140D01*
X3670630Y2738110D01*
X3658820Y2737140D01*
X3648320Y2734220D01*
X3640450Y2730320D01*
X3633880Y2724480D01*
X3631260Y2716690D01*
G01X3710000Y2778880D02*
X3657510D01*
G01X3670630D02*
X3664070Y2782770D01*
X3658820Y2788610D01*
X3657510Y2796400D01*
X3658820Y2803220D01*
X3664070Y2809060D01*
X3673260Y2811980D01*
X3710000D01*
G01X3619740Y2100000D02*
Y2178740D01*
X3643100D01*
X3650890Y2174800D01*
X3656740Y2165620D01*
X3658680Y2155120D01*
X3656740Y2144620D01*
X3651870Y2136740D01*
X3643100Y2132810D01*
X3619740D01*
G01X3703350Y2135430D02*
X3734500D01*
X3731580Y2144620D01*
X3726710Y2149870D01*
X3719900Y2152490D01*
X3713080Y2151180D01*
X3707240Y2147240D01*
X3703350Y2138060D01*
X3701400Y2130180D01*
Y2122310D01*
X3703350Y2114430D01*
X3708210Y2106560D01*
X3714060Y2101310D01*
X3720870Y2100000D01*
X3727690Y2102620D01*
X3734500Y2110500D01*
G01X3783060Y2100000D02*
Y2152490D01*
G01Y2142000D02*
X3787930Y2147240D01*
X3792800Y2151180D01*
X3799610Y2152490D01*
X3804480Y2151180D01*
X3810320Y2147240D01*
G01X3875430Y2100000D02*
Y2178740D01*
G01X3939570Y2135430D02*
X3970720D01*
X3967800Y2144620D01*
X3962930Y2149870D01*
X3956120Y2152490D01*
X3949300Y2151180D01*
X3943460Y2147240D01*
X3939570Y2138060D01*
X3937620Y2130180D01*
Y2122310D01*
X3939570Y2114430D01*
X3944430Y2106560D01*
X3950280Y2101310D01*
X3957090Y2100000D01*
X3963910Y2102620D01*
X3970720Y2110500D01*
G01X4091200Y2100000D02*
Y2178740D01*
G01X4132100D02*
Y2100000D01*
G01Y2139370D02*
X4091200D01*
G01X4171890Y2100000D02*
Y2178740D01*
X4208890D01*
G01X4195260Y2140680D02*
X4171890D01*
G01X3194380Y4400710D02*
X3186510Y4406550D01*
X3182570Y4413370D01*
X3181260Y4421160D01*
X3183880Y4430890D01*
X3190450Y4437710D01*
X3198320Y4439660D01*
X3206200Y4438680D01*
X3212760Y4434790D01*
X3225880Y4415320D01*
X3235070Y4406550D01*
X3248190Y4400710D01*
X3260000Y4398760D01*
Y4439660D01*
G01Y4475560D02*
X3181260D01*
X3260000Y4520340D01*
X3181260D01*
G01X3194380Y4558190D02*
X3186510Y4564030D01*
X3182570Y4570850D01*
X3181260Y4578640D01*
X3183880Y4588370D01*
X3190450Y4595190D01*
X3198320Y4597140D01*
X3206200Y4596160D01*
X3212760Y4592270D01*
X3225880Y4572800D01*
X3235070Y4564030D01*
X3248190Y4558190D01*
X3260000Y4556240D01*
Y4597140D01*
G01X3194380Y4636930D02*
X3186510Y4642770D01*
X3182570Y4649590D01*
X3181260Y4657380D01*
X3183880Y4667110D01*
X3190450Y4673930D01*
X3198320Y4675880D01*
X3206200Y4674900D01*
X3212760Y4671010D01*
X3225880Y4651540D01*
X3235070Y4642770D01*
X3248190Y4636930D01*
X3260000Y4634980D01*
Y4675880D01*
G01X3194380Y4715670D02*
X3186510Y4721510D01*
X3182570Y4728330D01*
X3181260Y4736120D01*
X3183880Y4745850D01*
X3190450Y4752670D01*
X3198320Y4754620D01*
X3206200Y4753640D01*
X3212760Y4749750D01*
X3225880Y4730280D01*
X3235070Y4721510D01*
X3248190Y4715670D01*
X3260000Y4713720D01*
Y4754620D01*
G01X3194380Y4794410D02*
X3186510Y4800250D01*
X3182570Y4807070D01*
X3181260Y4814860D01*
X3183880Y4824590D01*
X3190450Y4831410D01*
X3198320Y4833360D01*
X3206200Y4832380D01*
X3212760Y4828490D01*
X3225880Y4809020D01*
X3235070Y4800250D01*
X3248190Y4794410D01*
X3260000Y4792460D01*
Y4833360D01*
G01X3184380Y4940710D02*
X3176510Y4946550D01*
X3172570Y4953370D01*
X3171260Y4961160D01*
X3173880Y4970890D01*
X3180450Y4977710D01*
X3188320Y4979660D01*
X3196200Y4978680D01*
X3202760Y4974790D01*
X3215880Y4955320D01*
X3225070Y4946550D01*
X3238190Y4940710D01*
X3250000Y4938760D01*
Y4979660D01*
G01Y5015560D02*
X3171260D01*
X3250000Y5060340D01*
X3171260D01*
G01X3184380Y5098190D02*
X3176510Y5104030D01*
X3172570Y5110850D01*
X3171260Y5118640D01*
X3173880Y5128370D01*
X3180450Y5135190D01*
X3188320Y5137140D01*
X3196200Y5136160D01*
X3202760Y5132270D01*
X3215880Y5112800D01*
X3225070Y5104030D01*
X3238190Y5098190D01*
X3250000Y5096240D01*
Y5137140D01*
G01X3184380Y5176930D02*
X3176510Y5182770D01*
X3172570Y5189590D01*
X3171260Y5197380D01*
X3173880Y5207110D01*
X3180450Y5213930D01*
X3188320Y5215880D01*
X3196200Y5214900D01*
X3202760Y5211010D01*
X3215880Y5191540D01*
X3225070Y5182770D01*
X3238190Y5176930D01*
X3250000Y5174980D01*
Y5215880D01*
G01X3184380Y5255670D02*
X3176510Y5261510D01*
X3172570Y5268330D01*
X3171260Y5276120D01*
X3173880Y5285850D01*
X3180450Y5292670D01*
X3188320Y5294620D01*
X3196200Y5293640D01*
X3202760Y5289750D01*
X3215880Y5270280D01*
X3225070Y5261510D01*
X3238190Y5255670D01*
X3250000Y5253720D01*
Y5294620D01*
G01X3184380Y5334410D02*
X3176510Y5340250D01*
X3172570Y5347070D01*
X3171260Y5354860D01*
X3173880Y5364590D01*
X3180450Y5371410D01*
X3188320Y5373360D01*
X3196200Y5372380D01*
X3202760Y5368490D01*
X3215880Y5349020D01*
X3225070Y5340250D01*
X3238190Y5334410D01*
X3250000Y5332460D01*
Y5373360D01*
G01X3419210Y4630000D02*
Y4708740D01*
X3407530Y4692990D01*
G01Y4630000D02*
X3430890D01*
G01X3481400D02*
Y4708740D01*
G01X3512550Y4682490D02*
X3481400Y4652310D01*
G01X3494060Y4664120D02*
X3514500Y4630000D01*
G01X3409210Y4940000D02*
Y5018740D01*
X3397530Y5002990D01*
G01Y4940000D02*
X3420890D01*
G01X3471400D02*
Y5018740D01*
G01X3502550Y4992490D02*
X3471400Y4962310D01*
G01X3484060Y4974120D02*
X3504500Y4940000D01*
G01X3651260Y5589740D02*
X3730000D01*
Y5628680D01*
G01X3694570Y5673350D02*
Y5704500D01*
X3685380Y5701580D01*
X3680130Y5696710D01*
X3677510Y5689900D01*
X3678820Y5683080D01*
X3682760Y5677240D01*
X3691940Y5673350D01*
X3699820Y5671400D01*
X3707690D01*
X3715570Y5673350D01*
X3723440Y5678210D01*
X3728690Y5684060D01*
X3730000Y5690870D01*
X3727380Y5697690D01*
X3719500Y5704500D01*
G01X3651260Y5784220D02*
X3730000D01*
G01X3718190D02*
X3724750Y5780320D01*
X3728690Y5774480D01*
X3730000Y5767660D01*
X3727380Y5759870D01*
X3720820Y5754030D01*
X3712940Y5750140D01*
X3703750Y5749160D01*
X3694570Y5750140D01*
X3686690Y5754030D01*
X3680130Y5759870D01*
X3677510Y5767660D01*
X3678820Y5774480D01*
X3681440Y5779350D01*
X3686690Y5784220D01*
G01X3479210Y5220000D02*
Y5298740D01*
X3467530Y5282990D01*
G01Y5220000D02*
X3490890D01*
G01X3541400D02*
Y5298740D01*
G01X3572550Y5272490D02*
X3541400Y5242310D01*
G01X3554060Y5254120D02*
X3574500Y5220000D01*
G01X3379210Y5670000D02*
Y5748740D01*
X3367530Y5732990D01*
G01Y5670000D02*
X3390890D01*
G01X3457950Y5748740D02*
X3450160Y5746120D01*
X3444320Y5739550D01*
X3440420Y5731680D01*
X3437500Y5721180D01*
X3436530Y5709370D01*
X3437500Y5697560D01*
X3440420Y5687060D01*
X3444320Y5679180D01*
X3450160Y5672620D01*
X3457950Y5670000D01*
X3465740Y5672620D01*
X3471580Y5679180D01*
X3475480Y5687060D01*
X3478400Y5697560D01*
X3479370Y5709370D01*
X3478400Y5721180D01*
X3475480Y5731680D01*
X3471580Y5739550D01*
X3465740Y5746120D01*
X3457950Y5748740D01*
G01X3536690D02*
X3528900Y5746120D01*
X3523060Y5739550D01*
X3519160Y5731680D01*
X3516240Y5721180D01*
X3515270Y5709370D01*
X3516240Y5697560D01*
X3519160Y5687060D01*
X3523060Y5679180D01*
X3528900Y5672620D01*
X3536690Y5670000D01*
X3544480Y5672620D01*
X3550320Y5679180D01*
X3554220Y5687060D01*
X3557140Y5697560D01*
X3558110Y5709370D01*
X3557140Y5721180D01*
X3554220Y5731680D01*
X3550320Y5739550D01*
X3544480Y5746120D01*
X3536690Y5748740D01*
G01X3299210Y6010000D02*
Y6088740D01*
X3287530Y6072990D01*
G01Y6010000D02*
X3310890D01*
G01X3377950Y6088740D02*
X3370160Y6086120D01*
X3364320Y6079550D01*
X3360420Y6071680D01*
X3357500Y6061180D01*
X3356530Y6049370D01*
X3357500Y6037560D01*
X3360420Y6027060D01*
X3364320Y6019180D01*
X3370160Y6012620D01*
X3377950Y6010000D01*
X3385740Y6012620D01*
X3391580Y6019180D01*
X3395480Y6027060D01*
X3398400Y6037560D01*
X3399370Y6049370D01*
X3398400Y6061180D01*
X3395480Y6071680D01*
X3391580Y6079550D01*
X3385740Y6086120D01*
X3377950Y6088740D01*
G01X3456690D02*
X3448900Y6086120D01*
X3443060Y6079550D01*
X3439160Y6071680D01*
X3436240Y6061180D01*
X3435270Y6049370D01*
X3436240Y6037560D01*
X3439160Y6027060D01*
X3443060Y6019180D01*
X3448900Y6012620D01*
X3456690Y6010000D01*
X3464480Y6012620D01*
X3470320Y6019180D01*
X3474220Y6027060D01*
X3477140Y6037560D01*
X3478110Y6049370D01*
X3477140Y6061180D01*
X3474220Y6071680D01*
X3470320Y6079550D01*
X3464480Y6086120D01*
X3456690Y6088740D01*
G01X3518880Y6010000D02*
Y6062490D01*
G01Y6049370D02*
X3522770Y6055930D01*
X3528610Y6061180D01*
X3536400Y6062490D01*
X3543220Y6061180D01*
X3549060Y6055930D01*
X3551980Y6046740D01*
Y6010000D01*
G01X3139740Y6998740D02*
Y6920000D01*
X3178680D01*
G01X3216530D02*
Y6998740D01*
X3236000D01*
X3243790Y6994800D01*
X3249630Y6989550D01*
X3254500Y6981680D01*
X3258400Y6972490D01*
X3259370Y6959370D01*
X3258400Y6946250D01*
X3254500Y6937060D01*
X3249630Y6929180D01*
X3243790Y6923940D01*
X3236000Y6920000D01*
X3216530D01*
G01X3316690D02*
Y6998740D01*
X3305010Y6982990D01*
G01Y6920000D02*
X3328370D01*
G01X3395430D02*
Y6998740D01*
X3383750Y6982990D01*
G01Y6920000D02*
X3407110D01*
G01X3474170D02*
Y6998740D01*
X3462490Y6982990D01*
G01Y6920000D02*
X3485850D01*
G01X3550960D02*
X3552910Y6937060D01*
X3555830Y6951490D01*
X3559730Y6964620D01*
X3564590Y6979050D01*
X3572380Y6998740D01*
X3533440D01*
G01X3611200Y6930500D02*
X3618990Y6923940D01*
X3627760Y6920000D01*
X3635540D01*
X3643330Y6923940D01*
X3649180Y6930500D01*
X3652100Y6939690D01*
X3650150Y6948870D01*
X3645280Y6956740D01*
X3636520Y6962000D01*
X3624830Y6964620D01*
X3618020Y6969870D01*
X3615100Y6979050D01*
X3617050Y6988240D01*
X3621910Y6994800D01*
X3628730Y6998740D01*
X3635540D01*
X3642360Y6996120D01*
X3648200Y6989550D01*
G01X3688970Y6935750D02*
X3694810Y6926560D01*
X3702600Y6921310D01*
X3711360Y6920000D01*
X3719150Y6921310D01*
X3726940Y6927870D01*
X3731810Y6935750D01*
X3732780Y6943620D01*
X3730840Y6952810D01*
X3724020Y6959370D01*
X3717210Y6962000D01*
X3708440D01*
G01X3717210D02*
X3723050Y6965930D01*
X3727920Y6972490D01*
X3729860Y6980370D01*
X3727920Y6988240D01*
X3723050Y6994800D01*
X3714280Y6998740D01*
X3705520Y6997430D01*
X3696760Y6992180D01*
G01X3767710Y6935750D02*
X3773550Y6926560D01*
X3781340Y6921310D01*
X3790100Y6920000D01*
X3797890Y6921310D01*
X3805680Y6927870D01*
X3810550Y6935750D01*
X3811520Y6943620D01*
X3809580Y6952810D01*
X3802760Y6959370D01*
X3795950Y6962000D01*
X3787180D01*
G01X3795950D02*
X3801790Y6965930D01*
X3806660Y6972490D01*
X3808600Y6980370D01*
X3806660Y6988240D01*
X3801790Y6994800D01*
X3793020Y6998740D01*
X3784260Y6997430D01*
X3775500Y6992180D01*
G01X3867870Y6998740D02*
Y6920000D01*
G01X3845480Y6998740D02*
X3890260D01*
G01X3927140Y6920000D02*
Y6998740D01*
X3951480D01*
X3959270Y6994800D01*
X3964140Y6989550D01*
X3966080Y6979050D01*
X3964140Y6968560D01*
X3958290Y6962000D01*
X3951480Y6958060D01*
X3927140D01*
G01X3951480D02*
X3966080Y6920000D01*
G01X3379210Y6430000D02*
Y6508740D01*
X3367530Y6492990D01*
G01Y6430000D02*
X3390890D01*
G01X3457950Y6508740D02*
X3450160Y6506120D01*
X3444320Y6499550D01*
X3440420Y6491680D01*
X3437500Y6481180D01*
X3436530Y6469370D01*
X3437500Y6457560D01*
X3440420Y6447060D01*
X3444320Y6439180D01*
X3450160Y6432620D01*
X3457950Y6430000D01*
X3465740Y6432620D01*
X3471580Y6439180D01*
X3475480Y6447060D01*
X3478400Y6457560D01*
X3479370Y6469370D01*
X3478400Y6481180D01*
X3475480Y6491680D01*
X3471580Y6499550D01*
X3465740Y6506120D01*
X3457950Y6508740D01*
G01X3520140Y6482490D02*
Y6445750D01*
X3524030Y6436560D01*
X3529870Y6431310D01*
X3536690Y6430000D01*
X3543510Y6431310D01*
X3549350Y6436560D01*
X3553240Y6445750D01*
G01Y6430000D02*
Y6482490D01*
G01X3719210Y7500000D02*
Y7578740D01*
X3707530Y7562990D01*
G01Y7500000D02*
X3730890D01*
G01X3797950Y7578740D02*
X3790160Y7576120D01*
X3784320Y7569550D01*
X3780420Y7561680D01*
X3777500Y7551180D01*
X3776530Y7539370D01*
X3777500Y7527560D01*
X3780420Y7517060D01*
X3784320Y7509180D01*
X3790160Y7502620D01*
X3797950Y7500000D01*
X3805740Y7502620D01*
X3811580Y7509180D01*
X3815480Y7517060D01*
X3818400Y7527560D01*
X3819370Y7539370D01*
X3818400Y7551180D01*
X3815480Y7561680D01*
X3811580Y7569550D01*
X3805740Y7576120D01*
X3797950Y7578740D01*
G01X3860140Y7552490D02*
Y7515750D01*
X3864030Y7506560D01*
X3869870Y7501310D01*
X3876690Y7500000D01*
X3883510Y7501310D01*
X3889350Y7506560D01*
X3893240Y7515750D01*
G01Y7500000D02*
Y7552490D01*
G01X3834380Y1280710D02*
X3826510Y1286550D01*
X3822570Y1293370D01*
X3821260Y1301160D01*
X3823880Y1310890D01*
X3830450Y1317710D01*
X3838320Y1319660D01*
X3846200Y1318680D01*
X3852760Y1314790D01*
X3865880Y1295320D01*
X3875070Y1286550D01*
X3888190Y1280710D01*
X3900000Y1278760D01*
Y1319660D01*
G01X3834380Y1359450D02*
X3826510Y1365290D01*
X3822570Y1372110D01*
X3821260Y1379900D01*
X3823880Y1389630D01*
X3830450Y1396450D01*
X3838320Y1398400D01*
X3846200Y1397420D01*
X3852760Y1393530D01*
X3865880Y1374060D01*
X3875070Y1365290D01*
X3888190Y1359450D01*
X3900000Y1357500D01*
Y1398400D01*
G01X3799210Y3140000D02*
Y3218740D01*
X3787530Y3202990D01*
G01Y3140000D02*
X3810890D01*
G01X3877950Y3218740D02*
X3870160Y3216120D01*
X3864320Y3209550D01*
X3860420Y3201680D01*
X3857500Y3191180D01*
X3856530Y3179370D01*
X3857500Y3167560D01*
X3860420Y3157060D01*
X3864320Y3149180D01*
X3870160Y3142620D01*
X3877950Y3140000D01*
X3885740Y3142620D01*
X3891580Y3149180D01*
X3895480Y3157060D01*
X3898400Y3167560D01*
X3899370Y3179370D01*
X3898400Y3191180D01*
X3895480Y3201680D01*
X3891580Y3209550D01*
X3885740Y3216120D01*
X3877950Y3218740D01*
G01X3956690D02*
X3948900Y3216120D01*
X3943060Y3209550D01*
X3939160Y3201680D01*
X3936240Y3191180D01*
X3935270Y3179370D01*
X3936240Y3167560D01*
X3939160Y3157060D01*
X3943060Y3149180D01*
X3948900Y3142620D01*
X3956690Y3140000D01*
X3964480Y3142620D01*
X3970320Y3149180D01*
X3974220Y3157060D01*
X3977140Y3167560D01*
X3978110Y3179370D01*
X3977140Y3191180D01*
X3974220Y3201680D01*
X3970320Y3209550D01*
X3964480Y3216120D01*
X3956690Y3218740D01*
G01X4018880Y3140000D02*
Y3192490D01*
G01Y3179370D02*
X4022770Y3185930D01*
X4028610Y3191180D01*
X4036400Y3192490D01*
X4043220Y3191180D01*
X4049060Y3185930D01*
X4051980Y3176740D01*
Y3140000D01*
G01X3790890Y3440000D02*
Y3518740D01*
X3754870Y3462310D01*
X3803550D01*
G01X3857950Y3437380D02*
X3856000Y3438690D01*
Y3441310D01*
X3857950Y3442620D01*
X3859900Y3441310D01*
Y3438690D01*
X3857950Y3437380D01*
G01X3934740Y3440000D02*
X3936690Y3457060D01*
X3939610Y3471490D01*
X3943510Y3484620D01*
X3948370Y3499050D01*
X3956160Y3518740D01*
X3917220D01*
G01X3998880Y3492490D02*
Y3455750D01*
X4002770Y3446560D01*
X4008610Y3441310D01*
X4015430Y3440000D01*
X4022250Y3441310D01*
X4028090Y3446560D01*
X4031980Y3455750D01*
G01Y3440000D02*
Y3492490D01*
G01X4229210Y4370000D02*
Y4448740D01*
X4217530Y4432990D01*
G01Y4370000D02*
X4240890D01*
G01X4307950Y4448740D02*
X4300160Y4446120D01*
X4294320Y4439550D01*
X4290420Y4431680D01*
X4287500Y4421180D01*
X4286530Y4409370D01*
X4287500Y4397560D01*
X4290420Y4387060D01*
X4294320Y4379180D01*
X4300160Y4372620D01*
X4307950Y4370000D01*
X4315740Y4372620D01*
X4321580Y4379180D01*
X4325480Y4387060D01*
X4328400Y4397560D01*
X4329370Y4409370D01*
X4328400Y4421180D01*
X4325480Y4431680D01*
X4321580Y4439550D01*
X4315740Y4446120D01*
X4307950Y4448740D01*
G01X4386690D02*
X4378900Y4446120D01*
X4373060Y4439550D01*
X4369160Y4431680D01*
X4366240Y4421180D01*
X4365270Y4409370D01*
X4366240Y4397560D01*
X4369160Y4387060D01*
X4373060Y4379180D01*
X4378900Y4372620D01*
X4386690Y4370000D01*
X4394480Y4372620D01*
X4400320Y4379180D01*
X4404220Y4387060D01*
X4407140Y4397560D01*
X4408110Y4409370D01*
X4407140Y4421180D01*
X4404220Y4431680D01*
X4400320Y4439550D01*
X4394480Y4446120D01*
X4386690Y4448740D01*
G01X4448880Y4370000D02*
Y4448740D01*
G01X4480030Y4422490D02*
X4448880Y4392310D01*
G01X4461540Y4404120D02*
X4481980Y4370000D01*
G01X4013890Y5410000D02*
Y5488740D01*
X4039210Y5423120D01*
X4064530Y5488740D01*
Y5410000D01*
G01X4101400Y5419180D02*
X4108210Y5412620D01*
X4116000Y5410000D01*
X4123790Y5412620D01*
X4130610Y5420500D01*
X4135480Y5432310D01*
X4137420Y5444120D01*
Y5458560D01*
X4135480Y5470370D01*
X4130610Y5480870D01*
X4124770Y5486120D01*
X4117950Y5488740D01*
X4110160Y5486120D01*
X4104320Y5480870D01*
X4100420Y5472990D01*
X4098480Y5462490D01*
X4100420Y5453310D01*
X4105290Y5444120D01*
X4111130Y5438870D01*
X4117950Y5437560D01*
X4125740Y5440180D01*
X4131580Y5446740D01*
X4137420Y5458560D01*
G01X4175270Y5421810D02*
X4181110Y5415250D01*
X4187930Y5411310D01*
X4196690Y5410000D01*
X4205450Y5412620D01*
X4212270Y5417870D01*
X4217140Y5427060D01*
X4218110Y5437560D01*
X4216160Y5448060D01*
X4211290Y5454620D01*
X4204480Y5459870D01*
X4197660Y5461180D01*
X4190850Y5459870D01*
X4182090Y5454620D01*
X4185010Y5488740D01*
X4211290D01*
G01X4256930Y5442810D02*
X4263750Y5452000D01*
X4269590Y5457240D01*
X4277380Y5459870D01*
X4284190Y5457240D01*
X4289060Y5452000D01*
X4292960Y5444120D01*
X4293930Y5434930D01*
X4292960Y5427060D01*
X4289060Y5419180D01*
X4283220Y5412620D01*
X4276400Y5410000D01*
X4268610Y5412620D01*
X4261800Y5420500D01*
X4257900Y5432310D01*
X4256930Y5445430D01*
X4258880Y5462490D01*
X4261800Y5471680D01*
X4266670Y5480870D01*
X4273480Y5487430D01*
X4280300Y5488740D01*
X4287110Y5486120D01*
X4291980Y5479550D01*
G01X4365850Y5410000D02*
Y5488740D01*
X4329830Y5432310D01*
X4378510D01*
G01X4432910Y5488740D02*
X4425120Y5486120D01*
X4419280Y5479550D01*
X4415380Y5471680D01*
X4412460Y5461180D01*
X4411490Y5449370D01*
X4412460Y5437560D01*
X4415380Y5427060D01*
X4419280Y5419180D01*
X4425120Y5412620D01*
X4432910Y5410000D01*
X4440700Y5412620D01*
X4446540Y5419180D01*
X4450440Y5427060D01*
X4453360Y5437560D01*
X4454330Y5449370D01*
X4453360Y5461180D01*
X4450440Y5471680D01*
X4446540Y5479550D01*
X4440700Y5486120D01*
X4432910Y5488740D01*
G01X3810630Y5515050D02*
Y5534530D01*
X3834250D01*
X3842130Y5528680D01*
X3847380Y5521870D01*
X3850000Y5512130D01*
X3847380Y5502390D01*
X3842130Y5495580D01*
X3834250Y5489740D01*
X3825070Y5485840D01*
X3814570Y5483890D01*
X3805380D01*
X3797510Y5485840D01*
X3788320Y5489740D01*
X3780450Y5495580D01*
X3775200Y5501420D01*
X3771260Y5509210D01*
Y5516030D01*
X3773880Y5523810D01*
X3779130Y5529660D01*
G01X3850000Y5574320D02*
X3797510D01*
G01X3808000D02*
X3802760Y5579190D01*
X3798820Y5584060D01*
X3797510Y5590870D01*
X3798820Y5595740D01*
X3802760Y5601580D01*
G01X3814570Y5652090D02*
Y5683240D01*
X3805380Y5680320D01*
X3800130Y5675450D01*
X3797510Y5668640D01*
X3798820Y5661820D01*
X3802760Y5655980D01*
X3811940Y5652090D01*
X3819820Y5650140D01*
X3827690D01*
X3835570Y5652090D01*
X3843440Y5656950D01*
X3848690Y5662800D01*
X3850000Y5669610D01*
X3847380Y5676430D01*
X3839500Y5683240D01*
G01X3814570Y5730830D02*
Y5761980D01*
X3805380Y5759060D01*
X3800130Y5754190D01*
X3797510Y5747380D01*
X3798820Y5740560D01*
X3802760Y5734720D01*
X3811940Y5730830D01*
X3819820Y5728880D01*
X3827690D01*
X3835570Y5730830D01*
X3843440Y5735690D01*
X3848690Y5741540D01*
X3850000Y5748350D01*
X3847380Y5755170D01*
X3839500Y5761980D01*
G01X3850000Y5807620D02*
X3797510D01*
G01X3810630D02*
X3804070Y5811510D01*
X3798820Y5817350D01*
X3797510Y5825140D01*
X3798820Y5831960D01*
X3804070Y5837800D01*
X3813260Y5840720D01*
X3850000D01*
G01X4130000Y6019210D02*
X4051260D01*
X4067010Y6007530D01*
G01X4130000D02*
Y6030890D01*
G01X4051260Y6097950D02*
X4053880Y6090160D01*
X4060450Y6084320D01*
X4068320Y6080420D01*
X4078820Y6077500D01*
X4090630Y6076530D01*
X4102440Y6077500D01*
X4112940Y6080420D01*
X4120820Y6084320D01*
X4127380Y6090160D01*
X4130000Y6097950D01*
X4127380Y6105740D01*
X4120820Y6111580D01*
X4112940Y6115480D01*
X4102440Y6118400D01*
X4090630Y6119370D01*
X4078820Y6118400D01*
X4068320Y6115480D01*
X4060450Y6111580D01*
X4053880Y6105740D01*
X4051260Y6097950D01*
G01Y6176690D02*
X4053880Y6168900D01*
X4060450Y6163060D01*
X4068320Y6159160D01*
X4078820Y6156240D01*
X4090630Y6155270D01*
X4102440Y6156240D01*
X4112940Y6159160D01*
X4120820Y6163060D01*
X4127380Y6168900D01*
X4130000Y6176690D01*
X4127380Y6184480D01*
X4120820Y6190320D01*
X4112940Y6194220D01*
X4102440Y6197140D01*
X4090630Y6198110D01*
X4078820Y6197140D01*
X4068320Y6194220D01*
X4060450Y6190320D01*
X4053880Y6184480D01*
X4051260Y6176690D01*
G01X4130000Y6238880D02*
X4051260D01*
G01X4077510Y6270030D02*
X4107690Y6238880D01*
G01X4095880Y6251540D02*
X4130000Y6271980D01*
G01X4190000Y7720890D02*
X4111260D01*
X4167690Y7684870D01*
Y7733550D01*
G01X4190000Y7786000D02*
X4172940Y7787950D01*
X4158510Y7790870D01*
X4145380Y7794770D01*
X4130950Y7799630D01*
X4111260Y7807420D01*
Y7768480D01*
G01X4190000Y7850140D02*
X4111260D01*
G01X4137510Y7881290D02*
X4167690Y7850140D01*
G01X4155880Y7862800D02*
X4190000Y7883240D01*
G01X4740000Y4979210D02*
X4661260D01*
X4677010Y4967530D01*
G01X4740000D02*
Y4990890D01*
G01X4661260Y5057950D02*
X4663880Y5050160D01*
X4670450Y5044320D01*
X4678320Y5040420D01*
X4688820Y5037500D01*
X4700630Y5036530D01*
X4712440Y5037500D01*
X4722940Y5040420D01*
X4730820Y5044320D01*
X4737380Y5050160D01*
X4740000Y5057950D01*
X4737380Y5065740D01*
X4730820Y5071580D01*
X4722940Y5075480D01*
X4712440Y5078400D01*
X4700630Y5079370D01*
X4688820Y5078400D01*
X4678320Y5075480D01*
X4670450Y5071580D01*
X4663880Y5065740D01*
X4661260Y5057950D01*
G01Y5136690D02*
X4663880Y5128900D01*
X4670450Y5123060D01*
X4678320Y5119160D01*
X4688820Y5116240D01*
X4700630Y5115270D01*
X4712440Y5116240D01*
X4722940Y5119160D01*
X4730820Y5123060D01*
X4737380Y5128900D01*
X4740000Y5136690D01*
X4737380Y5144480D01*
X4730820Y5150320D01*
X4722940Y5154220D01*
X4712440Y5157140D01*
X4700630Y5158110D01*
X4688820Y5157140D01*
X4678320Y5154220D01*
X4670450Y5150320D01*
X4663880Y5144480D01*
X4661260Y5136690D01*
G01X4740000Y5198880D02*
X4687510D01*
G01X4700630D02*
X4694070Y5202770D01*
X4688820Y5208610D01*
X4687510Y5216400D01*
X4688820Y5223220D01*
X4694070Y5229060D01*
X4703260Y5231980D01*
X4740000D01*
G01Y5499210D02*
X4661260D01*
X4677010Y5487530D01*
G01X4740000D02*
Y5510890D01*
G01X4661260Y5577950D02*
X4663880Y5570160D01*
X4670450Y5564320D01*
X4678320Y5560420D01*
X4688820Y5557500D01*
X4700630Y5556530D01*
X4712440Y5557500D01*
X4722940Y5560420D01*
X4730820Y5564320D01*
X4737380Y5570160D01*
X4740000Y5577950D01*
X4737380Y5585740D01*
X4730820Y5591580D01*
X4722940Y5595480D01*
X4712440Y5598400D01*
X4700630Y5599370D01*
X4688820Y5598400D01*
X4678320Y5595480D01*
X4670450Y5591580D01*
X4663880Y5585740D01*
X4661260Y5577950D01*
G01X4740000Y5640140D02*
X4661260D01*
G01X4687510Y5671290D02*
X4717690Y5640140D01*
G01X4705880Y5652800D02*
X4740000Y5673240D01*
G01X4507000Y6712000D02*
X4510890Y6715930D01*
X4513810Y6722490D01*
X4515760Y6731680D01*
X4513810Y6739550D01*
X4509920Y6744800D01*
X4503100Y6748740D01*
X4476820D01*
Y6670000D01*
X4508950D01*
X4515760Y6675250D01*
X4519660Y6683120D01*
X4521600Y6692310D01*
X4519660Y6701490D01*
X4513810Y6709370D01*
X4507000Y6712000D01*
X4476820D01*
G01X4558480Y6748740D02*
Y6670000D01*
X4597420D01*
G01X4676160D02*
X4637220D01*
Y6748740D01*
X4676160D01*
G01X4660580Y6710680D02*
X4637220D01*
G01X4788850Y6670000D02*
Y6748740D01*
X4814170Y6683120D01*
X4839490Y6748740D01*
Y6670000D01*
G01X4892910D02*
X4887070Y6671310D01*
X4881230Y6676560D01*
X4877330Y6685750D01*
X4875380Y6696250D01*
X4877330Y6706740D01*
X4881230Y6715930D01*
X4887070Y6721180D01*
X4892910Y6722490D01*
X4898750Y6721180D01*
X4904590Y6715930D01*
X4908490Y6706740D01*
X4909460Y6696250D01*
X4908490Y6685750D01*
X4904590Y6676560D01*
X4898750Y6671310D01*
X4892910Y6670000D01*
G01X4989180Y6748740D02*
Y6670000D01*
G01Y6681810D02*
X4985280Y6675250D01*
X4979440Y6671310D01*
X4972620Y6670000D01*
X4964830Y6672620D01*
X4958990Y6679180D01*
X4955100Y6687060D01*
X4954120Y6696250D01*
X4955100Y6705430D01*
X4958990Y6713310D01*
X4964830Y6719870D01*
X4972620Y6722490D01*
X4979440Y6721180D01*
X4984310Y6718560D01*
X4989180Y6713310D01*
G01X5033840Y6722490D02*
Y6685750D01*
X5037730Y6676560D01*
X5043570Y6671310D01*
X5050390Y6670000D01*
X5057210Y6671310D01*
X5063050Y6676560D01*
X5066940Y6685750D01*
G01Y6670000D02*
Y6722490D01*
G01X5129130Y6670000D02*
Y6748740D01*
G01X5193270Y6705430D02*
X5224420D01*
X5221500Y6714620D01*
X5216630Y6719870D01*
X5209820Y6722490D01*
X5203000Y6721180D01*
X5197160Y6717240D01*
X5193270Y6708060D01*
X5191320Y6700180D01*
Y6692310D01*
X5193270Y6684430D01*
X5198130Y6676560D01*
X5203980Y6671310D01*
X5210790Y6670000D01*
X5217610Y6672620D01*
X5224420Y6680500D01*
G01X5059210Y5070000D02*
Y5148740D01*
X5047530Y5132990D01*
G01Y5070000D02*
X5070890D01*
G01X5137950Y5148740D02*
X5130160Y5146120D01*
X5124320Y5139550D01*
X5120420Y5131680D01*
X5117500Y5121180D01*
X5116530Y5109370D01*
X5117500Y5097560D01*
X5120420Y5087060D01*
X5124320Y5079180D01*
X5130160Y5072620D01*
X5137950Y5070000D01*
X5145740Y5072620D01*
X5151580Y5079180D01*
X5155480Y5087060D01*
X5158400Y5097560D01*
X5159370Y5109370D01*
X5158400Y5121180D01*
X5155480Y5131680D01*
X5151580Y5139550D01*
X5145740Y5146120D01*
X5137950Y5148740D01*
G01X5200140Y5070000D02*
Y5148740D01*
G01X5231290Y5122490D02*
X5200140Y5092310D01*
G01X5212800Y5104120D02*
X5233240Y5070000D01*
G01X4989210Y5370000D02*
Y5448740D01*
X4977530Y5432990D01*
G01Y5370000D02*
X5000890D01*
G01X5067950Y5448740D02*
X5060160Y5446120D01*
X5054320Y5439550D01*
X5050420Y5431680D01*
X5047500Y5421180D01*
X5046530Y5409370D01*
X5047500Y5397560D01*
X5050420Y5387060D01*
X5054320Y5379180D01*
X5060160Y5372620D01*
X5067950Y5370000D01*
X5075740Y5372620D01*
X5081580Y5379180D01*
X5085480Y5387060D01*
X5088400Y5397560D01*
X5089370Y5409370D01*
X5088400Y5421180D01*
X5085480Y5431680D01*
X5081580Y5439550D01*
X5075740Y5446120D01*
X5067950Y5448740D01*
G01X5130140Y5370000D02*
Y5448740D01*
G01X5161290Y5422490D02*
X5130140Y5392310D01*
G01X5142800Y5404120D02*
X5163240Y5370000D01*
M02*
